%TF.GenerationSoftware,KiCad,Pcbnew,10.0.3*%
%TF.CreationDate,2026-06-09T00:14:24-05:00*%
%TF.ProjectId,Amiga-Boot-Selector,416d6967-612d-4426-9f6f-742d53656c65,rev?*%
%TF.SameCoordinates,Original*%
%TF.FileFunction,Plated,1,2,PTH,Drill*%
%TF.FilePolarity,Positive*%
%FSLAX46Y46*%
G04 Gerber Fmt 4.6, Leading zero omitted, Abs format (unit mm)*
G04 Created by KiCad (PCBNEW 10.0.3) date 2026-06-09 00:14:24*
%MOMM*%
%LPD*%
G01*
G04 APERTURE LIST*
%TA.AperFunction,ViaDrill*%
%ADD10C,0.400000*%
%TD*%
%TA.AperFunction,ComponentDrill*%
%ADD11C,0.800000*%
%TD*%
%TA.AperFunction,ComponentDrill*%
%ADD12C,1.000000*%
%TD*%
G04 APERTURE END LIST*
D10*
X30525000Y-100850000D03*
X30525000Y-115100000D03*
X34225000Y-103475000D03*
X34250000Y-117650000D03*
X37075000Y-120350000D03*
X38950000Y-105300000D03*
D11*
%TO.C,U1*%
X25895000Y-72070000D03*
X25895000Y-74610000D03*
X25895000Y-77150000D03*
X25895000Y-79690000D03*
X25895000Y-82230000D03*
X25895000Y-84770000D03*
X25895000Y-87310000D03*
X25895000Y-89850000D03*
X25895000Y-92390000D03*
X25895000Y-94930000D03*
X25895000Y-97470000D03*
X25895000Y-100010000D03*
X25895000Y-102550000D03*
X25895000Y-105090000D03*
X25895000Y-107630000D03*
X25895000Y-110170000D03*
X25895000Y-112710000D03*
X25895000Y-115250000D03*
X25895000Y-117790000D03*
X25895000Y-120330000D03*
%TO.C,U3*%
X28525000Y-72075000D03*
X28525000Y-74615000D03*
X28525000Y-77155000D03*
X28525000Y-79695000D03*
X28525000Y-82235000D03*
X28525000Y-84775000D03*
X28525000Y-87315000D03*
X28525000Y-89855000D03*
X28525000Y-92395000D03*
X28525000Y-94935000D03*
X28525000Y-97475000D03*
X28525000Y-100015000D03*
X28525000Y-102555000D03*
X28525000Y-105095000D03*
X28525000Y-107635000D03*
X28525000Y-110175000D03*
X28525000Y-112715000D03*
X28525000Y-115255000D03*
X28525000Y-117795000D03*
X28525000Y-120335000D03*
%TO.C,U1*%
X41135000Y-72070000D03*
X41135000Y-74610000D03*
X41135000Y-77150000D03*
X41135000Y-79690000D03*
X41135000Y-82230000D03*
X41135000Y-84770000D03*
X41135000Y-87310000D03*
X41135000Y-89850000D03*
X41135000Y-92390000D03*
X41135000Y-94930000D03*
X41135000Y-97470000D03*
X41135000Y-100010000D03*
X41135000Y-102550000D03*
X41135000Y-105090000D03*
X41135000Y-107630000D03*
X41135000Y-110170000D03*
X41135000Y-112710000D03*
X41135000Y-115250000D03*
X41135000Y-117790000D03*
X41135000Y-120330000D03*
%TO.C,U3*%
X43765000Y-72075000D03*
X43765000Y-74615000D03*
X43765000Y-77155000D03*
X43765000Y-79695000D03*
X43765000Y-82235000D03*
X43765000Y-84775000D03*
X43765000Y-87315000D03*
X43765000Y-89855000D03*
X43765000Y-92395000D03*
X43765000Y-94935000D03*
X43765000Y-97475000D03*
X43765000Y-100015000D03*
X43765000Y-102555000D03*
X43765000Y-105095000D03*
X43765000Y-107635000D03*
X43765000Y-110175000D03*
X43765000Y-112715000D03*
X43765000Y-115255000D03*
X43765000Y-117795000D03*
X43765000Y-120335000D03*
D12*
%TO.C,J1*%
X33625000Y-123200000D03*
X36165000Y-123200000D03*
M02*
