%TF.GenerationSoftware,KiCad,Pcbnew,10.0.3*%
%TF.CreationDate,2026-06-09T00:13:27-05:00*%
%TF.ProjectId,Amiga-Boot-Selector,416d6967-612d-4426-9f6f-742d53656c65,rev?*%
%TF.SameCoordinates,Original*%
%TF.FileFunction,Legend,Top*%
%TF.FilePolarity,Positive*%
%FSLAX46Y46*%
G04 Gerber Fmt 4.6, Leading zero omitted, Abs format (unit mm)*
G04 Created by KiCad (PCBNEW 10.0.3) date 2026-06-09 00:13:27*
%MOMM*%
%LPD*%
G01*
G04 APERTURE LIST*
%ADD10C,0.300000*%
%ADD11C,0.120000*%
%ADD12C,0.150000*%
G04 APERTURE END LIST*
D10*
X31649757Y-98482141D02*
X31649757Y-97767856D01*
X32078328Y-98624998D02*
X30578328Y-98124998D01*
X30578328Y-98124998D02*
X32078328Y-97624998D01*
X32078328Y-97124999D02*
X31078328Y-97124999D01*
X31221185Y-97124999D02*
X31149757Y-97053570D01*
X31149757Y-97053570D02*
X31078328Y-96910713D01*
X31078328Y-96910713D02*
X31078328Y-96696427D01*
X31078328Y-96696427D02*
X31149757Y-96553570D01*
X31149757Y-96553570D02*
X31292614Y-96482142D01*
X31292614Y-96482142D02*
X32078328Y-96482142D01*
X31292614Y-96482142D02*
X31149757Y-96410713D01*
X31149757Y-96410713D02*
X31078328Y-96267856D01*
X31078328Y-96267856D02*
X31078328Y-96053570D01*
X31078328Y-96053570D02*
X31149757Y-95910713D01*
X31149757Y-95910713D02*
X31292614Y-95839284D01*
X31292614Y-95839284D02*
X32078328Y-95839284D01*
X32078328Y-95124999D02*
X31078328Y-95124999D01*
X30578328Y-95124999D02*
X30649757Y-95196427D01*
X30649757Y-95196427D02*
X30721185Y-95124999D01*
X30721185Y-95124999D02*
X30649757Y-95053570D01*
X30649757Y-95053570D02*
X30578328Y-95124999D01*
X30578328Y-95124999D02*
X30721185Y-95124999D01*
X31078328Y-93767856D02*
X32292614Y-93767856D01*
X32292614Y-93767856D02*
X32435471Y-93839284D01*
X32435471Y-93839284D02*
X32506900Y-93910713D01*
X32506900Y-93910713D02*
X32578328Y-94053570D01*
X32578328Y-94053570D02*
X32578328Y-94267856D01*
X32578328Y-94267856D02*
X32506900Y-94410713D01*
X32006900Y-93767856D02*
X32078328Y-93910713D01*
X32078328Y-93910713D02*
X32078328Y-94196427D01*
X32078328Y-94196427D02*
X32006900Y-94339284D01*
X32006900Y-94339284D02*
X31935471Y-94410713D01*
X31935471Y-94410713D02*
X31792614Y-94482141D01*
X31792614Y-94482141D02*
X31364042Y-94482141D01*
X31364042Y-94482141D02*
X31221185Y-94410713D01*
X31221185Y-94410713D02*
X31149757Y-94339284D01*
X31149757Y-94339284D02*
X31078328Y-94196427D01*
X31078328Y-94196427D02*
X31078328Y-93910713D01*
X31078328Y-93910713D02*
X31149757Y-93767856D01*
X32078328Y-92410713D02*
X31292614Y-92410713D01*
X31292614Y-92410713D02*
X31149757Y-92482141D01*
X31149757Y-92482141D02*
X31078328Y-92624998D01*
X31078328Y-92624998D02*
X31078328Y-92910713D01*
X31078328Y-92910713D02*
X31149757Y-93053570D01*
X32006900Y-92410713D02*
X32078328Y-92553570D01*
X32078328Y-92553570D02*
X32078328Y-92910713D01*
X32078328Y-92910713D02*
X32006900Y-93053570D01*
X32006900Y-93053570D02*
X31864042Y-93124998D01*
X31864042Y-93124998D02*
X31721185Y-93124998D01*
X31721185Y-93124998D02*
X31578328Y-93053570D01*
X31578328Y-93053570D02*
X31506900Y-92910713D01*
X31506900Y-92910713D02*
X31506900Y-92553570D01*
X31506900Y-92553570D02*
X31435471Y-92410713D01*
X31292614Y-90053570D02*
X31364042Y-89839284D01*
X31364042Y-89839284D02*
X31435471Y-89767855D01*
X31435471Y-89767855D02*
X31578328Y-89696427D01*
X31578328Y-89696427D02*
X31792614Y-89696427D01*
X31792614Y-89696427D02*
X31935471Y-89767855D01*
X31935471Y-89767855D02*
X32006900Y-89839284D01*
X32006900Y-89839284D02*
X32078328Y-89982141D01*
X32078328Y-89982141D02*
X32078328Y-90553570D01*
X32078328Y-90553570D02*
X30578328Y-90553570D01*
X30578328Y-90553570D02*
X30578328Y-90053570D01*
X30578328Y-90053570D02*
X30649757Y-89910713D01*
X30649757Y-89910713D02*
X30721185Y-89839284D01*
X30721185Y-89839284D02*
X30864042Y-89767855D01*
X30864042Y-89767855D02*
X31006900Y-89767855D01*
X31006900Y-89767855D02*
X31149757Y-89839284D01*
X31149757Y-89839284D02*
X31221185Y-89910713D01*
X31221185Y-89910713D02*
X31292614Y-90053570D01*
X31292614Y-90053570D02*
X31292614Y-90553570D01*
X32078328Y-88839284D02*
X32006900Y-88982141D01*
X32006900Y-88982141D02*
X31935471Y-89053570D01*
X31935471Y-89053570D02*
X31792614Y-89124998D01*
X31792614Y-89124998D02*
X31364042Y-89124998D01*
X31364042Y-89124998D02*
X31221185Y-89053570D01*
X31221185Y-89053570D02*
X31149757Y-88982141D01*
X31149757Y-88982141D02*
X31078328Y-88839284D01*
X31078328Y-88839284D02*
X31078328Y-88624998D01*
X31078328Y-88624998D02*
X31149757Y-88482141D01*
X31149757Y-88482141D02*
X31221185Y-88410713D01*
X31221185Y-88410713D02*
X31364042Y-88339284D01*
X31364042Y-88339284D02*
X31792614Y-88339284D01*
X31792614Y-88339284D02*
X31935471Y-88410713D01*
X31935471Y-88410713D02*
X32006900Y-88482141D01*
X32006900Y-88482141D02*
X32078328Y-88624998D01*
X32078328Y-88624998D02*
X32078328Y-88839284D01*
X32078328Y-87482141D02*
X32006900Y-87624998D01*
X32006900Y-87624998D02*
X31935471Y-87696427D01*
X31935471Y-87696427D02*
X31792614Y-87767855D01*
X31792614Y-87767855D02*
X31364042Y-87767855D01*
X31364042Y-87767855D02*
X31221185Y-87696427D01*
X31221185Y-87696427D02*
X31149757Y-87624998D01*
X31149757Y-87624998D02*
X31078328Y-87482141D01*
X31078328Y-87482141D02*
X31078328Y-87267855D01*
X31078328Y-87267855D02*
X31149757Y-87124998D01*
X31149757Y-87124998D02*
X31221185Y-87053570D01*
X31221185Y-87053570D02*
X31364042Y-86982141D01*
X31364042Y-86982141D02*
X31792614Y-86982141D01*
X31792614Y-86982141D02*
X31935471Y-87053570D01*
X31935471Y-87053570D02*
X32006900Y-87124998D01*
X32006900Y-87124998D02*
X32078328Y-87267855D01*
X32078328Y-87267855D02*
X32078328Y-87482141D01*
X31078328Y-86553569D02*
X31078328Y-85982141D01*
X30578328Y-86339284D02*
X31864042Y-86339284D01*
X31864042Y-86339284D02*
X32006900Y-86267855D01*
X32006900Y-86267855D02*
X32078328Y-86124998D01*
X32078328Y-86124998D02*
X32078328Y-85982141D01*
X32006900Y-84410712D02*
X32078328Y-84196427D01*
X32078328Y-84196427D02*
X32078328Y-83839284D01*
X32078328Y-83839284D02*
X32006900Y-83696427D01*
X32006900Y-83696427D02*
X31935471Y-83624998D01*
X31935471Y-83624998D02*
X31792614Y-83553569D01*
X31792614Y-83553569D02*
X31649757Y-83553569D01*
X31649757Y-83553569D02*
X31506900Y-83624998D01*
X31506900Y-83624998D02*
X31435471Y-83696427D01*
X31435471Y-83696427D02*
X31364042Y-83839284D01*
X31364042Y-83839284D02*
X31292614Y-84124998D01*
X31292614Y-84124998D02*
X31221185Y-84267855D01*
X31221185Y-84267855D02*
X31149757Y-84339284D01*
X31149757Y-84339284D02*
X31006900Y-84410712D01*
X31006900Y-84410712D02*
X30864042Y-84410712D01*
X30864042Y-84410712D02*
X30721185Y-84339284D01*
X30721185Y-84339284D02*
X30649757Y-84267855D01*
X30649757Y-84267855D02*
X30578328Y-84124998D01*
X30578328Y-84124998D02*
X30578328Y-83767855D01*
X30578328Y-83767855D02*
X30649757Y-83553569D01*
X32006900Y-82339284D02*
X32078328Y-82482141D01*
X32078328Y-82482141D02*
X32078328Y-82767856D01*
X32078328Y-82767856D02*
X32006900Y-82910713D01*
X32006900Y-82910713D02*
X31864042Y-82982141D01*
X31864042Y-82982141D02*
X31292614Y-82982141D01*
X31292614Y-82982141D02*
X31149757Y-82910713D01*
X31149757Y-82910713D02*
X31078328Y-82767856D01*
X31078328Y-82767856D02*
X31078328Y-82482141D01*
X31078328Y-82482141D02*
X31149757Y-82339284D01*
X31149757Y-82339284D02*
X31292614Y-82267856D01*
X31292614Y-82267856D02*
X31435471Y-82267856D01*
X31435471Y-82267856D02*
X31578328Y-82982141D01*
X32078328Y-81410713D02*
X32006900Y-81553570D01*
X32006900Y-81553570D02*
X31864042Y-81624999D01*
X31864042Y-81624999D02*
X30578328Y-81624999D01*
X32006900Y-80267856D02*
X32078328Y-80410713D01*
X32078328Y-80410713D02*
X32078328Y-80696428D01*
X32078328Y-80696428D02*
X32006900Y-80839285D01*
X32006900Y-80839285D02*
X31864042Y-80910713D01*
X31864042Y-80910713D02*
X31292614Y-80910713D01*
X31292614Y-80910713D02*
X31149757Y-80839285D01*
X31149757Y-80839285D02*
X31078328Y-80696428D01*
X31078328Y-80696428D02*
X31078328Y-80410713D01*
X31078328Y-80410713D02*
X31149757Y-80267856D01*
X31149757Y-80267856D02*
X31292614Y-80196428D01*
X31292614Y-80196428D02*
X31435471Y-80196428D01*
X31435471Y-80196428D02*
X31578328Y-80910713D01*
X32006900Y-78910714D02*
X32078328Y-79053571D01*
X32078328Y-79053571D02*
X32078328Y-79339285D01*
X32078328Y-79339285D02*
X32006900Y-79482142D01*
X32006900Y-79482142D02*
X31935471Y-79553571D01*
X31935471Y-79553571D02*
X31792614Y-79624999D01*
X31792614Y-79624999D02*
X31364042Y-79624999D01*
X31364042Y-79624999D02*
X31221185Y-79553571D01*
X31221185Y-79553571D02*
X31149757Y-79482142D01*
X31149757Y-79482142D02*
X31078328Y-79339285D01*
X31078328Y-79339285D02*
X31078328Y-79053571D01*
X31078328Y-79053571D02*
X31149757Y-78910714D01*
X31078328Y-78482142D02*
X31078328Y-77910714D01*
X30578328Y-78267857D02*
X31864042Y-78267857D01*
X31864042Y-78267857D02*
X32006900Y-78196428D01*
X32006900Y-78196428D02*
X32078328Y-78053571D01*
X32078328Y-78053571D02*
X32078328Y-77910714D01*
X32078328Y-77196428D02*
X32006900Y-77339285D01*
X32006900Y-77339285D02*
X31935471Y-77410714D01*
X31935471Y-77410714D02*
X31792614Y-77482142D01*
X31792614Y-77482142D02*
X31364042Y-77482142D01*
X31364042Y-77482142D02*
X31221185Y-77410714D01*
X31221185Y-77410714D02*
X31149757Y-77339285D01*
X31149757Y-77339285D02*
X31078328Y-77196428D01*
X31078328Y-77196428D02*
X31078328Y-76982142D01*
X31078328Y-76982142D02*
X31149757Y-76839285D01*
X31149757Y-76839285D02*
X31221185Y-76767857D01*
X31221185Y-76767857D02*
X31364042Y-76696428D01*
X31364042Y-76696428D02*
X31792614Y-76696428D01*
X31792614Y-76696428D02*
X31935471Y-76767857D01*
X31935471Y-76767857D02*
X32006900Y-76839285D01*
X32006900Y-76839285D02*
X32078328Y-76982142D01*
X32078328Y-76982142D02*
X32078328Y-77196428D01*
X32078328Y-76053571D02*
X31078328Y-76053571D01*
X31364042Y-76053571D02*
X31221185Y-75982142D01*
X31221185Y-75982142D02*
X31149757Y-75910714D01*
X31149757Y-75910714D02*
X31078328Y-75767856D01*
X31078328Y-75767856D02*
X31078328Y-75624999D01*
X35395870Y-98078570D02*
X35395870Y-97792856D01*
X35395870Y-97792856D02*
X35467299Y-97649999D01*
X35467299Y-97649999D02*
X35610156Y-97507142D01*
X35610156Y-97507142D02*
X35895870Y-97435713D01*
X35895870Y-97435713D02*
X36395870Y-97435713D01*
X36395870Y-97435713D02*
X36681584Y-97507142D01*
X36681584Y-97507142D02*
X36824442Y-97649999D01*
X36824442Y-97649999D02*
X36895870Y-97792856D01*
X36895870Y-97792856D02*
X36895870Y-98078570D01*
X36895870Y-98078570D02*
X36824442Y-98221428D01*
X36824442Y-98221428D02*
X36681584Y-98364285D01*
X36681584Y-98364285D02*
X36395870Y-98435713D01*
X36395870Y-98435713D02*
X35895870Y-98435713D01*
X35895870Y-98435713D02*
X35610156Y-98364285D01*
X35610156Y-98364285D02*
X35467299Y-98221428D01*
X35467299Y-98221428D02*
X35395870Y-98078570D01*
X36895870Y-96792856D02*
X35395870Y-96792856D01*
X35395870Y-96792856D02*
X35395870Y-96221427D01*
X35395870Y-96221427D02*
X35467299Y-96078570D01*
X35467299Y-96078570D02*
X35538727Y-96007141D01*
X35538727Y-96007141D02*
X35681584Y-95935713D01*
X35681584Y-95935713D02*
X35895870Y-95935713D01*
X35895870Y-95935713D02*
X36038727Y-96007141D01*
X36038727Y-96007141D02*
X36110156Y-96078570D01*
X36110156Y-96078570D02*
X36181584Y-96221427D01*
X36181584Y-96221427D02*
X36181584Y-96792856D01*
X36110156Y-95292856D02*
X36110156Y-94792856D01*
X36895870Y-94578570D02*
X36895870Y-95292856D01*
X36895870Y-95292856D02*
X35395870Y-95292856D01*
X35395870Y-95292856D02*
X35395870Y-94578570D01*
X36895870Y-93935713D02*
X35395870Y-93935713D01*
X35395870Y-93935713D02*
X36895870Y-93078570D01*
X36895870Y-93078570D02*
X35395870Y-93078570D01*
X36110156Y-88935713D02*
X36110156Y-87792856D01*
X36538727Y-87792856D02*
X36538727Y-88935713D01*
X36895870Y-85935713D02*
X35395870Y-85935713D01*
X35395870Y-85935713D02*
X35395870Y-85578570D01*
X35395870Y-85578570D02*
X35467299Y-85364284D01*
X35467299Y-85364284D02*
X35610156Y-85221427D01*
X35610156Y-85221427D02*
X35753013Y-85149998D01*
X35753013Y-85149998D02*
X36038727Y-85078570D01*
X36038727Y-85078570D02*
X36253013Y-85078570D01*
X36253013Y-85078570D02*
X36538727Y-85149998D01*
X36538727Y-85149998D02*
X36681584Y-85221427D01*
X36681584Y-85221427D02*
X36824442Y-85364284D01*
X36824442Y-85364284D02*
X36895870Y-85578570D01*
X36895870Y-85578570D02*
X36895870Y-85935713D01*
X36110156Y-83935713D02*
X36110156Y-84435713D01*
X36895870Y-84435713D02*
X35395870Y-84435713D01*
X35395870Y-84435713D02*
X35395870Y-83721427D01*
X35395870Y-82864284D02*
X35395870Y-82721427D01*
X35395870Y-82721427D02*
X35467299Y-82578570D01*
X35467299Y-82578570D02*
X35538727Y-82507142D01*
X35538727Y-82507142D02*
X35681584Y-82435713D01*
X35681584Y-82435713D02*
X35967299Y-82364284D01*
X35967299Y-82364284D02*
X36324442Y-82364284D01*
X36324442Y-82364284D02*
X36610156Y-82435713D01*
X36610156Y-82435713D02*
X36753013Y-82507142D01*
X36753013Y-82507142D02*
X36824442Y-82578570D01*
X36824442Y-82578570D02*
X36895870Y-82721427D01*
X36895870Y-82721427D02*
X36895870Y-82864284D01*
X36895870Y-82864284D02*
X36824442Y-83007142D01*
X36824442Y-83007142D02*
X36753013Y-83078570D01*
X36753013Y-83078570D02*
X36610156Y-83149999D01*
X36610156Y-83149999D02*
X36324442Y-83221427D01*
X36324442Y-83221427D02*
X35967299Y-83221427D01*
X35967299Y-83221427D02*
X35681584Y-83149999D01*
X35681584Y-83149999D02*
X35538727Y-83078570D01*
X35538727Y-83078570D02*
X35467299Y-83007142D01*
X35467299Y-83007142D02*
X35395870Y-82864284D01*
X39167929Y-97649999D02*
X39239358Y-97721427D01*
X39239358Y-97721427D02*
X39310786Y-97935713D01*
X39310786Y-97935713D02*
X39310786Y-98078570D01*
X39310786Y-98078570D02*
X39239358Y-98292856D01*
X39239358Y-98292856D02*
X39096500Y-98435713D01*
X39096500Y-98435713D02*
X38953643Y-98507142D01*
X38953643Y-98507142D02*
X38667929Y-98578570D01*
X38667929Y-98578570D02*
X38453643Y-98578570D01*
X38453643Y-98578570D02*
X38167929Y-98507142D01*
X38167929Y-98507142D02*
X38025072Y-98435713D01*
X38025072Y-98435713D02*
X37882215Y-98292856D01*
X37882215Y-98292856D02*
X37810786Y-98078570D01*
X37810786Y-98078570D02*
X37810786Y-97935713D01*
X37810786Y-97935713D02*
X37882215Y-97721427D01*
X37882215Y-97721427D02*
X37953643Y-97649999D01*
X39310786Y-96292856D02*
X39310786Y-97007142D01*
X39310786Y-97007142D02*
X37810786Y-97007142D01*
X37810786Y-95507141D02*
X37810786Y-95221427D01*
X37810786Y-95221427D02*
X37882215Y-95078570D01*
X37882215Y-95078570D02*
X38025072Y-94935713D01*
X38025072Y-94935713D02*
X38310786Y-94864284D01*
X38310786Y-94864284D02*
X38810786Y-94864284D01*
X38810786Y-94864284D02*
X39096500Y-94935713D01*
X39096500Y-94935713D02*
X39239358Y-95078570D01*
X39239358Y-95078570D02*
X39310786Y-95221427D01*
X39310786Y-95221427D02*
X39310786Y-95507141D01*
X39310786Y-95507141D02*
X39239358Y-95649999D01*
X39239358Y-95649999D02*
X39096500Y-95792856D01*
X39096500Y-95792856D02*
X38810786Y-95864284D01*
X38810786Y-95864284D02*
X38310786Y-95864284D01*
X38310786Y-95864284D02*
X38025072Y-95792856D01*
X38025072Y-95792856D02*
X37882215Y-95649999D01*
X37882215Y-95649999D02*
X37810786Y-95507141D01*
X39239358Y-94292855D02*
X39310786Y-94078570D01*
X39310786Y-94078570D02*
X39310786Y-93721427D01*
X39310786Y-93721427D02*
X39239358Y-93578570D01*
X39239358Y-93578570D02*
X39167929Y-93507141D01*
X39167929Y-93507141D02*
X39025072Y-93435712D01*
X39025072Y-93435712D02*
X38882215Y-93435712D01*
X38882215Y-93435712D02*
X38739358Y-93507141D01*
X38739358Y-93507141D02*
X38667929Y-93578570D01*
X38667929Y-93578570D02*
X38596500Y-93721427D01*
X38596500Y-93721427D02*
X38525072Y-94007141D01*
X38525072Y-94007141D02*
X38453643Y-94149998D01*
X38453643Y-94149998D02*
X38382215Y-94221427D01*
X38382215Y-94221427D02*
X38239358Y-94292855D01*
X38239358Y-94292855D02*
X38096500Y-94292855D01*
X38096500Y-94292855D02*
X37953643Y-94221427D01*
X37953643Y-94221427D02*
X37882215Y-94149998D01*
X37882215Y-94149998D02*
X37810786Y-94007141D01*
X37810786Y-94007141D02*
X37810786Y-93649998D01*
X37810786Y-93649998D02*
X37882215Y-93435712D01*
X38525072Y-92792856D02*
X38525072Y-92292856D01*
X39310786Y-92078570D02*
X39310786Y-92792856D01*
X39310786Y-92792856D02*
X37810786Y-92792856D01*
X37810786Y-92792856D02*
X37810786Y-92078570D01*
X39310786Y-91435713D02*
X37810786Y-91435713D01*
X37810786Y-91435713D02*
X37810786Y-91078570D01*
X37810786Y-91078570D02*
X37882215Y-90864284D01*
X37882215Y-90864284D02*
X38025072Y-90721427D01*
X38025072Y-90721427D02*
X38167929Y-90649998D01*
X38167929Y-90649998D02*
X38453643Y-90578570D01*
X38453643Y-90578570D02*
X38667929Y-90578570D01*
X38667929Y-90578570D02*
X38953643Y-90649998D01*
X38953643Y-90649998D02*
X39096500Y-90721427D01*
X39096500Y-90721427D02*
X39239358Y-90864284D01*
X39239358Y-90864284D02*
X39310786Y-91078570D01*
X39310786Y-91078570D02*
X39310786Y-91435713D01*
X38525072Y-88792856D02*
X38525072Y-87649999D01*
X38953643Y-87649999D02*
X38953643Y-88792856D01*
X39310786Y-85792856D02*
X37810786Y-85792856D01*
X37810786Y-85792856D02*
X37810786Y-85435713D01*
X37810786Y-85435713D02*
X37882215Y-85221427D01*
X37882215Y-85221427D02*
X38025072Y-85078570D01*
X38025072Y-85078570D02*
X38167929Y-85007141D01*
X38167929Y-85007141D02*
X38453643Y-84935713D01*
X38453643Y-84935713D02*
X38667929Y-84935713D01*
X38667929Y-84935713D02*
X38953643Y-85007141D01*
X38953643Y-85007141D02*
X39096500Y-85078570D01*
X39096500Y-85078570D02*
X39239358Y-85221427D01*
X39239358Y-85221427D02*
X39310786Y-85435713D01*
X39310786Y-85435713D02*
X39310786Y-85792856D01*
X38525072Y-83792856D02*
X38525072Y-84292856D01*
X39310786Y-84292856D02*
X37810786Y-84292856D01*
X37810786Y-84292856D02*
X37810786Y-83578570D01*
X39310786Y-82221427D02*
X39310786Y-83078570D01*
X39310786Y-82649999D02*
X37810786Y-82649999D01*
X37810786Y-82649999D02*
X38025072Y-82792856D01*
X38025072Y-82792856D02*
X38167929Y-82935713D01*
X38167929Y-82935713D02*
X38239358Y-83078570D01*
%TO.C,J1*%
D11*
X32295000Y-124640000D02*
X37495000Y-124640000D01*
X37495000Y-124640000D02*
X37495000Y-127300000D01*
X37495000Y-127300000D02*
X32295000Y-127300000D01*
X32295000Y-127300000D02*
X32295000Y-124640000D01*
X33245000Y-124310000D02*
X33245000Y-124640000D01*
X34005000Y-124310000D02*
X34005000Y-124640000D01*
X34895000Y-124640000D02*
X34895000Y-127300000D01*
X35785000Y-124242929D02*
X35785000Y-124640000D01*
X36545000Y-124242929D02*
X36545000Y-124640000D01*
X33625000Y-121930000D02*
X32355000Y-121930000D01*
X32355000Y-121930000D02*
X32355000Y-123200000D01*
%TO.C,U2*%
X34900000Y-108140000D02*
X32950000Y-108140000D01*
X34900000Y-108140000D02*
X36850000Y-108140000D01*
X34900000Y-118260000D02*
X32950000Y-118260000D01*
X34900000Y-118260000D02*
X38350000Y-118260000D01*
%TO.C,C1*%
D12*
X33200000Y-119675000D02*
X33450000Y-119675000D01*
X33450000Y-119675000D02*
X33450000Y-120775000D01*
X33450000Y-120775000D02*
X33200000Y-120775000D01*
X33200000Y-120775000D02*
X33200000Y-119675000D01*
%TD*%
M02*
