%TF.GenerationSoftware,KiCad,Pcbnew,10.0.3*%
%TF.CreationDate,2026-06-09T00:13:27-05:00*%
%TF.ProjectId,Amiga-Boot-Selector,416d6967-612d-4426-9f6f-742d53656c65,rev?*%
%TF.SameCoordinates,Original*%
%TF.FileFunction,Legend,Bot*%
%TF.FilePolarity,Positive*%
%FSLAX46Y46*%
G04 Gerber Fmt 4.6, Leading zero omitted, Abs format (unit mm)*
G04 Created by KiCad (PCBNEW 10.0.3) date 2026-06-09 00:13:27*
%MOMM*%
%LPD*%
G01*
G04 APERTURE LIST*
%ADD10C,0.300000*%
G04 APERTURE END LIST*
D10*
X32602698Y-76303570D02*
X32674126Y-76517856D01*
X32674126Y-76517856D02*
X32745555Y-76589285D01*
X32745555Y-76589285D02*
X32888412Y-76660713D01*
X32888412Y-76660713D02*
X33102698Y-76660713D01*
X33102698Y-76660713D02*
X33245555Y-76589285D01*
X33245555Y-76589285D02*
X33316984Y-76517856D01*
X33316984Y-76517856D02*
X33388412Y-76374999D01*
X33388412Y-76374999D02*
X33388412Y-75803570D01*
X33388412Y-75803570D02*
X31888412Y-75803570D01*
X31888412Y-75803570D02*
X31888412Y-76303570D01*
X31888412Y-76303570D02*
X31959841Y-76446428D01*
X31959841Y-76446428D02*
X32031269Y-76517856D01*
X32031269Y-76517856D02*
X32174126Y-76589285D01*
X32174126Y-76589285D02*
X32316984Y-76589285D01*
X32316984Y-76589285D02*
X32459841Y-76517856D01*
X32459841Y-76517856D02*
X32531269Y-76446428D01*
X32531269Y-76446428D02*
X32602698Y-76303570D01*
X32602698Y-76303570D02*
X32602698Y-75803570D01*
X33388412Y-77946428D02*
X32602698Y-77946428D01*
X32602698Y-77946428D02*
X32459841Y-77874999D01*
X32459841Y-77874999D02*
X32388412Y-77732142D01*
X32388412Y-77732142D02*
X32388412Y-77446428D01*
X32388412Y-77446428D02*
X32459841Y-77303570D01*
X33316984Y-77946428D02*
X33388412Y-77803570D01*
X33388412Y-77803570D02*
X33388412Y-77446428D01*
X33388412Y-77446428D02*
X33316984Y-77303570D01*
X33316984Y-77303570D02*
X33174126Y-77232142D01*
X33174126Y-77232142D02*
X33031269Y-77232142D01*
X33031269Y-77232142D02*
X32888412Y-77303570D01*
X32888412Y-77303570D02*
X32816984Y-77446428D01*
X32816984Y-77446428D02*
X32816984Y-77803570D01*
X32816984Y-77803570D02*
X32745555Y-77946428D01*
X33316984Y-78589285D02*
X33388412Y-78732142D01*
X33388412Y-78732142D02*
X33388412Y-79017856D01*
X33388412Y-79017856D02*
X33316984Y-79160713D01*
X33316984Y-79160713D02*
X33174126Y-79232142D01*
X33174126Y-79232142D02*
X33102698Y-79232142D01*
X33102698Y-79232142D02*
X32959841Y-79160713D01*
X32959841Y-79160713D02*
X32888412Y-79017856D01*
X32888412Y-79017856D02*
X32888412Y-78803571D01*
X32888412Y-78803571D02*
X32816984Y-78660713D01*
X32816984Y-78660713D02*
X32674126Y-78589285D01*
X32674126Y-78589285D02*
X32602698Y-78589285D01*
X32602698Y-78589285D02*
X32459841Y-78660713D01*
X32459841Y-78660713D02*
X32388412Y-78803571D01*
X32388412Y-78803571D02*
X32388412Y-79017856D01*
X32388412Y-79017856D02*
X32459841Y-79160713D01*
X33316984Y-80446428D02*
X33388412Y-80303571D01*
X33388412Y-80303571D02*
X33388412Y-80017857D01*
X33388412Y-80017857D02*
X33316984Y-79874999D01*
X33316984Y-79874999D02*
X33174126Y-79803571D01*
X33174126Y-79803571D02*
X32602698Y-79803571D01*
X32602698Y-79803571D02*
X32459841Y-79874999D01*
X32459841Y-79874999D02*
X32388412Y-80017857D01*
X32388412Y-80017857D02*
X32388412Y-80303571D01*
X32388412Y-80303571D02*
X32459841Y-80446428D01*
X32459841Y-80446428D02*
X32602698Y-80517857D01*
X32602698Y-80517857D02*
X32745555Y-80517857D01*
X32745555Y-80517857D02*
X32888412Y-79803571D01*
X33388412Y-81803571D02*
X31888412Y-81803571D01*
X33316984Y-81803571D02*
X33388412Y-81660713D01*
X33388412Y-81660713D02*
X33388412Y-81374999D01*
X33388412Y-81374999D02*
X33316984Y-81232142D01*
X33316984Y-81232142D02*
X33245555Y-81160713D01*
X33245555Y-81160713D02*
X33102698Y-81089285D01*
X33102698Y-81089285D02*
X32674126Y-81089285D01*
X32674126Y-81089285D02*
X32531269Y-81160713D01*
X32531269Y-81160713D02*
X32459841Y-81232142D01*
X32459841Y-81232142D02*
X32388412Y-81374999D01*
X32388412Y-81374999D02*
X32388412Y-81660713D01*
X32388412Y-81660713D02*
X32459841Y-81803571D01*
X33388412Y-83874999D02*
X33316984Y-83732142D01*
X33316984Y-83732142D02*
X33245555Y-83660713D01*
X33245555Y-83660713D02*
X33102698Y-83589285D01*
X33102698Y-83589285D02*
X32674126Y-83589285D01*
X32674126Y-83589285D02*
X32531269Y-83660713D01*
X32531269Y-83660713D02*
X32459841Y-83732142D01*
X32459841Y-83732142D02*
X32388412Y-83874999D01*
X32388412Y-83874999D02*
X32388412Y-84089285D01*
X32388412Y-84089285D02*
X32459841Y-84232142D01*
X32459841Y-84232142D02*
X32531269Y-84303571D01*
X32531269Y-84303571D02*
X32674126Y-84374999D01*
X32674126Y-84374999D02*
X33102698Y-84374999D01*
X33102698Y-84374999D02*
X33245555Y-84303571D01*
X33245555Y-84303571D02*
X33316984Y-84232142D01*
X33316984Y-84232142D02*
X33388412Y-84089285D01*
X33388412Y-84089285D02*
X33388412Y-83874999D01*
X32388412Y-85017856D02*
X33388412Y-85017856D01*
X32531269Y-85017856D02*
X32459841Y-85089285D01*
X32459841Y-85089285D02*
X32388412Y-85232142D01*
X32388412Y-85232142D02*
X32388412Y-85446428D01*
X32388412Y-85446428D02*
X32459841Y-85589285D01*
X32459841Y-85589285D02*
X32602698Y-85660714D01*
X32602698Y-85660714D02*
X33388412Y-85660714D01*
X32388412Y-87374999D02*
X33388412Y-87660714D01*
X33388412Y-87660714D02*
X32674126Y-87946428D01*
X32674126Y-87946428D02*
X33388412Y-88232142D01*
X33388412Y-88232142D02*
X32388412Y-88517856D01*
X33388412Y-89303571D02*
X33316984Y-89160714D01*
X33316984Y-89160714D02*
X33245555Y-89089285D01*
X33245555Y-89089285D02*
X33102698Y-89017857D01*
X33102698Y-89017857D02*
X32674126Y-89017857D01*
X32674126Y-89017857D02*
X32531269Y-89089285D01*
X32531269Y-89089285D02*
X32459841Y-89160714D01*
X32459841Y-89160714D02*
X32388412Y-89303571D01*
X32388412Y-89303571D02*
X32388412Y-89517857D01*
X32388412Y-89517857D02*
X32459841Y-89660714D01*
X32459841Y-89660714D02*
X32531269Y-89732143D01*
X32531269Y-89732143D02*
X32674126Y-89803571D01*
X32674126Y-89803571D02*
X33102698Y-89803571D01*
X33102698Y-89803571D02*
X33245555Y-89732143D01*
X33245555Y-89732143D02*
X33316984Y-89660714D01*
X33316984Y-89660714D02*
X33388412Y-89517857D01*
X33388412Y-89517857D02*
X33388412Y-89303571D01*
X33388412Y-90446428D02*
X32388412Y-90446428D01*
X32674126Y-90446428D02*
X32531269Y-90517857D01*
X32531269Y-90517857D02*
X32459841Y-90589286D01*
X32459841Y-90589286D02*
X32388412Y-90732143D01*
X32388412Y-90732143D02*
X32388412Y-90875000D01*
X33388412Y-91374999D02*
X31888412Y-91374999D01*
X32816984Y-91517857D02*
X33388412Y-91946428D01*
X32388412Y-91946428D02*
X32959841Y-91374999D01*
X33388412Y-93732142D02*
X31888412Y-93732142D01*
X32459841Y-93732142D02*
X32388412Y-93875000D01*
X32388412Y-93875000D02*
X32388412Y-94160714D01*
X32388412Y-94160714D02*
X32459841Y-94303571D01*
X32459841Y-94303571D02*
X32531269Y-94375000D01*
X32531269Y-94375000D02*
X32674126Y-94446428D01*
X32674126Y-94446428D02*
X33102698Y-94446428D01*
X33102698Y-94446428D02*
X33245555Y-94375000D01*
X33245555Y-94375000D02*
X33316984Y-94303571D01*
X33316984Y-94303571D02*
X33388412Y-94160714D01*
X33388412Y-94160714D02*
X33388412Y-93875000D01*
X33388412Y-93875000D02*
X33316984Y-93732142D01*
X32388412Y-94946428D02*
X33388412Y-95303571D01*
X32388412Y-95660714D02*
X33388412Y-95303571D01*
X33388412Y-95303571D02*
X33745555Y-95160714D01*
X33745555Y-95160714D02*
X33816984Y-95089285D01*
X33816984Y-95089285D02*
X33888412Y-94946428D01*
X31888412Y-97803571D02*
X32959841Y-97803571D01*
X32959841Y-97803571D02*
X33174126Y-97732142D01*
X33174126Y-97732142D02*
X33316984Y-97589285D01*
X33316984Y-97589285D02*
X33388412Y-97374999D01*
X33388412Y-97374999D02*
X33388412Y-97232142D01*
X32388412Y-99160714D02*
X33388412Y-99160714D01*
X32388412Y-98517856D02*
X33174126Y-98517856D01*
X33174126Y-98517856D02*
X33316984Y-98589285D01*
X33316984Y-98589285D02*
X33388412Y-98732142D01*
X33388412Y-98732142D02*
X33388412Y-98946428D01*
X33388412Y-98946428D02*
X33316984Y-99089285D01*
X33316984Y-99089285D02*
X33245555Y-99160714D01*
X33316984Y-99803571D02*
X33388412Y-99946428D01*
X33388412Y-99946428D02*
X33388412Y-100232142D01*
X33388412Y-100232142D02*
X33316984Y-100374999D01*
X33316984Y-100374999D02*
X33174126Y-100446428D01*
X33174126Y-100446428D02*
X33102698Y-100446428D01*
X33102698Y-100446428D02*
X32959841Y-100374999D01*
X32959841Y-100374999D02*
X32888412Y-100232142D01*
X32888412Y-100232142D02*
X32888412Y-100017857D01*
X32888412Y-100017857D02*
X32816984Y-99874999D01*
X32816984Y-99874999D02*
X32674126Y-99803571D01*
X32674126Y-99803571D02*
X32602698Y-99803571D01*
X32602698Y-99803571D02*
X32459841Y-99874999D01*
X32459841Y-99874999D02*
X32388412Y-100017857D01*
X32388412Y-100017857D02*
X32388412Y-100232142D01*
X32388412Y-100232142D02*
X32459841Y-100374999D01*
X33316984Y-101017857D02*
X33388412Y-101160714D01*
X33388412Y-101160714D02*
X33388412Y-101446428D01*
X33388412Y-101446428D02*
X33316984Y-101589285D01*
X33316984Y-101589285D02*
X33174126Y-101660714D01*
X33174126Y-101660714D02*
X33102698Y-101660714D01*
X33102698Y-101660714D02*
X32959841Y-101589285D01*
X32959841Y-101589285D02*
X32888412Y-101446428D01*
X32888412Y-101446428D02*
X32888412Y-101232143D01*
X32888412Y-101232143D02*
X32816984Y-101089285D01*
X32816984Y-101089285D02*
X32674126Y-101017857D01*
X32674126Y-101017857D02*
X32602698Y-101017857D01*
X32602698Y-101017857D02*
X32459841Y-101089285D01*
X32459841Y-101089285D02*
X32388412Y-101232143D01*
X32388412Y-101232143D02*
X32388412Y-101446428D01*
X32388412Y-101446428D02*
X32459841Y-101589285D01*
X33388412Y-102303571D02*
X32388412Y-102303571D01*
X31888412Y-102303571D02*
X31959841Y-102232143D01*
X31959841Y-102232143D02*
X32031269Y-102303571D01*
X32031269Y-102303571D02*
X31959841Y-102375000D01*
X31959841Y-102375000D02*
X31888412Y-102303571D01*
X31888412Y-102303571D02*
X32031269Y-102303571D01*
X33388412Y-104160714D02*
X31888412Y-104160714D01*
X33388412Y-105017857D02*
X32531269Y-104375000D01*
X31888412Y-105017857D02*
X32745555Y-104160714D01*
X33388412Y-105660714D02*
X32388412Y-105660714D01*
X31888412Y-105660714D02*
X31959841Y-105589286D01*
X31959841Y-105589286D02*
X32031269Y-105660714D01*
X32031269Y-105660714D02*
X31959841Y-105732143D01*
X31959841Y-105732143D02*
X31888412Y-105660714D01*
X31888412Y-105660714D02*
X32031269Y-105660714D01*
X33388412Y-106589286D02*
X33316984Y-106446429D01*
X33316984Y-106446429D02*
X33174126Y-106375000D01*
X33174126Y-106375000D02*
X31888412Y-106375000D01*
X32388412Y-107160714D02*
X33888412Y-107160714D01*
X32459841Y-107160714D02*
X32388412Y-107303572D01*
X32388412Y-107303572D02*
X32388412Y-107589286D01*
X32388412Y-107589286D02*
X32459841Y-107732143D01*
X32459841Y-107732143D02*
X32531269Y-107803572D01*
X32531269Y-107803572D02*
X32674126Y-107875000D01*
X32674126Y-107875000D02*
X33102698Y-107875000D01*
X33102698Y-107875000D02*
X33245555Y-107803572D01*
X33245555Y-107803572D02*
X33316984Y-107732143D01*
X33316984Y-107732143D02*
X33388412Y-107589286D01*
X33388412Y-107589286D02*
X33388412Y-107303572D01*
X33388412Y-107303572D02*
X33316984Y-107160714D01*
X33316984Y-109089286D02*
X33388412Y-108946429D01*
X33388412Y-108946429D02*
X33388412Y-108660715D01*
X33388412Y-108660715D02*
X33316984Y-108517857D01*
X33316984Y-108517857D02*
X33174126Y-108446429D01*
X33174126Y-108446429D02*
X32602698Y-108446429D01*
X32602698Y-108446429D02*
X32459841Y-108517857D01*
X32459841Y-108517857D02*
X32388412Y-108660715D01*
X32388412Y-108660715D02*
X32388412Y-108946429D01*
X32388412Y-108946429D02*
X32459841Y-109089286D01*
X32459841Y-109089286D02*
X32602698Y-109160715D01*
X32602698Y-109160715D02*
X32745555Y-109160715D01*
X32745555Y-109160715D02*
X32888412Y-108446429D01*
X33388412Y-110017857D02*
X33316984Y-109875000D01*
X33316984Y-109875000D02*
X33174126Y-109803571D01*
X33174126Y-109803571D02*
X31888412Y-109803571D01*
X33388412Y-111232143D02*
X32602698Y-111232143D01*
X32602698Y-111232143D02*
X32459841Y-111160714D01*
X32459841Y-111160714D02*
X32388412Y-111017857D01*
X32388412Y-111017857D02*
X32388412Y-110732143D01*
X32388412Y-110732143D02*
X32459841Y-110589285D01*
X33316984Y-111232143D02*
X33388412Y-111089285D01*
X33388412Y-111089285D02*
X33388412Y-110732143D01*
X33388412Y-110732143D02*
X33316984Y-110589285D01*
X33316984Y-110589285D02*
X33174126Y-110517857D01*
X33174126Y-110517857D02*
X33031269Y-110517857D01*
X33031269Y-110517857D02*
X32888412Y-110589285D01*
X32888412Y-110589285D02*
X32816984Y-110732143D01*
X32816984Y-110732143D02*
X32816984Y-111089285D01*
X32816984Y-111089285D02*
X32745555Y-111232143D01*
X31888412Y-110589285D02*
X31959841Y-110660714D01*
X31959841Y-110660714D02*
X32031269Y-110589285D01*
X32031269Y-110589285D02*
X31959841Y-110517857D01*
X31959841Y-110517857D02*
X31888412Y-110589285D01*
X31888412Y-110589285D02*
X32031269Y-110589285D01*
X31888412Y-111160714D02*
X31959841Y-111232143D01*
X31959841Y-111232143D02*
X32031269Y-111160714D01*
X32031269Y-111160714D02*
X31959841Y-111089285D01*
X31959841Y-111089285D02*
X31888412Y-111160714D01*
X31888412Y-111160714D02*
X32031269Y-111160714D01*
X33388412Y-111946428D02*
X32388412Y-111946428D01*
X31888412Y-111946428D02*
X31959841Y-111875000D01*
X31959841Y-111875000D02*
X32031269Y-111946428D01*
X32031269Y-111946428D02*
X31959841Y-112017857D01*
X31959841Y-112017857D02*
X31888412Y-111946428D01*
X31888412Y-111946428D02*
X32031269Y-111946428D01*
X32388412Y-112660714D02*
X33388412Y-112660714D01*
X32531269Y-112660714D02*
X32459841Y-112732143D01*
X32459841Y-112732143D02*
X32388412Y-112875000D01*
X32388412Y-112875000D02*
X32388412Y-113089286D01*
X32388412Y-113089286D02*
X32459841Y-113232143D01*
X32459841Y-113232143D02*
X32602698Y-113303572D01*
X32602698Y-113303572D02*
X33388412Y-113303572D01*
X33316984Y-114589286D02*
X33388412Y-114446429D01*
X33388412Y-114446429D02*
X33388412Y-114160715D01*
X33388412Y-114160715D02*
X33316984Y-114017857D01*
X33316984Y-114017857D02*
X33174126Y-113946429D01*
X33174126Y-113946429D02*
X32602698Y-113946429D01*
X32602698Y-113946429D02*
X32459841Y-114017857D01*
X32459841Y-114017857D02*
X32388412Y-114160715D01*
X32388412Y-114160715D02*
X32388412Y-114446429D01*
X32388412Y-114446429D02*
X32459841Y-114589286D01*
X32459841Y-114589286D02*
X32602698Y-114660715D01*
X32602698Y-114660715D02*
X32745555Y-114660715D01*
X32745555Y-114660715D02*
X32888412Y-113946429D01*
X32388412Y-115303571D02*
X33388412Y-115303571D01*
X32531269Y-115303571D02*
X32459841Y-115375000D01*
X32459841Y-115375000D02*
X32388412Y-115517857D01*
X32388412Y-115517857D02*
X32388412Y-115732143D01*
X32388412Y-115732143D02*
X32459841Y-115875000D01*
X32459841Y-115875000D02*
X32602698Y-115946429D01*
X32602698Y-115946429D02*
X33388412Y-115946429D01*
X35660471Y-78767858D02*
X35731900Y-78696430D01*
X35731900Y-78696430D02*
X35803328Y-78482144D01*
X35803328Y-78482144D02*
X35803328Y-78339287D01*
X35803328Y-78339287D02*
X35731900Y-78125001D01*
X35731900Y-78125001D02*
X35589042Y-77982144D01*
X35589042Y-77982144D02*
X35446185Y-77910715D01*
X35446185Y-77910715D02*
X35160471Y-77839287D01*
X35160471Y-77839287D02*
X34946185Y-77839287D01*
X34946185Y-77839287D02*
X34660471Y-77910715D01*
X34660471Y-77910715D02*
X34517614Y-77982144D01*
X34517614Y-77982144D02*
X34374757Y-78125001D01*
X34374757Y-78125001D02*
X34303328Y-78339287D01*
X34303328Y-78339287D02*
X34303328Y-78482144D01*
X34303328Y-78482144D02*
X34374757Y-78696430D01*
X34374757Y-78696430D02*
X34446185Y-78767858D01*
X35803328Y-79625001D02*
X35731900Y-79482144D01*
X35731900Y-79482144D02*
X35660471Y-79410715D01*
X35660471Y-79410715D02*
X35517614Y-79339287D01*
X35517614Y-79339287D02*
X35089042Y-79339287D01*
X35089042Y-79339287D02*
X34946185Y-79410715D01*
X34946185Y-79410715D02*
X34874757Y-79482144D01*
X34874757Y-79482144D02*
X34803328Y-79625001D01*
X34803328Y-79625001D02*
X34803328Y-79839287D01*
X34803328Y-79839287D02*
X34874757Y-79982144D01*
X34874757Y-79982144D02*
X34946185Y-80053573D01*
X34946185Y-80053573D02*
X35089042Y-80125001D01*
X35089042Y-80125001D02*
X35517614Y-80125001D01*
X35517614Y-80125001D02*
X35660471Y-80053573D01*
X35660471Y-80053573D02*
X35731900Y-79982144D01*
X35731900Y-79982144D02*
X35803328Y-79839287D01*
X35803328Y-79839287D02*
X35803328Y-79625001D01*
X34803328Y-80767858D02*
X36303328Y-80767858D01*
X34874757Y-80767858D02*
X34803328Y-80910716D01*
X34803328Y-80910716D02*
X34803328Y-81196430D01*
X34803328Y-81196430D02*
X34874757Y-81339287D01*
X34874757Y-81339287D02*
X34946185Y-81410716D01*
X34946185Y-81410716D02*
X35089042Y-81482144D01*
X35089042Y-81482144D02*
X35517614Y-81482144D01*
X35517614Y-81482144D02*
X35660471Y-81410716D01*
X35660471Y-81410716D02*
X35731900Y-81339287D01*
X35731900Y-81339287D02*
X35803328Y-81196430D01*
X35803328Y-81196430D02*
X35803328Y-80910716D01*
X35803328Y-80910716D02*
X35731900Y-80767858D01*
X34803328Y-81982144D02*
X35803328Y-82339287D01*
X34803328Y-82696430D02*
X35803328Y-82339287D01*
X35803328Y-82339287D02*
X36160471Y-82196430D01*
X36160471Y-82196430D02*
X36231900Y-82125001D01*
X36231900Y-82125001D02*
X36303328Y-81982144D01*
X35803328Y-83267858D02*
X34803328Y-83267858D01*
X35089042Y-83267858D02*
X34946185Y-83339287D01*
X34946185Y-83339287D02*
X34874757Y-83410716D01*
X34874757Y-83410716D02*
X34803328Y-83553573D01*
X34803328Y-83553573D02*
X34803328Y-83696430D01*
X35803328Y-84196429D02*
X34803328Y-84196429D01*
X34303328Y-84196429D02*
X34374757Y-84125001D01*
X34374757Y-84125001D02*
X34446185Y-84196429D01*
X34446185Y-84196429D02*
X34374757Y-84267858D01*
X34374757Y-84267858D02*
X34303328Y-84196429D01*
X34303328Y-84196429D02*
X34446185Y-84196429D01*
X34803328Y-85553573D02*
X36017614Y-85553573D01*
X36017614Y-85553573D02*
X36160471Y-85482144D01*
X36160471Y-85482144D02*
X36231900Y-85410715D01*
X36231900Y-85410715D02*
X36303328Y-85267858D01*
X36303328Y-85267858D02*
X36303328Y-85053573D01*
X36303328Y-85053573D02*
X36231900Y-84910715D01*
X35731900Y-85553573D02*
X35803328Y-85410715D01*
X35803328Y-85410715D02*
X35803328Y-85125001D01*
X35803328Y-85125001D02*
X35731900Y-84982144D01*
X35731900Y-84982144D02*
X35660471Y-84910715D01*
X35660471Y-84910715D02*
X35517614Y-84839287D01*
X35517614Y-84839287D02*
X35089042Y-84839287D01*
X35089042Y-84839287D02*
X34946185Y-84910715D01*
X34946185Y-84910715D02*
X34874757Y-84982144D01*
X34874757Y-84982144D02*
X34803328Y-85125001D01*
X34803328Y-85125001D02*
X34803328Y-85410715D01*
X34803328Y-85410715D02*
X34874757Y-85553573D01*
X35803328Y-86267858D02*
X34303328Y-86267858D01*
X35803328Y-86910716D02*
X35017614Y-86910716D01*
X35017614Y-86910716D02*
X34874757Y-86839287D01*
X34874757Y-86839287D02*
X34803328Y-86696430D01*
X34803328Y-86696430D02*
X34803328Y-86482144D01*
X34803328Y-86482144D02*
X34874757Y-86339287D01*
X34874757Y-86339287D02*
X34946185Y-86267858D01*
X34803328Y-87410716D02*
X34803328Y-87982144D01*
X34303328Y-87625001D02*
X35589042Y-87625001D01*
X35589042Y-87625001D02*
X35731900Y-87696430D01*
X35731900Y-87696430D02*
X35803328Y-87839287D01*
X35803328Y-87839287D02*
X35803328Y-87982144D01*
X34446185Y-89553573D02*
X34374757Y-89625001D01*
X34374757Y-89625001D02*
X34303328Y-89767859D01*
X34303328Y-89767859D02*
X34303328Y-90125001D01*
X34303328Y-90125001D02*
X34374757Y-90267859D01*
X34374757Y-90267859D02*
X34446185Y-90339287D01*
X34446185Y-90339287D02*
X34589042Y-90410716D01*
X34589042Y-90410716D02*
X34731900Y-90410716D01*
X34731900Y-90410716D02*
X34946185Y-90339287D01*
X34946185Y-90339287D02*
X35803328Y-89482144D01*
X35803328Y-89482144D02*
X35803328Y-90410716D01*
X34303328Y-91339287D02*
X34303328Y-91482144D01*
X34303328Y-91482144D02*
X34374757Y-91625001D01*
X34374757Y-91625001D02*
X34446185Y-91696430D01*
X34446185Y-91696430D02*
X34589042Y-91767858D01*
X34589042Y-91767858D02*
X34874757Y-91839287D01*
X34874757Y-91839287D02*
X35231900Y-91839287D01*
X35231900Y-91839287D02*
X35517614Y-91767858D01*
X35517614Y-91767858D02*
X35660471Y-91696430D01*
X35660471Y-91696430D02*
X35731900Y-91625001D01*
X35731900Y-91625001D02*
X35803328Y-91482144D01*
X35803328Y-91482144D02*
X35803328Y-91339287D01*
X35803328Y-91339287D02*
X35731900Y-91196430D01*
X35731900Y-91196430D02*
X35660471Y-91125001D01*
X35660471Y-91125001D02*
X35517614Y-91053572D01*
X35517614Y-91053572D02*
X35231900Y-90982144D01*
X35231900Y-90982144D02*
X34874757Y-90982144D01*
X34874757Y-90982144D02*
X34589042Y-91053572D01*
X34589042Y-91053572D02*
X34446185Y-91125001D01*
X34446185Y-91125001D02*
X34374757Y-91196430D01*
X34374757Y-91196430D02*
X34303328Y-91339287D01*
X34446185Y-92410715D02*
X34374757Y-92482143D01*
X34374757Y-92482143D02*
X34303328Y-92625001D01*
X34303328Y-92625001D02*
X34303328Y-92982143D01*
X34303328Y-92982143D02*
X34374757Y-93125001D01*
X34374757Y-93125001D02*
X34446185Y-93196429D01*
X34446185Y-93196429D02*
X34589042Y-93267858D01*
X34589042Y-93267858D02*
X34731900Y-93267858D01*
X34731900Y-93267858D02*
X34946185Y-93196429D01*
X34946185Y-93196429D02*
X35803328Y-92339286D01*
X35803328Y-92339286D02*
X35803328Y-93267858D01*
X35803328Y-94696429D02*
X35803328Y-93839286D01*
X35803328Y-94267857D02*
X34303328Y-94267857D01*
X34303328Y-94267857D02*
X34517614Y-94125000D01*
X34517614Y-94125000D02*
X34660471Y-93982143D01*
X34660471Y-93982143D02*
X34731900Y-93839286D01*
X35731900Y-96410714D02*
X35803328Y-96625000D01*
X35803328Y-96625000D02*
X35803328Y-96982142D01*
X35803328Y-96982142D02*
X35731900Y-97125000D01*
X35731900Y-97125000D02*
X35660471Y-97196428D01*
X35660471Y-97196428D02*
X35517614Y-97267857D01*
X35517614Y-97267857D02*
X35374757Y-97267857D01*
X35374757Y-97267857D02*
X35231900Y-97196428D01*
X35231900Y-97196428D02*
X35160471Y-97125000D01*
X35160471Y-97125000D02*
X35089042Y-96982142D01*
X35089042Y-96982142D02*
X35017614Y-96696428D01*
X35017614Y-96696428D02*
X34946185Y-96553571D01*
X34946185Y-96553571D02*
X34874757Y-96482142D01*
X34874757Y-96482142D02*
X34731900Y-96410714D01*
X34731900Y-96410714D02*
X34589042Y-96410714D01*
X34589042Y-96410714D02*
X34446185Y-96482142D01*
X34446185Y-96482142D02*
X34374757Y-96553571D01*
X34374757Y-96553571D02*
X34303328Y-96696428D01*
X34303328Y-96696428D02*
X34303328Y-97053571D01*
X34303328Y-97053571D02*
X34374757Y-97267857D01*
X34803328Y-97696428D02*
X34803328Y-98267856D01*
X34303328Y-97910713D02*
X35589042Y-97910713D01*
X35589042Y-97910713D02*
X35731900Y-97982142D01*
X35731900Y-97982142D02*
X35803328Y-98124999D01*
X35803328Y-98124999D02*
X35803328Y-98267856D01*
X35731900Y-99339285D02*
X35803328Y-99196428D01*
X35803328Y-99196428D02*
X35803328Y-98910714D01*
X35803328Y-98910714D02*
X35731900Y-98767856D01*
X35731900Y-98767856D02*
X35589042Y-98696428D01*
X35589042Y-98696428D02*
X35017614Y-98696428D01*
X35017614Y-98696428D02*
X34874757Y-98767856D01*
X34874757Y-98767856D02*
X34803328Y-98910714D01*
X34803328Y-98910714D02*
X34803328Y-99196428D01*
X34803328Y-99196428D02*
X34874757Y-99339285D01*
X34874757Y-99339285D02*
X35017614Y-99410714D01*
X35017614Y-99410714D02*
X35160471Y-99410714D01*
X35160471Y-99410714D02*
X35303328Y-98696428D01*
X34803328Y-99839285D02*
X34803328Y-100410713D01*
X35803328Y-100053570D02*
X34517614Y-100053570D01*
X34517614Y-100053570D02*
X34374757Y-100124999D01*
X34374757Y-100124999D02*
X34303328Y-100267856D01*
X34303328Y-100267856D02*
X34303328Y-100410713D01*
X35803328Y-101553571D02*
X35017614Y-101553571D01*
X35017614Y-101553571D02*
X34874757Y-101482142D01*
X34874757Y-101482142D02*
X34803328Y-101339285D01*
X34803328Y-101339285D02*
X34803328Y-101053571D01*
X34803328Y-101053571D02*
X34874757Y-100910713D01*
X35731900Y-101553571D02*
X35803328Y-101410713D01*
X35803328Y-101410713D02*
X35803328Y-101053571D01*
X35803328Y-101053571D02*
X35731900Y-100910713D01*
X35731900Y-100910713D02*
X35589042Y-100839285D01*
X35589042Y-100839285D02*
X35446185Y-100839285D01*
X35446185Y-100839285D02*
X35303328Y-100910713D01*
X35303328Y-100910713D02*
X35231900Y-101053571D01*
X35231900Y-101053571D02*
X35231900Y-101410713D01*
X35231900Y-101410713D02*
X35160471Y-101553571D01*
X34803328Y-102267856D02*
X35803328Y-102267856D01*
X34946185Y-102267856D02*
X34874757Y-102339285D01*
X34874757Y-102339285D02*
X34803328Y-102482142D01*
X34803328Y-102482142D02*
X34803328Y-102696428D01*
X34803328Y-102696428D02*
X34874757Y-102839285D01*
X34874757Y-102839285D02*
X35017614Y-102910714D01*
X35017614Y-102910714D02*
X35803328Y-102910714D01*
X35803328Y-105624999D02*
X35089042Y-105124999D01*
X35803328Y-104767856D02*
X34303328Y-104767856D01*
X34303328Y-104767856D02*
X34303328Y-105339285D01*
X34303328Y-105339285D02*
X34374757Y-105482142D01*
X34374757Y-105482142D02*
X34446185Y-105553571D01*
X34446185Y-105553571D02*
X34589042Y-105624999D01*
X34589042Y-105624999D02*
X34803328Y-105624999D01*
X34803328Y-105624999D02*
X34946185Y-105553571D01*
X34946185Y-105553571D02*
X35017614Y-105482142D01*
X35017614Y-105482142D02*
X35089042Y-105339285D01*
X35089042Y-105339285D02*
X35089042Y-104767856D01*
X35731900Y-106839285D02*
X35803328Y-106696428D01*
X35803328Y-106696428D02*
X35803328Y-106410714D01*
X35803328Y-106410714D02*
X35731900Y-106267856D01*
X35731900Y-106267856D02*
X35589042Y-106196428D01*
X35589042Y-106196428D02*
X35017614Y-106196428D01*
X35017614Y-106196428D02*
X34874757Y-106267856D01*
X34874757Y-106267856D02*
X34803328Y-106410714D01*
X34803328Y-106410714D02*
X34803328Y-106696428D01*
X34803328Y-106696428D02*
X34874757Y-106839285D01*
X34874757Y-106839285D02*
X35017614Y-106910714D01*
X35017614Y-106910714D02*
X35160471Y-106910714D01*
X35160471Y-106910714D02*
X35303328Y-106196428D01*
X35803328Y-107553570D02*
X34803328Y-107553570D01*
X34303328Y-107553570D02*
X34374757Y-107482142D01*
X34374757Y-107482142D02*
X34446185Y-107553570D01*
X34446185Y-107553570D02*
X34374757Y-107624999D01*
X34374757Y-107624999D02*
X34303328Y-107553570D01*
X34303328Y-107553570D02*
X34446185Y-107553570D01*
X34803328Y-108267856D02*
X35803328Y-108267856D01*
X34946185Y-108267856D02*
X34874757Y-108339285D01*
X34874757Y-108339285D02*
X34803328Y-108482142D01*
X34803328Y-108482142D02*
X34803328Y-108696428D01*
X34803328Y-108696428D02*
X34874757Y-108839285D01*
X34874757Y-108839285D02*
X35017614Y-108910714D01*
X35017614Y-108910714D02*
X35803328Y-108910714D01*
X35803328Y-110267857D02*
X35017614Y-110267857D01*
X35017614Y-110267857D02*
X34874757Y-110196428D01*
X34874757Y-110196428D02*
X34803328Y-110053571D01*
X34803328Y-110053571D02*
X34803328Y-109767857D01*
X34803328Y-109767857D02*
X34874757Y-109624999D01*
X35731900Y-110267857D02*
X35803328Y-110124999D01*
X35803328Y-110124999D02*
X35803328Y-109767857D01*
X35803328Y-109767857D02*
X35731900Y-109624999D01*
X35731900Y-109624999D02*
X35589042Y-109553571D01*
X35589042Y-109553571D02*
X35446185Y-109553571D01*
X35446185Y-109553571D02*
X35303328Y-109624999D01*
X35303328Y-109624999D02*
X35231900Y-109767857D01*
X35231900Y-109767857D02*
X35231900Y-110124999D01*
X35231900Y-110124999D02*
X35160471Y-110267857D01*
X34803328Y-111625000D02*
X35803328Y-111625000D01*
X34803328Y-110982142D02*
X35589042Y-110982142D01*
X35589042Y-110982142D02*
X35731900Y-111053571D01*
X35731900Y-111053571D02*
X35803328Y-111196428D01*
X35803328Y-111196428D02*
X35803328Y-111410714D01*
X35803328Y-111410714D02*
X35731900Y-111553571D01*
X35731900Y-111553571D02*
X35660471Y-111625000D01*
X35731900Y-112910714D02*
X35803328Y-112767857D01*
X35803328Y-112767857D02*
X35803328Y-112482143D01*
X35803328Y-112482143D02*
X35731900Y-112339285D01*
X35731900Y-112339285D02*
X35589042Y-112267857D01*
X35589042Y-112267857D02*
X35017614Y-112267857D01*
X35017614Y-112267857D02*
X34874757Y-112339285D01*
X34874757Y-112339285D02*
X34803328Y-112482143D01*
X34803328Y-112482143D02*
X34803328Y-112767857D01*
X34803328Y-112767857D02*
X34874757Y-112910714D01*
X34874757Y-112910714D02*
X35017614Y-112982143D01*
X35017614Y-112982143D02*
X35160471Y-112982143D01*
X35160471Y-112982143D02*
X35303328Y-112267857D01*
X35803328Y-113624999D02*
X34803328Y-113624999D01*
X35089042Y-113624999D02*
X34946185Y-113696428D01*
X34946185Y-113696428D02*
X34874757Y-113767857D01*
X34874757Y-113767857D02*
X34803328Y-113910714D01*
X34803328Y-113910714D02*
X34803328Y-114053571D01*
X38218244Y-80874998D02*
X36718244Y-80874998D01*
X38218244Y-81517856D02*
X37432530Y-81517856D01*
X37432530Y-81517856D02*
X37289673Y-81446427D01*
X37289673Y-81446427D02*
X37218244Y-81303570D01*
X37218244Y-81303570D02*
X37218244Y-81089284D01*
X37218244Y-81089284D02*
X37289673Y-80946427D01*
X37289673Y-80946427D02*
X37361101Y-80874998D01*
X37218244Y-82017856D02*
X37218244Y-82589284D01*
X36718244Y-82232141D02*
X38003958Y-82232141D01*
X38003958Y-82232141D02*
X38146816Y-82303570D01*
X38146816Y-82303570D02*
X38218244Y-82446427D01*
X38218244Y-82446427D02*
X38218244Y-82589284D01*
X37218244Y-82874999D02*
X37218244Y-83446427D01*
X36718244Y-83089284D02*
X38003958Y-83089284D01*
X38003958Y-83089284D02*
X38146816Y-83160713D01*
X38146816Y-83160713D02*
X38218244Y-83303570D01*
X38218244Y-83303570D02*
X38218244Y-83446427D01*
X37218244Y-83946427D02*
X38718244Y-83946427D01*
X37289673Y-83946427D02*
X37218244Y-84089285D01*
X37218244Y-84089285D02*
X37218244Y-84374999D01*
X37218244Y-84374999D02*
X37289673Y-84517856D01*
X37289673Y-84517856D02*
X37361101Y-84589285D01*
X37361101Y-84589285D02*
X37503958Y-84660713D01*
X37503958Y-84660713D02*
X37932530Y-84660713D01*
X37932530Y-84660713D02*
X38075387Y-84589285D01*
X38075387Y-84589285D02*
X38146816Y-84517856D01*
X38146816Y-84517856D02*
X38218244Y-84374999D01*
X38218244Y-84374999D02*
X38218244Y-84089285D01*
X38218244Y-84089285D02*
X38146816Y-83946427D01*
X38146816Y-85232142D02*
X38218244Y-85374999D01*
X38218244Y-85374999D02*
X38218244Y-85660713D01*
X38218244Y-85660713D02*
X38146816Y-85803570D01*
X38146816Y-85803570D02*
X38003958Y-85874999D01*
X38003958Y-85874999D02*
X37932530Y-85874999D01*
X37932530Y-85874999D02*
X37789673Y-85803570D01*
X37789673Y-85803570D02*
X37718244Y-85660713D01*
X37718244Y-85660713D02*
X37718244Y-85446428D01*
X37718244Y-85446428D02*
X37646816Y-85303570D01*
X37646816Y-85303570D02*
X37503958Y-85232142D01*
X37503958Y-85232142D02*
X37432530Y-85232142D01*
X37432530Y-85232142D02*
X37289673Y-85303570D01*
X37289673Y-85303570D02*
X37218244Y-85446428D01*
X37218244Y-85446428D02*
X37218244Y-85660713D01*
X37218244Y-85660713D02*
X37289673Y-85803570D01*
X38075387Y-86517856D02*
X38146816Y-86589285D01*
X38146816Y-86589285D02*
X38218244Y-86517856D01*
X38218244Y-86517856D02*
X38146816Y-86446428D01*
X38146816Y-86446428D02*
X38075387Y-86517856D01*
X38075387Y-86517856D02*
X38218244Y-86517856D01*
X37289673Y-86517856D02*
X37361101Y-86589285D01*
X37361101Y-86589285D02*
X37432530Y-86517856D01*
X37432530Y-86517856D02*
X37361101Y-86446428D01*
X37361101Y-86446428D02*
X37289673Y-86517856D01*
X37289673Y-86517856D02*
X37432530Y-86517856D01*
X36646816Y-88303571D02*
X38575387Y-87017857D01*
X36646816Y-89875000D02*
X38575387Y-88589286D01*
X38218244Y-91017858D02*
X37432530Y-91017858D01*
X37432530Y-91017858D02*
X37289673Y-90946429D01*
X37289673Y-90946429D02*
X37218244Y-90803572D01*
X37218244Y-90803572D02*
X37218244Y-90517858D01*
X37218244Y-90517858D02*
X37289673Y-90375000D01*
X38146816Y-91017858D02*
X38218244Y-90875000D01*
X38218244Y-90875000D02*
X38218244Y-90517858D01*
X38218244Y-90517858D02*
X38146816Y-90375000D01*
X38146816Y-90375000D02*
X38003958Y-90303572D01*
X38003958Y-90303572D02*
X37861101Y-90303572D01*
X37861101Y-90303572D02*
X37718244Y-90375000D01*
X37718244Y-90375000D02*
X37646816Y-90517858D01*
X37646816Y-90517858D02*
X37646816Y-90875000D01*
X37646816Y-90875000D02*
X37575387Y-91017858D01*
X38218244Y-91732143D02*
X37218244Y-91732143D01*
X37361101Y-91732143D02*
X37289673Y-91803572D01*
X37289673Y-91803572D02*
X37218244Y-91946429D01*
X37218244Y-91946429D02*
X37218244Y-92160715D01*
X37218244Y-92160715D02*
X37289673Y-92303572D01*
X37289673Y-92303572D02*
X37432530Y-92375001D01*
X37432530Y-92375001D02*
X38218244Y-92375001D01*
X37432530Y-92375001D02*
X37289673Y-92446429D01*
X37289673Y-92446429D02*
X37218244Y-92589286D01*
X37218244Y-92589286D02*
X37218244Y-92803572D01*
X37218244Y-92803572D02*
X37289673Y-92946429D01*
X37289673Y-92946429D02*
X37432530Y-93017858D01*
X37432530Y-93017858D02*
X38218244Y-93017858D01*
X38218244Y-93732143D02*
X37218244Y-93732143D01*
X36718244Y-93732143D02*
X36789673Y-93660715D01*
X36789673Y-93660715D02*
X36861101Y-93732143D01*
X36861101Y-93732143D02*
X36789673Y-93803572D01*
X36789673Y-93803572D02*
X36718244Y-93732143D01*
X36718244Y-93732143D02*
X36861101Y-93732143D01*
X37218244Y-95089287D02*
X38432530Y-95089287D01*
X38432530Y-95089287D02*
X38575387Y-95017858D01*
X38575387Y-95017858D02*
X38646816Y-94946429D01*
X38646816Y-94946429D02*
X38718244Y-94803572D01*
X38718244Y-94803572D02*
X38718244Y-94589287D01*
X38718244Y-94589287D02*
X38646816Y-94446429D01*
X38146816Y-95089287D02*
X38218244Y-94946429D01*
X38218244Y-94946429D02*
X38218244Y-94660715D01*
X38218244Y-94660715D02*
X38146816Y-94517858D01*
X38146816Y-94517858D02*
X38075387Y-94446429D01*
X38075387Y-94446429D02*
X37932530Y-94375001D01*
X37932530Y-94375001D02*
X37503958Y-94375001D01*
X37503958Y-94375001D02*
X37361101Y-94446429D01*
X37361101Y-94446429D02*
X37289673Y-94517858D01*
X37289673Y-94517858D02*
X37218244Y-94660715D01*
X37218244Y-94660715D02*
X37218244Y-94946429D01*
X37218244Y-94946429D02*
X37289673Y-95089287D01*
X38218244Y-96446430D02*
X37432530Y-96446430D01*
X37432530Y-96446430D02*
X37289673Y-96375001D01*
X37289673Y-96375001D02*
X37218244Y-96232144D01*
X37218244Y-96232144D02*
X37218244Y-95946430D01*
X37218244Y-95946430D02*
X37289673Y-95803572D01*
X38146816Y-96446430D02*
X38218244Y-96303572D01*
X38218244Y-96303572D02*
X38218244Y-95946430D01*
X38218244Y-95946430D02*
X38146816Y-95803572D01*
X38146816Y-95803572D02*
X38003958Y-95732144D01*
X38003958Y-95732144D02*
X37861101Y-95732144D01*
X37861101Y-95732144D02*
X37718244Y-95803572D01*
X37718244Y-95803572D02*
X37646816Y-95946430D01*
X37646816Y-95946430D02*
X37646816Y-96303572D01*
X37646816Y-96303572D02*
X37575387Y-96446430D01*
X38075387Y-97160715D02*
X38146816Y-97232144D01*
X38146816Y-97232144D02*
X38218244Y-97160715D01*
X38218244Y-97160715D02*
X38146816Y-97089287D01*
X38146816Y-97089287D02*
X38075387Y-97160715D01*
X38075387Y-97160715D02*
X38218244Y-97160715D01*
X37218244Y-97660716D02*
X37218244Y-98232144D01*
X36718244Y-97875001D02*
X38003958Y-97875001D01*
X38003958Y-97875001D02*
X38146816Y-97946430D01*
X38146816Y-97946430D02*
X38218244Y-98089287D01*
X38218244Y-98089287D02*
X38218244Y-98232144D01*
X38146816Y-99303573D02*
X38218244Y-99160716D01*
X38218244Y-99160716D02*
X38218244Y-98875002D01*
X38218244Y-98875002D02*
X38146816Y-98732144D01*
X38146816Y-98732144D02*
X38003958Y-98660716D01*
X38003958Y-98660716D02*
X37432530Y-98660716D01*
X37432530Y-98660716D02*
X37289673Y-98732144D01*
X37289673Y-98732144D02*
X37218244Y-98875002D01*
X37218244Y-98875002D02*
X37218244Y-99160716D01*
X37218244Y-99160716D02*
X37289673Y-99303573D01*
X37289673Y-99303573D02*
X37432530Y-99375002D01*
X37432530Y-99375002D02*
X37575387Y-99375002D01*
X37575387Y-99375002D02*
X37718244Y-98660716D01*
X38146816Y-100660716D02*
X38218244Y-100517858D01*
X38218244Y-100517858D02*
X38218244Y-100232144D01*
X38218244Y-100232144D02*
X38146816Y-100089287D01*
X38146816Y-100089287D02*
X38075387Y-100017858D01*
X38075387Y-100017858D02*
X37932530Y-99946430D01*
X37932530Y-99946430D02*
X37503958Y-99946430D01*
X37503958Y-99946430D02*
X37361101Y-100017858D01*
X37361101Y-100017858D02*
X37289673Y-100089287D01*
X37289673Y-100089287D02*
X37218244Y-100232144D01*
X37218244Y-100232144D02*
X37218244Y-100517858D01*
X37218244Y-100517858D02*
X37289673Y-100660716D01*
X38218244Y-101303572D02*
X36718244Y-101303572D01*
X38218244Y-101946430D02*
X37432530Y-101946430D01*
X37432530Y-101946430D02*
X37289673Y-101875001D01*
X37289673Y-101875001D02*
X37218244Y-101732144D01*
X37218244Y-101732144D02*
X37218244Y-101517858D01*
X37218244Y-101517858D02*
X37289673Y-101375001D01*
X37289673Y-101375001D02*
X37361101Y-101303572D01*
X37218244Y-102660715D02*
X38218244Y-102660715D01*
X37361101Y-102660715D02*
X37289673Y-102732144D01*
X37289673Y-102732144D02*
X37218244Y-102875001D01*
X37218244Y-102875001D02*
X37218244Y-103089287D01*
X37218244Y-103089287D02*
X37289673Y-103232144D01*
X37289673Y-103232144D02*
X37432530Y-103303573D01*
X37432530Y-103303573D02*
X38218244Y-103303573D01*
X38218244Y-104232144D02*
X38146816Y-104089287D01*
X38146816Y-104089287D02*
X38075387Y-104017858D01*
X38075387Y-104017858D02*
X37932530Y-103946430D01*
X37932530Y-103946430D02*
X37503958Y-103946430D01*
X37503958Y-103946430D02*
X37361101Y-104017858D01*
X37361101Y-104017858D02*
X37289673Y-104089287D01*
X37289673Y-104089287D02*
X37218244Y-104232144D01*
X37218244Y-104232144D02*
X37218244Y-104446430D01*
X37218244Y-104446430D02*
X37289673Y-104589287D01*
X37289673Y-104589287D02*
X37361101Y-104660716D01*
X37361101Y-104660716D02*
X37503958Y-104732144D01*
X37503958Y-104732144D02*
X37932530Y-104732144D01*
X37932530Y-104732144D02*
X38075387Y-104660716D01*
X38075387Y-104660716D02*
X38146816Y-104589287D01*
X38146816Y-104589287D02*
X38218244Y-104446430D01*
X38218244Y-104446430D02*
X38218244Y-104232144D01*
X38218244Y-105589287D02*
X38146816Y-105446430D01*
X38146816Y-105446430D02*
X38003958Y-105375001D01*
X38003958Y-105375001D02*
X36718244Y-105375001D01*
X38218244Y-106375001D02*
X38146816Y-106232144D01*
X38146816Y-106232144D02*
X38075387Y-106160715D01*
X38075387Y-106160715D02*
X37932530Y-106089287D01*
X37932530Y-106089287D02*
X37503958Y-106089287D01*
X37503958Y-106089287D02*
X37361101Y-106160715D01*
X37361101Y-106160715D02*
X37289673Y-106232144D01*
X37289673Y-106232144D02*
X37218244Y-106375001D01*
X37218244Y-106375001D02*
X37218244Y-106589287D01*
X37218244Y-106589287D02*
X37289673Y-106732144D01*
X37289673Y-106732144D02*
X37361101Y-106803573D01*
X37361101Y-106803573D02*
X37503958Y-106875001D01*
X37503958Y-106875001D02*
X37932530Y-106875001D01*
X37932530Y-106875001D02*
X38075387Y-106803573D01*
X38075387Y-106803573D02*
X38146816Y-106732144D01*
X38146816Y-106732144D02*
X38218244Y-106589287D01*
X38218244Y-106589287D02*
X38218244Y-106375001D01*
X37218244Y-108160716D02*
X38432530Y-108160716D01*
X38432530Y-108160716D02*
X38575387Y-108089287D01*
X38575387Y-108089287D02*
X38646816Y-108017858D01*
X38646816Y-108017858D02*
X38718244Y-107875001D01*
X38718244Y-107875001D02*
X38718244Y-107660716D01*
X38718244Y-107660716D02*
X38646816Y-107517858D01*
X38146816Y-108160716D02*
X38218244Y-108017858D01*
X38218244Y-108017858D02*
X38218244Y-107732144D01*
X38218244Y-107732144D02*
X38146816Y-107589287D01*
X38146816Y-107589287D02*
X38075387Y-107517858D01*
X38075387Y-107517858D02*
X37932530Y-107446430D01*
X37932530Y-107446430D02*
X37503958Y-107446430D01*
X37503958Y-107446430D02*
X37361101Y-107517858D01*
X37361101Y-107517858D02*
X37289673Y-107589287D01*
X37289673Y-107589287D02*
X37218244Y-107732144D01*
X37218244Y-107732144D02*
X37218244Y-108017858D01*
X37218244Y-108017858D02*
X37289673Y-108160716D01*
X37218244Y-108732144D02*
X38218244Y-109089287D01*
X37218244Y-109446430D02*
X38218244Y-109089287D01*
X38218244Y-109089287D02*
X38575387Y-108946430D01*
X38575387Y-108946430D02*
X38646816Y-108875001D01*
X38646816Y-108875001D02*
X38718244Y-108732144D01*
X36646816Y-111089287D02*
X38575387Y-109803573D01*
M02*
