%TF.GenerationSoftware,KiCad,Pcbnew,10.0.3*%
%TF.CreationDate,2026-06-09T00:13:27-05:00*%
%TF.ProjectId,Amiga-Boot-Selector,416d6967-612d-4426-9f6f-742d53656c65,rev?*%
%TF.SameCoordinates,Original*%
%TF.FileFunction,Copper,L2,Bot*%
%TF.FilePolarity,Positive*%
%FSLAX46Y46*%
G04 Gerber Fmt 4.6, Leading zero omitted, Abs format (unit mm)*
G04 Created by KiCad (PCBNEW 10.0.3) date 2026-06-09 00:13:27*
%MOMM*%
%LPD*%
G01*
G04 APERTURE LIST*
%TA.AperFunction,ComponentPad*%
%ADD10O,1.700000X1.700000*%
%TD*%
%TA.AperFunction,ComponentPad*%
%ADD11R,1.700000X1.700000*%
%TD*%
%TA.AperFunction,ComponentPad*%
%ADD12O,1.600000X1.600000*%
%TD*%
%TA.AperFunction,ComponentPad*%
%ADD13R,1.600000X1.600000*%
%TD*%
%TA.AperFunction,ViaPad*%
%ADD14C,0.800000*%
%TD*%
%TA.AperFunction,Conductor*%
%ADD15C,0.250000*%
%TD*%
G04 APERTURE END LIST*
D10*
%TO.P,J1,2*%
%TO.N,Net-(J1-Pad2)*%
X36165000Y-123200000D03*
D11*
%TO.P,J1,1*%
%TO.N,GND*%
X33625000Y-123200000D03*
%TD*%
D12*
%TO.P,U1,40*%
%TO.N,/c*%
X41135000Y-72070000D03*
%TO.P,U1,20*%
%TO.N,VCC*%
X25895000Y-120330000D03*
%TO.P,U1,39*%
%TO.N,/s*%
X41135000Y-74610000D03*
%TO.P,U1,19*%
%TO.N,/tick*%
X25895000Y-117790000D03*
%TO.P,U1,38*%
%TO.N,/rs0*%
X41135000Y-77150000D03*
%TO.P,U1,18*%
%TO.N,/_pc*%
X25895000Y-115250000D03*
%TO.P,U1,37*%
%TO.N,/rs1*%
X41135000Y-79690000D03*
%TO.P,U1,17*%
%TO.N,/pb7*%
X25895000Y-112710000D03*
%TO.P,U1,36*%
%TO.N,/rs2*%
X41135000Y-82230000D03*
%TO.P,U1,16*%
%TO.N,/pb6*%
X25895000Y-110170000D03*
%TO.P,U1,35*%
%TO.N,/rs3*%
X41135000Y-84770000D03*
%TO.P,U1,15*%
%TO.N,/pb5*%
X25895000Y-107630000D03*
%TO.P,U1,34*%
%TO.N,/_reset*%
X41135000Y-87310000D03*
%TO.P,U1,14*%
%TO.N,/14A*%
X25895000Y-105090000D03*
%TO.P,U1,33*%
%TO.N,/d0*%
X41135000Y-89850000D03*
%TO.P,U1,13*%
%TO.N,/13A*%
X25895000Y-102550000D03*
%TO.P,U1,32*%
%TO.N,/d1*%
X41135000Y-92390000D03*
%TO.P,U1,12*%
%TO.N,/pb2*%
X25895000Y-100010000D03*
%TO.P,U1,31*%
%TO.N,/d2*%
X41135000Y-94930000D03*
%TO.P,U1,11*%
%TO.N,/pb1*%
X25895000Y-97470000D03*
%TO.P,U1,30*%
%TO.N,/d3*%
X41135000Y-97470000D03*
%TO.P,U1,10*%
%TO.N,/pb0*%
X25895000Y-94930000D03*
%TO.P,U1,29*%
%TO.N,/d4*%
X41135000Y-100010000D03*
%TO.P,U1,9*%
%TO.N,/pa7*%
X25895000Y-92390000D03*
%TO.P,U1,28*%
%TO.N,/d5*%
X41135000Y-102550000D03*
%TO.P,U1,8*%
%TO.N,/pa6*%
X25895000Y-89850000D03*
%TO.P,U1,27*%
%TO.N,/d6*%
X41135000Y-105090000D03*
%TO.P,U1,7*%
%TO.N,/pa5*%
X25895000Y-87310000D03*
%TO.P,U1,26*%
%TO.N,/d7*%
X41135000Y-107630000D03*
%TO.P,U1,6*%
%TO.N,/pa4*%
X25895000Y-84770000D03*
%TO.P,U1,25*%
%TO.N,/e*%
X41135000Y-110170000D03*
%TO.P,U1,5*%
%TO.N,/pa3*%
X25895000Y-82230000D03*
%TO.P,U1,24*%
%TO.N,/_f*%
X41135000Y-112710000D03*
%TO.P,U1,4*%
%TO.N,/pa2*%
X25895000Y-79690000D03*
%TO.P,U1,23*%
%TO.N,/_cs*%
X41135000Y-115250000D03*
%TO.P,U1,3*%
%TO.N,/pa1*%
X25895000Y-77150000D03*
%TO.P,U1,22*%
%TO.N,/_w*%
X41135000Y-117790000D03*
%TO.P,U1,2*%
%TO.N,/pa0*%
X25895000Y-74610000D03*
%TO.P,U1,21*%
%TO.N,/_int*%
X41135000Y-120330000D03*
D13*
%TO.P,U1,1*%
%TO.N,GND*%
X25895000Y-72070000D03*
%TD*%
D12*
%TO.P,U3,40*%
%TO.N,/c*%
X43765000Y-72075000D03*
%TO.P,U3,20*%
%TO.N,VCC*%
X28525000Y-120335000D03*
%TO.P,U3,39*%
%TO.N,/s*%
X43765000Y-74615000D03*
%TO.P,U3,19*%
%TO.N,/tick*%
X28525000Y-117795000D03*
%TO.P,U3,38*%
%TO.N,/rs0*%
X43765000Y-77155000D03*
%TO.P,U3,18*%
%TO.N,/_pc*%
X28525000Y-115255000D03*
%TO.P,U3,37*%
%TO.N,/rs1*%
X43765000Y-79695000D03*
%TO.P,U3,17*%
%TO.N,/pb7*%
X28525000Y-112715000D03*
%TO.P,U3,36*%
%TO.N,/rs2*%
X43765000Y-82235000D03*
%TO.P,U3,16*%
%TO.N,/pb6*%
X28525000Y-110175000D03*
%TO.P,U3,35*%
%TO.N,/rs3*%
X43765000Y-84775000D03*
%TO.P,U3,15*%
%TO.N,/pb5*%
X28525000Y-107635000D03*
%TO.P,U3,34*%
%TO.N,/_reset*%
X43765000Y-87315000D03*
%TO.P,U3,14*%
%TO.N,/14B*%
X28525000Y-105095000D03*
%TO.P,U3,33*%
%TO.N,/d0*%
X43765000Y-89855000D03*
%TO.P,U3,13*%
%TO.N,/13B*%
X28525000Y-102555000D03*
%TO.P,U3,32*%
%TO.N,/d1*%
X43765000Y-92395000D03*
%TO.P,U3,12*%
%TO.N,/pb2*%
X28525000Y-100015000D03*
%TO.P,U3,31*%
%TO.N,/d2*%
X43765000Y-94935000D03*
%TO.P,U3,11*%
%TO.N,/pb1*%
X28525000Y-97475000D03*
%TO.P,U3,30*%
%TO.N,/d3*%
X43765000Y-97475000D03*
%TO.P,U3,10*%
%TO.N,/pb0*%
X28525000Y-94935000D03*
%TO.P,U3,29*%
%TO.N,/d4*%
X43765000Y-100015000D03*
%TO.P,U3,9*%
%TO.N,/pa7*%
X28525000Y-92395000D03*
%TO.P,U3,28*%
%TO.N,/d5*%
X43765000Y-102555000D03*
%TO.P,U3,8*%
%TO.N,/pa6*%
X28525000Y-89855000D03*
%TO.P,U3,27*%
%TO.N,/d6*%
X43765000Y-105095000D03*
%TO.P,U3,7*%
%TO.N,/pa5*%
X28525000Y-87315000D03*
%TO.P,U3,26*%
%TO.N,/d7*%
X43765000Y-107635000D03*
%TO.P,U3,6*%
%TO.N,/pa4*%
X28525000Y-84775000D03*
%TO.P,U3,25*%
%TO.N,/e*%
X43765000Y-110175000D03*
%TO.P,U3,5*%
%TO.N,/pa3*%
X28525000Y-82235000D03*
%TO.P,U3,24*%
%TO.N,/_f*%
X43765000Y-112715000D03*
%TO.P,U3,4*%
%TO.N,/pa2*%
X28525000Y-79695000D03*
%TO.P,U3,23*%
%TO.N,/_cs*%
X43765000Y-115255000D03*
%TO.P,U3,3*%
%TO.N,/pa1*%
X28525000Y-77155000D03*
%TO.P,U3,22*%
%TO.N,/_w*%
X43765000Y-117795000D03*
%TO.P,U3,2*%
%TO.N,/pa0*%
X28525000Y-74615000D03*
%TO.P,U3,21*%
%TO.N,/_int*%
X43765000Y-120335000D03*
D13*
%TO.P,U3,1*%
%TO.N,GND*%
X28525000Y-72075000D03*
%TD*%
D14*
%TO.N,Net-(J1-Pad2)*%
X38950000Y-105300000D03*
%TO.N,Net-(R2-Pad1)*%
X30525000Y-100850000D03*
X30525000Y-115100000D03*
%TO.N,VCC*%
X34225000Y-103475000D03*
X34250000Y-117650000D03*
%TO.N,Net-(J1-Pad2)*%
X37075000Y-120350000D03*
%TD*%
%TO.N,VCC*%
D15*
X34225000Y-117625000D02*
X34250000Y-117650000D01*
X34225000Y-103475000D02*
X34225000Y-117625000D01*
%TO.N,Net-(J1-Pad2)*%
X38950000Y-118475000D02*
X37075000Y-120350000D01*
X38950000Y-105300000D02*
X38950000Y-118475000D01*
%TO.N,Net-(R2-Pad1)*%
X30525000Y-100850000D02*
X30525000Y-115100000D01*
%TD*%
%TA.AperFunction,Conductor*%
%TO.N,GND*%
G36*
X33863874Y-70369407D02*
G01*
X33899838Y-70418907D01*
X33902781Y-70430186D01*
X33928095Y-70557449D01*
X33934106Y-70587665D01*
X33934106Y-70587667D01*
X34001985Y-70751544D01*
X34001985Y-70751545D01*
X34100535Y-70899034D01*
X34100536Y-70899035D01*
X34225965Y-71024464D01*
X34373453Y-71123013D01*
X34537334Y-71190894D01*
X34711309Y-71225500D01*
X34711310Y-71225500D01*
X34888690Y-71225500D01*
X34888691Y-71225500D01*
X35062666Y-71190894D01*
X35226547Y-71123013D01*
X35374035Y-71024464D01*
X35499464Y-70899035D01*
X35598013Y-70751547D01*
X35665894Y-70587666D01*
X35697219Y-70430186D01*
X35727116Y-70376802D01*
X35782681Y-70351186D01*
X35794317Y-70350500D01*
X44766715Y-70350500D01*
X44767211Y-70350500D01*
X44782696Y-70351719D01*
X44795225Y-70353703D01*
X44852063Y-70362705D01*
X44881521Y-70372276D01*
X44937070Y-70400580D01*
X44962128Y-70418785D01*
X45006214Y-70462871D01*
X45024419Y-70487929D01*
X45052723Y-70543478D01*
X45062295Y-70572937D01*
X45073281Y-70642302D01*
X45074500Y-70657789D01*
X45074500Y-71595264D01*
X45055593Y-71653455D01*
X45006093Y-71689419D01*
X44944907Y-71689419D01*
X44895407Y-71653455D01*
X44881346Y-71625857D01*
X44877550Y-71614174D01*
X44877548Y-71614171D01*
X44877547Y-71614170D01*
X44877547Y-71614168D01*
X44791760Y-71445801D01*
X44680690Y-71292927D01*
X44547073Y-71159310D01*
X44394199Y-71048240D01*
X44394198Y-71048239D01*
X44394196Y-71048238D01*
X44225832Y-70962453D01*
X44046113Y-70904058D01*
X43859484Y-70874500D01*
X43859481Y-70874500D01*
X43670519Y-70874500D01*
X43670516Y-70874500D01*
X43483886Y-70904058D01*
X43304167Y-70962453D01*
X43135803Y-71048238D01*
X42982928Y-71159309D01*
X42849309Y-71292928D01*
X42738238Y-71445803D01*
X42652453Y-71614167D01*
X42594058Y-71793886D01*
X42564500Y-71980515D01*
X42564500Y-72169484D01*
X42594058Y-72356113D01*
X42652453Y-72535832D01*
X42735690Y-72699196D01*
X42738240Y-72704199D01*
X42849310Y-72857073D01*
X42982927Y-72990690D01*
X43135801Y-73101760D01*
X43304168Y-73187547D01*
X43483882Y-73245940D01*
X43483883Y-73245940D01*
X43483886Y-73245941D01*
X43491954Y-73247219D01*
X43546471Y-73274996D01*
X43574248Y-73329513D01*
X43564677Y-73389945D01*
X43521412Y-73433210D01*
X43491954Y-73442781D01*
X43483886Y-73444058D01*
X43304167Y-73502453D01*
X43135803Y-73588238D01*
X42982928Y-73699309D01*
X42849309Y-73832928D01*
X42738238Y-73985803D01*
X42652453Y-74154167D01*
X42594058Y-74333886D01*
X42564500Y-74520515D01*
X42564500Y-74709484D01*
X42594058Y-74896113D01*
X42652453Y-75075832D01*
X42735690Y-75239196D01*
X42738240Y-75244199D01*
X42849310Y-75397073D01*
X42982927Y-75530690D01*
X43135801Y-75641760D01*
X43304168Y-75727547D01*
X43483882Y-75785940D01*
X43483883Y-75785940D01*
X43483886Y-75785941D01*
X43491954Y-75787219D01*
X43546471Y-75814996D01*
X43574248Y-75869513D01*
X43564677Y-75929945D01*
X43521412Y-75973210D01*
X43491954Y-75982781D01*
X43483886Y-75984058D01*
X43304167Y-76042453D01*
X43135803Y-76128238D01*
X42982928Y-76239309D01*
X42849309Y-76372928D01*
X42738238Y-76525803D01*
X42652453Y-76694167D01*
X42594058Y-76873886D01*
X42564500Y-77060515D01*
X42564500Y-77249484D01*
X42594058Y-77436113D01*
X42652453Y-77615832D01*
X42735690Y-77779196D01*
X42738240Y-77784199D01*
X42849310Y-77937073D01*
X42982927Y-78070690D01*
X43135801Y-78181760D01*
X43304168Y-78267547D01*
X43483882Y-78325940D01*
X43483883Y-78325940D01*
X43483886Y-78325941D01*
X43491954Y-78327219D01*
X43546471Y-78354996D01*
X43574248Y-78409513D01*
X43564677Y-78469945D01*
X43521412Y-78513210D01*
X43491954Y-78522781D01*
X43483886Y-78524058D01*
X43304167Y-78582453D01*
X43135803Y-78668238D01*
X42982928Y-78779309D01*
X42849309Y-78912928D01*
X42738238Y-79065803D01*
X42652453Y-79234167D01*
X42594058Y-79413886D01*
X42564500Y-79600515D01*
X42564500Y-79789484D01*
X42594058Y-79976113D01*
X42652453Y-80155832D01*
X42735690Y-80319196D01*
X42738240Y-80324199D01*
X42849310Y-80477073D01*
X42982927Y-80610690D01*
X43135801Y-80721760D01*
X43304168Y-80807547D01*
X43483882Y-80865940D01*
X43483883Y-80865940D01*
X43483886Y-80865941D01*
X43491954Y-80867219D01*
X43546471Y-80894996D01*
X43574248Y-80949513D01*
X43564677Y-81009945D01*
X43521412Y-81053210D01*
X43491954Y-81062781D01*
X43483886Y-81064058D01*
X43304167Y-81122453D01*
X43135803Y-81208238D01*
X42982928Y-81319309D01*
X42849309Y-81452928D01*
X42738238Y-81605803D01*
X42652453Y-81774167D01*
X42594058Y-81953886D01*
X42564500Y-82140515D01*
X42564500Y-82329484D01*
X42594058Y-82516113D01*
X42652453Y-82695832D01*
X42735690Y-82859196D01*
X42738240Y-82864199D01*
X42849310Y-83017073D01*
X42982927Y-83150690D01*
X43135801Y-83261760D01*
X43304168Y-83347547D01*
X43483882Y-83405940D01*
X43483883Y-83405940D01*
X43483886Y-83405941D01*
X43491954Y-83407219D01*
X43546471Y-83434996D01*
X43574248Y-83489513D01*
X43564677Y-83549945D01*
X43521412Y-83593210D01*
X43491954Y-83602781D01*
X43483886Y-83604058D01*
X43304167Y-83662453D01*
X43135803Y-83748238D01*
X42982928Y-83859309D01*
X42849309Y-83992928D01*
X42738238Y-84145803D01*
X42652453Y-84314167D01*
X42594058Y-84493886D01*
X42564500Y-84680515D01*
X42564500Y-84869484D01*
X42594058Y-85056113D01*
X42652453Y-85235832D01*
X42735690Y-85399196D01*
X42738240Y-85404199D01*
X42849310Y-85557073D01*
X42982927Y-85690690D01*
X43135801Y-85801760D01*
X43304168Y-85887547D01*
X43483882Y-85945940D01*
X43483883Y-85945940D01*
X43483886Y-85945941D01*
X43491954Y-85947219D01*
X43546471Y-85974996D01*
X43574248Y-86029513D01*
X43564677Y-86089945D01*
X43521412Y-86133210D01*
X43491954Y-86142781D01*
X43483886Y-86144058D01*
X43304167Y-86202453D01*
X43135803Y-86288238D01*
X42982928Y-86399309D01*
X42849309Y-86532928D01*
X42738238Y-86685803D01*
X42652453Y-86854167D01*
X42594058Y-87033886D01*
X42564500Y-87220515D01*
X42564500Y-87409484D01*
X42594058Y-87596113D01*
X42652453Y-87775832D01*
X42735690Y-87939196D01*
X42738240Y-87944199D01*
X42849310Y-88097073D01*
X42982927Y-88230690D01*
X43135801Y-88341760D01*
X43304168Y-88427547D01*
X43483882Y-88485940D01*
X43483883Y-88485940D01*
X43483886Y-88485941D01*
X43491954Y-88487219D01*
X43546471Y-88514996D01*
X43574248Y-88569513D01*
X43564677Y-88629945D01*
X43521412Y-88673210D01*
X43491954Y-88682781D01*
X43483886Y-88684058D01*
X43304167Y-88742453D01*
X43135803Y-88828238D01*
X42982928Y-88939309D01*
X42849309Y-89072928D01*
X42738238Y-89225803D01*
X42652453Y-89394167D01*
X42594058Y-89573886D01*
X42564500Y-89760515D01*
X42564500Y-89949484D01*
X42594058Y-90136113D01*
X42652453Y-90315832D01*
X42735690Y-90479196D01*
X42738240Y-90484199D01*
X42849310Y-90637073D01*
X42982927Y-90770690D01*
X43135801Y-90881760D01*
X43304168Y-90967547D01*
X43483882Y-91025940D01*
X43483883Y-91025940D01*
X43483886Y-91025941D01*
X43491954Y-91027219D01*
X43546471Y-91054996D01*
X43574248Y-91109513D01*
X43564677Y-91169945D01*
X43521412Y-91213210D01*
X43491954Y-91222781D01*
X43483886Y-91224058D01*
X43304167Y-91282453D01*
X43135803Y-91368238D01*
X42982928Y-91479309D01*
X42849309Y-91612928D01*
X42738238Y-91765803D01*
X42652453Y-91934167D01*
X42594058Y-92113886D01*
X42564500Y-92300515D01*
X42564500Y-92489484D01*
X42594058Y-92676113D01*
X42652453Y-92855832D01*
X42735690Y-93019196D01*
X42738240Y-93024199D01*
X42849310Y-93177073D01*
X42982927Y-93310690D01*
X43135801Y-93421760D01*
X43304168Y-93507547D01*
X43483882Y-93565940D01*
X43483883Y-93565940D01*
X43483886Y-93565941D01*
X43491954Y-93567219D01*
X43546471Y-93594996D01*
X43574248Y-93649513D01*
X43564677Y-93709945D01*
X43521412Y-93753210D01*
X43491954Y-93762781D01*
X43483886Y-93764058D01*
X43304167Y-93822453D01*
X43135803Y-93908238D01*
X42982928Y-94019309D01*
X42849309Y-94152928D01*
X42738238Y-94305803D01*
X42652453Y-94474167D01*
X42594058Y-94653886D01*
X42564500Y-94840515D01*
X42564500Y-95029484D01*
X42594058Y-95216113D01*
X42652453Y-95395832D01*
X42735690Y-95559196D01*
X42738240Y-95564199D01*
X42849310Y-95717073D01*
X42982927Y-95850690D01*
X43135801Y-95961760D01*
X43304168Y-96047547D01*
X43483882Y-96105940D01*
X43483883Y-96105940D01*
X43483886Y-96105941D01*
X43491954Y-96107219D01*
X43546471Y-96134996D01*
X43574248Y-96189513D01*
X43564677Y-96249945D01*
X43521412Y-96293210D01*
X43491954Y-96302781D01*
X43483886Y-96304058D01*
X43304167Y-96362453D01*
X43135803Y-96448238D01*
X42982928Y-96559309D01*
X42849309Y-96692928D01*
X42738238Y-96845803D01*
X42652453Y-97014167D01*
X42594058Y-97193886D01*
X42564500Y-97380515D01*
X42564500Y-97569484D01*
X42594058Y-97756113D01*
X42652453Y-97935832D01*
X42735690Y-98099196D01*
X42738240Y-98104199D01*
X42849310Y-98257073D01*
X42982927Y-98390690D01*
X43135801Y-98501760D01*
X43304168Y-98587547D01*
X43483882Y-98645940D01*
X43483883Y-98645940D01*
X43483886Y-98645941D01*
X43491954Y-98647219D01*
X43546471Y-98674996D01*
X43574248Y-98729513D01*
X43564677Y-98789945D01*
X43521412Y-98833210D01*
X43491954Y-98842781D01*
X43483886Y-98844058D01*
X43304167Y-98902453D01*
X43135803Y-98988238D01*
X42982928Y-99099309D01*
X42849309Y-99232928D01*
X42738238Y-99385803D01*
X42652453Y-99554167D01*
X42594058Y-99733886D01*
X42564500Y-99920515D01*
X42564500Y-100109484D01*
X42594058Y-100296113D01*
X42652453Y-100475832D01*
X42738237Y-100644195D01*
X42738240Y-100644199D01*
X42849310Y-100797073D01*
X42982927Y-100930690D01*
X43135801Y-101041760D01*
X43304168Y-101127547D01*
X43483882Y-101185940D01*
X43483883Y-101185940D01*
X43483886Y-101185941D01*
X43491954Y-101187219D01*
X43546471Y-101214996D01*
X43574248Y-101269513D01*
X43564677Y-101329945D01*
X43521412Y-101373210D01*
X43491954Y-101382781D01*
X43483886Y-101384058D01*
X43304167Y-101442453D01*
X43135803Y-101528238D01*
X42982928Y-101639309D01*
X42849309Y-101772928D01*
X42738238Y-101925803D01*
X42652453Y-102094167D01*
X42594058Y-102273886D01*
X42564500Y-102460515D01*
X42564500Y-102649484D01*
X42594058Y-102836113D01*
X42652453Y-103015832D01*
X42735690Y-103179196D01*
X42738240Y-103184199D01*
X42849310Y-103337073D01*
X42982927Y-103470690D01*
X43135801Y-103581760D01*
X43304168Y-103667547D01*
X43483882Y-103725940D01*
X43483883Y-103725940D01*
X43483886Y-103725941D01*
X43491954Y-103727219D01*
X43546471Y-103754996D01*
X43574248Y-103809513D01*
X43564677Y-103869945D01*
X43521412Y-103913210D01*
X43491954Y-103922781D01*
X43483886Y-103924058D01*
X43304167Y-103982453D01*
X43135803Y-104068238D01*
X42982928Y-104179309D01*
X42849309Y-104312928D01*
X42738238Y-104465803D01*
X42652453Y-104634167D01*
X42594058Y-104813886D01*
X42564500Y-105000515D01*
X42564500Y-105189484D01*
X42594058Y-105376113D01*
X42652453Y-105555832D01*
X42735690Y-105719196D01*
X42738240Y-105724199D01*
X42849310Y-105877073D01*
X42982927Y-106010690D01*
X43135801Y-106121760D01*
X43304168Y-106207547D01*
X43483882Y-106265940D01*
X43483883Y-106265940D01*
X43483886Y-106265941D01*
X43491954Y-106267219D01*
X43546471Y-106294996D01*
X43574248Y-106349513D01*
X43564677Y-106409945D01*
X43521412Y-106453210D01*
X43491954Y-106462781D01*
X43483886Y-106464058D01*
X43304167Y-106522453D01*
X43135803Y-106608238D01*
X42982928Y-106719309D01*
X42849309Y-106852928D01*
X42738238Y-107005803D01*
X42652453Y-107174167D01*
X42594058Y-107353886D01*
X42564500Y-107540515D01*
X42564500Y-107729484D01*
X42594058Y-107916113D01*
X42652453Y-108095832D01*
X42735690Y-108259196D01*
X42738240Y-108264199D01*
X42849310Y-108417073D01*
X42982927Y-108550690D01*
X43135801Y-108661760D01*
X43304168Y-108747547D01*
X43483882Y-108805940D01*
X43483883Y-108805940D01*
X43483886Y-108805941D01*
X43491954Y-108807219D01*
X43546471Y-108834996D01*
X43574248Y-108889513D01*
X43564677Y-108949945D01*
X43521412Y-108993210D01*
X43491954Y-109002781D01*
X43483886Y-109004058D01*
X43304167Y-109062453D01*
X43135803Y-109148238D01*
X42982928Y-109259309D01*
X42849309Y-109392928D01*
X42738238Y-109545803D01*
X42652453Y-109714167D01*
X42594058Y-109893886D01*
X42564500Y-110080515D01*
X42564500Y-110269484D01*
X42594058Y-110456113D01*
X42652453Y-110635832D01*
X42735690Y-110799196D01*
X42738240Y-110804199D01*
X42849310Y-110957073D01*
X42982927Y-111090690D01*
X43135801Y-111201760D01*
X43304168Y-111287547D01*
X43483882Y-111345940D01*
X43483883Y-111345940D01*
X43483886Y-111345941D01*
X43491954Y-111347219D01*
X43546471Y-111374996D01*
X43574248Y-111429513D01*
X43564677Y-111489945D01*
X43521412Y-111533210D01*
X43491954Y-111542781D01*
X43483886Y-111544058D01*
X43304167Y-111602453D01*
X43135803Y-111688238D01*
X42982928Y-111799309D01*
X42849309Y-111932928D01*
X42738238Y-112085803D01*
X42652453Y-112254167D01*
X42594058Y-112433886D01*
X42564500Y-112620515D01*
X42564500Y-112809484D01*
X42594058Y-112996113D01*
X42652453Y-113175832D01*
X42735690Y-113339196D01*
X42738240Y-113344199D01*
X42849310Y-113497073D01*
X42982927Y-113630690D01*
X43135801Y-113741760D01*
X43304168Y-113827547D01*
X43483882Y-113885940D01*
X43483883Y-113885940D01*
X43483886Y-113885941D01*
X43491954Y-113887219D01*
X43546471Y-113914996D01*
X43574248Y-113969513D01*
X43564677Y-114029945D01*
X43521412Y-114073210D01*
X43491954Y-114082781D01*
X43483886Y-114084058D01*
X43304167Y-114142453D01*
X43135803Y-114228238D01*
X42982928Y-114339309D01*
X42849309Y-114472928D01*
X42738238Y-114625803D01*
X42652453Y-114794167D01*
X42594058Y-114973886D01*
X42564500Y-115160515D01*
X42564500Y-115349484D01*
X42594058Y-115536113D01*
X42652453Y-115715832D01*
X42735690Y-115879196D01*
X42738240Y-115884199D01*
X42849310Y-116037073D01*
X42982927Y-116170690D01*
X43135801Y-116281760D01*
X43304168Y-116367547D01*
X43483882Y-116425940D01*
X43483883Y-116425940D01*
X43483886Y-116425941D01*
X43491954Y-116427219D01*
X43546471Y-116454996D01*
X43574248Y-116509513D01*
X43564677Y-116569945D01*
X43521412Y-116613210D01*
X43491954Y-116622781D01*
X43483886Y-116624058D01*
X43304167Y-116682453D01*
X43135803Y-116768238D01*
X42982928Y-116879309D01*
X42849309Y-117012928D01*
X42738238Y-117165803D01*
X42652453Y-117334167D01*
X42594058Y-117513886D01*
X42564500Y-117700515D01*
X42564500Y-117889484D01*
X42594058Y-118076113D01*
X42652453Y-118255832D01*
X42735966Y-118419737D01*
X42738240Y-118424199D01*
X42849310Y-118577073D01*
X42982927Y-118710690D01*
X43135801Y-118821760D01*
X43304168Y-118907547D01*
X43483882Y-118965940D01*
X43483883Y-118965940D01*
X43483886Y-118965941D01*
X43491954Y-118967219D01*
X43546471Y-118994996D01*
X43574248Y-119049513D01*
X43564677Y-119109945D01*
X43521412Y-119153210D01*
X43491954Y-119162781D01*
X43483886Y-119164058D01*
X43304167Y-119222453D01*
X43135803Y-119308238D01*
X42982928Y-119419309D01*
X42849309Y-119552928D01*
X42738238Y-119705803D01*
X42652453Y-119874167D01*
X42594058Y-120053886D01*
X42564500Y-120240515D01*
X42564500Y-120429484D01*
X42594058Y-120616113D01*
X42652453Y-120795832D01*
X42735690Y-120959196D01*
X42738240Y-120964199D01*
X42849310Y-121117073D01*
X42982927Y-121250690D01*
X43135801Y-121361760D01*
X43304168Y-121447547D01*
X43483882Y-121505940D01*
X43483883Y-121505940D01*
X43483886Y-121505941D01*
X43670516Y-121535500D01*
X43670519Y-121535500D01*
X43859484Y-121535500D01*
X44046113Y-121505941D01*
X44046114Y-121505940D01*
X44046118Y-121505940D01*
X44225832Y-121447547D01*
X44394199Y-121361760D01*
X44547073Y-121250690D01*
X44680690Y-121117073D01*
X44791760Y-120964199D01*
X44877547Y-120795832D01*
X44881346Y-120784141D01*
X44917308Y-120734643D01*
X44975499Y-120715735D01*
X45033690Y-120734642D01*
X45069654Y-120784141D01*
X45074500Y-120814735D01*
X45074500Y-121967210D01*
X45073281Y-121982695D01*
X45073281Y-121982697D01*
X45062295Y-122052062D01*
X45052723Y-122081521D01*
X45024419Y-122137070D01*
X45006214Y-122162128D01*
X44962128Y-122206214D01*
X44937070Y-122224419D01*
X44881521Y-122252723D01*
X44852062Y-122262295D01*
X44826690Y-122266313D01*
X44782695Y-122273281D01*
X44767211Y-122274500D01*
X38433285Y-122274500D01*
X38425000Y-122274500D01*
X38378856Y-122274500D01*
X38289712Y-122298386D01*
X38209788Y-122344530D01*
X38144530Y-122409788D01*
X38098386Y-122489712D01*
X38074500Y-122578857D01*
X38074500Y-123253882D01*
X38055593Y-123312073D01*
X38006093Y-123348037D01*
X37976542Y-123352877D01*
X37515542Y-123357729D01*
X37457155Y-123339435D01*
X37420673Y-123290316D01*
X37415500Y-123258734D01*
X37415500Y-123101579D01*
X37384710Y-122907178D01*
X37380101Y-122892993D01*
X37323884Y-122719975D01*
X37234524Y-122544595D01*
X37118828Y-122385354D01*
X36979646Y-122246172D01*
X36820405Y-122130476D01*
X36820404Y-122130475D01*
X36820402Y-122130474D01*
X36645025Y-122041116D01*
X36457821Y-121980289D01*
X36263420Y-121949500D01*
X36263417Y-121949500D01*
X36066583Y-121949500D01*
X36066580Y-121949500D01*
X35872178Y-121980289D01*
X35684974Y-122041116D01*
X35509597Y-122130474D01*
X35350355Y-122246171D01*
X35211167Y-122385359D01*
X35162092Y-122452905D01*
X35112592Y-122488869D01*
X35051407Y-122488868D01*
X35001907Y-122452904D01*
X34983000Y-122394714D01*
X34983000Y-122301412D01*
X34976495Y-122240911D01*
X34976493Y-122240901D01*
X34925447Y-122104039D01*
X34837907Y-121987100D01*
X34837899Y-121987092D01*
X34720960Y-121899552D01*
X34584098Y-121848506D01*
X34584088Y-121848504D01*
X34523587Y-121842000D01*
X33879001Y-121842000D01*
X33879000Y-121842001D01*
X33879000Y-122769297D01*
X33817993Y-122734075D01*
X33690826Y-122700000D01*
X33559174Y-122700000D01*
X33432007Y-122734075D01*
X33371000Y-122769297D01*
X33371000Y-121842001D01*
X33370999Y-121842000D01*
X32726413Y-121842000D01*
X32665911Y-121848504D01*
X32665901Y-121848506D01*
X32529039Y-121899552D01*
X32412100Y-121987092D01*
X32412092Y-121987100D01*
X32324552Y-122104039D01*
X32273506Y-122240901D01*
X32273504Y-122240911D01*
X32267000Y-122301412D01*
X32267000Y-122945999D01*
X32267001Y-122946000D01*
X33194297Y-122946000D01*
X33159075Y-123007007D01*
X33125000Y-123134174D01*
X33125000Y-123265826D01*
X33159075Y-123392993D01*
X33165154Y-123403523D01*
X32162001Y-123414083D01*
X31775542Y-123418151D01*
X31717155Y-123399857D01*
X31680673Y-123350738D01*
X31675500Y-123319156D01*
X31675500Y-122578857D01*
X31666320Y-122544597D01*
X31651614Y-122489712D01*
X31605470Y-122409788D01*
X31540212Y-122344530D01*
X31460288Y-122298386D01*
X31371144Y-122274500D01*
X31371142Y-122274500D01*
X24832789Y-122274500D01*
X24817304Y-122273281D01*
X24747936Y-122262294D01*
X24718478Y-122252723D01*
X24662929Y-122224419D01*
X24637871Y-122206214D01*
X24593785Y-122162128D01*
X24575580Y-122137070D01*
X24547276Y-122081521D01*
X24537705Y-122052062D01*
X24530364Y-122005712D01*
X24526719Y-121982695D01*
X24525500Y-121967210D01*
X24525500Y-120615375D01*
X24544407Y-120557184D01*
X24593907Y-120521220D01*
X24655093Y-120521220D01*
X24704593Y-120557184D01*
X24722281Y-120599889D01*
X24724058Y-120611112D01*
X24782453Y-120790832D01*
X24817844Y-120860292D01*
X24868240Y-120959199D01*
X24979310Y-121112073D01*
X25112927Y-121245690D01*
X25265801Y-121356760D01*
X25434168Y-121442547D01*
X25613882Y-121500940D01*
X25613883Y-121500940D01*
X25613886Y-121500941D01*
X25800516Y-121530500D01*
X25800519Y-121530500D01*
X25989484Y-121530500D01*
X26176113Y-121500941D01*
X26176114Y-121500940D01*
X26176118Y-121500940D01*
X26355832Y-121442547D01*
X26524199Y-121356760D01*
X26677073Y-121245690D01*
X26810690Y-121112073D01*
X26921760Y-120959199D01*
X27007547Y-120790832D01*
X27065940Y-120611118D01*
X27065941Y-120611112D01*
X27095500Y-120424484D01*
X27095500Y-120235515D01*
X27065941Y-120048886D01*
X27064556Y-120044624D01*
X27007547Y-119869168D01*
X26921760Y-119700801D01*
X26810690Y-119547927D01*
X26677073Y-119414310D01*
X26524199Y-119303240D01*
X26524198Y-119303239D01*
X26524196Y-119303238D01*
X26355832Y-119217453D01*
X26176113Y-119159058D01*
X26168046Y-119157781D01*
X26113529Y-119130004D01*
X26085751Y-119075488D01*
X26095322Y-119015056D01*
X26138586Y-118971791D01*
X26168046Y-118962219D01*
X26176113Y-118960941D01*
X26176114Y-118960940D01*
X26176118Y-118960940D01*
X26355832Y-118902547D01*
X26524199Y-118816760D01*
X26677073Y-118705690D01*
X26810690Y-118572073D01*
X26921760Y-118419199D01*
X27007547Y-118250832D01*
X27065940Y-118071118D01*
X27065941Y-118071112D01*
X27095500Y-117884484D01*
X27095500Y-117695515D01*
X27065941Y-117508886D01*
X27033622Y-117409419D01*
X27007547Y-117329168D01*
X26921760Y-117160801D01*
X26810690Y-117007927D01*
X26677073Y-116874310D01*
X26524199Y-116763240D01*
X26524198Y-116763239D01*
X26524196Y-116763238D01*
X26355832Y-116677453D01*
X26176113Y-116619058D01*
X26168046Y-116617781D01*
X26113529Y-116590004D01*
X26085751Y-116535488D01*
X26095322Y-116475056D01*
X26138586Y-116431791D01*
X26168046Y-116422219D01*
X26176113Y-116420941D01*
X26176114Y-116420940D01*
X26176118Y-116420940D01*
X26355832Y-116362547D01*
X26524199Y-116276760D01*
X26677073Y-116165690D01*
X26810690Y-116032073D01*
X26921760Y-115879199D01*
X27007547Y-115710832D01*
X27065940Y-115531118D01*
X27065941Y-115531112D01*
X27095500Y-115344484D01*
X27095500Y-115155515D01*
X27065941Y-114968886D01*
X27033622Y-114869419D01*
X27007547Y-114789168D01*
X26921760Y-114620801D01*
X26810690Y-114467927D01*
X26677073Y-114334310D01*
X26524199Y-114223240D01*
X26524198Y-114223239D01*
X26524196Y-114223238D01*
X26355832Y-114137453D01*
X26176113Y-114079058D01*
X26168046Y-114077781D01*
X26113529Y-114050004D01*
X26085751Y-113995488D01*
X26095322Y-113935056D01*
X26138586Y-113891791D01*
X26168046Y-113882219D01*
X26176113Y-113880941D01*
X26176114Y-113880940D01*
X26176118Y-113880940D01*
X26355832Y-113822547D01*
X26524199Y-113736760D01*
X26677073Y-113625690D01*
X26810690Y-113492073D01*
X26921760Y-113339199D01*
X27007547Y-113170832D01*
X27065940Y-112991118D01*
X27065941Y-112991112D01*
X27095500Y-112804484D01*
X27095500Y-112615515D01*
X27065941Y-112428886D01*
X27033622Y-112329419D01*
X27007547Y-112249168D01*
X26921760Y-112080801D01*
X26810690Y-111927927D01*
X26677073Y-111794310D01*
X26524199Y-111683240D01*
X26524198Y-111683239D01*
X26524196Y-111683238D01*
X26355832Y-111597453D01*
X26176113Y-111539058D01*
X26168046Y-111537781D01*
X26113529Y-111510004D01*
X26085751Y-111455488D01*
X26095322Y-111395056D01*
X26138586Y-111351791D01*
X26168046Y-111342219D01*
X26176113Y-111340941D01*
X26176114Y-111340940D01*
X26176118Y-111340940D01*
X26355832Y-111282547D01*
X26524199Y-111196760D01*
X26677073Y-111085690D01*
X26810690Y-110952073D01*
X26921760Y-110799199D01*
X27007547Y-110630832D01*
X27065940Y-110451118D01*
X27065941Y-110451112D01*
X27095500Y-110264484D01*
X27095500Y-110075515D01*
X27065941Y-109888886D01*
X27033622Y-109789419D01*
X27007547Y-109709168D01*
X26921760Y-109540801D01*
X26810690Y-109387927D01*
X26677073Y-109254310D01*
X26524199Y-109143240D01*
X26524198Y-109143239D01*
X26524196Y-109143238D01*
X26355832Y-109057453D01*
X26176113Y-108999058D01*
X26168046Y-108997781D01*
X26113529Y-108970004D01*
X26085751Y-108915488D01*
X26095322Y-108855056D01*
X26138586Y-108811791D01*
X26168046Y-108802219D01*
X26176113Y-108800941D01*
X26176114Y-108800940D01*
X26176118Y-108800940D01*
X26355832Y-108742547D01*
X26524199Y-108656760D01*
X26677073Y-108545690D01*
X26810690Y-108412073D01*
X26921760Y-108259199D01*
X27007547Y-108090832D01*
X27065940Y-107911118D01*
X27065941Y-107911112D01*
X27095500Y-107724484D01*
X27095500Y-107535515D01*
X27065941Y-107348886D01*
X27033622Y-107249419D01*
X27007547Y-107169168D01*
X26921760Y-107000801D01*
X26810690Y-106847927D01*
X26677073Y-106714310D01*
X26524199Y-106603240D01*
X26524198Y-106603239D01*
X26524196Y-106603238D01*
X26355832Y-106517453D01*
X26176113Y-106459058D01*
X26168046Y-106457781D01*
X26113529Y-106430004D01*
X26085751Y-106375488D01*
X26095322Y-106315056D01*
X26138586Y-106271791D01*
X26168046Y-106262219D01*
X26176113Y-106260941D01*
X26176114Y-106260940D01*
X26176118Y-106260940D01*
X26355832Y-106202547D01*
X26524199Y-106116760D01*
X26677073Y-106005690D01*
X26810690Y-105872073D01*
X26921760Y-105719199D01*
X27007547Y-105550832D01*
X27065940Y-105371118D01*
X27065941Y-105371112D01*
X27095500Y-105184484D01*
X27095500Y-104995515D01*
X27065941Y-104808886D01*
X27059711Y-104789711D01*
X27007547Y-104629168D01*
X26921760Y-104460801D01*
X26810690Y-104307927D01*
X26677073Y-104174310D01*
X26524199Y-104063240D01*
X26524198Y-104063239D01*
X26524196Y-104063238D01*
X26355832Y-103977453D01*
X26176113Y-103919058D01*
X26168046Y-103917781D01*
X26113529Y-103890004D01*
X26085751Y-103835488D01*
X26095322Y-103775056D01*
X26138586Y-103731791D01*
X26168046Y-103722219D01*
X26176113Y-103720941D01*
X26176114Y-103720940D01*
X26176118Y-103720940D01*
X26355832Y-103662547D01*
X26524199Y-103576760D01*
X26677073Y-103465690D01*
X26810690Y-103332073D01*
X26921760Y-103179199D01*
X27007547Y-103010832D01*
X27065940Y-102831118D01*
X27065941Y-102831112D01*
X27095500Y-102644484D01*
X27095500Y-102455515D01*
X27065941Y-102268886D01*
X27033622Y-102169419D01*
X27007547Y-102089168D01*
X26921760Y-101920801D01*
X26810690Y-101767927D01*
X26677073Y-101634310D01*
X26524199Y-101523240D01*
X26524198Y-101523239D01*
X26524196Y-101523238D01*
X26355832Y-101437453D01*
X26176113Y-101379058D01*
X26168046Y-101377781D01*
X26113529Y-101350004D01*
X26085751Y-101295488D01*
X26095322Y-101235056D01*
X26138586Y-101191791D01*
X26168046Y-101182219D01*
X26176113Y-101180941D01*
X26176114Y-101180940D01*
X26176118Y-101180940D01*
X26355832Y-101122547D01*
X26524199Y-101036760D01*
X26677073Y-100925690D01*
X26810690Y-100792073D01*
X26921760Y-100639199D01*
X27007547Y-100470832D01*
X27065940Y-100291118D01*
X27065941Y-100291112D01*
X27095500Y-100104484D01*
X27095500Y-99915515D01*
X27065941Y-99728886D01*
X27033622Y-99629419D01*
X27007547Y-99549168D01*
X26921760Y-99380801D01*
X26810690Y-99227927D01*
X26677073Y-99094310D01*
X26524199Y-98983240D01*
X26524198Y-98983239D01*
X26524196Y-98983238D01*
X26355832Y-98897453D01*
X26176113Y-98839058D01*
X26168046Y-98837781D01*
X26113529Y-98810004D01*
X26085751Y-98755488D01*
X26095322Y-98695056D01*
X26138586Y-98651791D01*
X26168046Y-98642219D01*
X26176113Y-98640941D01*
X26176114Y-98640940D01*
X26176118Y-98640940D01*
X26355832Y-98582547D01*
X26524199Y-98496760D01*
X26677073Y-98385690D01*
X26810690Y-98252073D01*
X26921760Y-98099199D01*
X27007547Y-97930832D01*
X27065940Y-97751118D01*
X27065941Y-97751112D01*
X27095500Y-97564484D01*
X27095500Y-97375515D01*
X27065941Y-97188886D01*
X27033622Y-97089419D01*
X27007547Y-97009168D01*
X26921760Y-96840801D01*
X26810690Y-96687927D01*
X26677073Y-96554310D01*
X26524199Y-96443240D01*
X26524198Y-96443239D01*
X26524196Y-96443238D01*
X26355832Y-96357453D01*
X26176113Y-96299058D01*
X26168046Y-96297781D01*
X26113529Y-96270004D01*
X26085751Y-96215488D01*
X26095322Y-96155056D01*
X26138586Y-96111791D01*
X26168046Y-96102219D01*
X26176113Y-96100941D01*
X26176114Y-96100940D01*
X26176118Y-96100940D01*
X26355832Y-96042547D01*
X26524199Y-95956760D01*
X26677073Y-95845690D01*
X26810690Y-95712073D01*
X26921760Y-95559199D01*
X27007547Y-95390832D01*
X27065940Y-95211118D01*
X27065941Y-95211112D01*
X27095500Y-95024484D01*
X27095500Y-94835515D01*
X27065941Y-94648886D01*
X27033622Y-94549419D01*
X27007547Y-94469168D01*
X26921760Y-94300801D01*
X26810690Y-94147927D01*
X26677073Y-94014310D01*
X26524199Y-93903240D01*
X26524198Y-93903239D01*
X26524196Y-93903238D01*
X26355832Y-93817453D01*
X26176113Y-93759058D01*
X26168046Y-93757781D01*
X26113529Y-93730004D01*
X26085751Y-93675488D01*
X26095322Y-93615056D01*
X26138586Y-93571791D01*
X26168046Y-93562219D01*
X26176113Y-93560941D01*
X26176114Y-93560940D01*
X26176118Y-93560940D01*
X26355832Y-93502547D01*
X26524199Y-93416760D01*
X26677073Y-93305690D01*
X26810690Y-93172073D01*
X26921760Y-93019199D01*
X27007547Y-92850832D01*
X27065940Y-92671118D01*
X27065941Y-92671112D01*
X27095500Y-92484484D01*
X27095500Y-92295515D01*
X27065941Y-92108886D01*
X27033622Y-92009419D01*
X27007547Y-91929168D01*
X26921760Y-91760801D01*
X26810690Y-91607927D01*
X26677073Y-91474310D01*
X26524199Y-91363240D01*
X26524198Y-91363239D01*
X26524196Y-91363238D01*
X26355832Y-91277453D01*
X26176113Y-91219058D01*
X26168046Y-91217781D01*
X26113529Y-91190004D01*
X26085751Y-91135488D01*
X26095322Y-91075056D01*
X26138586Y-91031791D01*
X26168046Y-91022219D01*
X26176113Y-91020941D01*
X26176114Y-91020940D01*
X26176118Y-91020940D01*
X26355832Y-90962547D01*
X26524199Y-90876760D01*
X26677073Y-90765690D01*
X26810690Y-90632073D01*
X26921760Y-90479199D01*
X27007547Y-90310832D01*
X27065940Y-90131118D01*
X27065941Y-90131112D01*
X27095500Y-89944484D01*
X27095500Y-89755515D01*
X27065941Y-89568886D01*
X27033622Y-89469419D01*
X27007547Y-89389168D01*
X26921760Y-89220801D01*
X26810690Y-89067927D01*
X26677073Y-88934310D01*
X26524199Y-88823240D01*
X26524198Y-88823239D01*
X26524196Y-88823238D01*
X26355832Y-88737453D01*
X26176113Y-88679058D01*
X26168046Y-88677781D01*
X26113529Y-88650004D01*
X26085751Y-88595488D01*
X26095322Y-88535056D01*
X26138586Y-88491791D01*
X26168046Y-88482219D01*
X26176113Y-88480941D01*
X26176114Y-88480940D01*
X26176118Y-88480940D01*
X26355832Y-88422547D01*
X26524199Y-88336760D01*
X26677073Y-88225690D01*
X26810690Y-88092073D01*
X26921760Y-87939199D01*
X27007547Y-87770832D01*
X27065940Y-87591118D01*
X27065941Y-87591112D01*
X27095500Y-87404484D01*
X27095500Y-87215515D01*
X27065941Y-87028886D01*
X27033622Y-86929419D01*
X27007547Y-86849168D01*
X26921760Y-86680801D01*
X26810690Y-86527927D01*
X26677073Y-86394310D01*
X26524199Y-86283240D01*
X26524198Y-86283239D01*
X26524196Y-86283238D01*
X26355832Y-86197453D01*
X26176113Y-86139058D01*
X26168046Y-86137781D01*
X26113529Y-86110004D01*
X26085751Y-86055488D01*
X26095322Y-85995056D01*
X26138586Y-85951791D01*
X26168046Y-85942219D01*
X26176113Y-85940941D01*
X26176114Y-85940940D01*
X26176118Y-85940940D01*
X26355832Y-85882547D01*
X26524199Y-85796760D01*
X26677073Y-85685690D01*
X26810690Y-85552073D01*
X26921760Y-85399199D01*
X27007547Y-85230832D01*
X27065940Y-85051118D01*
X27065941Y-85051112D01*
X27095500Y-84864484D01*
X27095500Y-84675515D01*
X27065941Y-84488886D01*
X27033622Y-84389419D01*
X27007547Y-84309168D01*
X26921760Y-84140801D01*
X26810690Y-83987927D01*
X26677073Y-83854310D01*
X26524199Y-83743240D01*
X26524198Y-83743239D01*
X26524196Y-83743238D01*
X26355832Y-83657453D01*
X26176113Y-83599058D01*
X26168046Y-83597781D01*
X26113529Y-83570004D01*
X26085751Y-83515488D01*
X26095322Y-83455056D01*
X26138586Y-83411791D01*
X26168046Y-83402219D01*
X26176113Y-83400941D01*
X26176114Y-83400940D01*
X26176118Y-83400940D01*
X26355832Y-83342547D01*
X26524199Y-83256760D01*
X26677073Y-83145690D01*
X26810690Y-83012073D01*
X26921760Y-82859199D01*
X27007547Y-82690832D01*
X27065940Y-82511118D01*
X27065941Y-82511112D01*
X27095500Y-82324484D01*
X27095500Y-82135515D01*
X27065941Y-81948886D01*
X27033622Y-81849419D01*
X27007547Y-81769168D01*
X26921760Y-81600801D01*
X26810690Y-81447927D01*
X26677073Y-81314310D01*
X26524199Y-81203240D01*
X26524198Y-81203239D01*
X26524196Y-81203238D01*
X26355832Y-81117453D01*
X26176113Y-81059058D01*
X26168046Y-81057781D01*
X26113529Y-81030004D01*
X26085751Y-80975488D01*
X26095322Y-80915056D01*
X26138586Y-80871791D01*
X26168046Y-80862219D01*
X26176113Y-80860941D01*
X26176114Y-80860940D01*
X26176118Y-80860940D01*
X26355832Y-80802547D01*
X26524199Y-80716760D01*
X26677073Y-80605690D01*
X26810690Y-80472073D01*
X26921760Y-80319199D01*
X27007547Y-80150832D01*
X27065940Y-79971118D01*
X27065941Y-79971112D01*
X27095500Y-79784484D01*
X27095500Y-79595515D01*
X27065941Y-79408886D01*
X27033622Y-79309419D01*
X27007547Y-79229168D01*
X26921760Y-79060801D01*
X26810690Y-78907927D01*
X26677073Y-78774310D01*
X26524199Y-78663240D01*
X26524198Y-78663239D01*
X26524196Y-78663238D01*
X26355832Y-78577453D01*
X26176113Y-78519058D01*
X26168046Y-78517781D01*
X26113529Y-78490004D01*
X26085751Y-78435488D01*
X26095322Y-78375056D01*
X26138586Y-78331791D01*
X26168046Y-78322219D01*
X26176113Y-78320941D01*
X26176114Y-78320940D01*
X26176118Y-78320940D01*
X26355832Y-78262547D01*
X26524199Y-78176760D01*
X26677073Y-78065690D01*
X26810690Y-77932073D01*
X26921760Y-77779199D01*
X27007547Y-77610832D01*
X27065940Y-77431118D01*
X27065941Y-77431112D01*
X27095500Y-77244484D01*
X27095500Y-77055515D01*
X27065941Y-76868886D01*
X27033622Y-76769419D01*
X27007547Y-76689168D01*
X26921760Y-76520801D01*
X26810690Y-76367927D01*
X26677073Y-76234310D01*
X26524199Y-76123240D01*
X26524198Y-76123239D01*
X26524196Y-76123238D01*
X26355832Y-76037453D01*
X26176113Y-75979058D01*
X26168046Y-75977781D01*
X26113529Y-75950004D01*
X26085751Y-75895488D01*
X26095322Y-75835056D01*
X26138586Y-75791791D01*
X26168046Y-75782219D01*
X26176113Y-75780941D01*
X26176114Y-75780940D01*
X26176118Y-75780940D01*
X26355832Y-75722547D01*
X26524199Y-75636760D01*
X26677073Y-75525690D01*
X26810690Y-75392073D01*
X26921760Y-75239199D01*
X27007547Y-75070832D01*
X27065940Y-74891118D01*
X27065941Y-74891112D01*
X27095500Y-74704484D01*
X27095500Y-74515515D01*
X27065941Y-74328886D01*
X27033622Y-74229419D01*
X27007547Y-74149168D01*
X26921760Y-73980801D01*
X26810690Y-73827927D01*
X26677073Y-73694310D01*
X26524199Y-73583240D01*
X26524198Y-73583239D01*
X26524196Y-73583238D01*
X26488813Y-73565210D01*
X26445548Y-73521945D01*
X26435977Y-73461513D01*
X26463754Y-73406997D01*
X26518271Y-73379219D01*
X26533758Y-73378000D01*
X26743587Y-73378000D01*
X26804088Y-73371495D01*
X26804098Y-73371493D01*
X26940960Y-73320447D01*
X27057899Y-73232907D01*
X27057905Y-73232901D01*
X27128874Y-73138098D01*
X27178883Y-73102844D01*
X27240062Y-73103718D01*
X27287381Y-73138097D01*
X27362092Y-73237899D01*
X27362100Y-73237907D01*
X27479039Y-73325447D01*
X27615901Y-73376493D01*
X27615911Y-73376495D01*
X27676413Y-73383000D01*
X27886242Y-73383000D01*
X27944433Y-73401907D01*
X27980397Y-73451407D01*
X27980397Y-73512593D01*
X27944433Y-73562093D01*
X27931187Y-73570210D01*
X27895803Y-73588238D01*
X27742928Y-73699309D01*
X27609309Y-73832928D01*
X27498238Y-73985803D01*
X27412453Y-74154167D01*
X27354058Y-74333886D01*
X27324500Y-74520515D01*
X27324500Y-74709484D01*
X27354058Y-74896113D01*
X27412453Y-75075832D01*
X27495690Y-75239196D01*
X27498240Y-75244199D01*
X27609310Y-75397073D01*
X27742927Y-75530690D01*
X27895801Y-75641760D01*
X28064168Y-75727547D01*
X28243882Y-75785940D01*
X28243883Y-75785940D01*
X28243886Y-75785941D01*
X28251954Y-75787219D01*
X28306471Y-75814996D01*
X28334248Y-75869513D01*
X28324677Y-75929945D01*
X28281412Y-75973210D01*
X28251954Y-75982781D01*
X28243886Y-75984058D01*
X28064167Y-76042453D01*
X27895803Y-76128238D01*
X27742928Y-76239309D01*
X27609309Y-76372928D01*
X27498238Y-76525803D01*
X27412453Y-76694167D01*
X27354058Y-76873886D01*
X27324500Y-77060515D01*
X27324500Y-77249484D01*
X27354058Y-77436113D01*
X27412453Y-77615832D01*
X27495690Y-77779196D01*
X27498240Y-77784199D01*
X27609310Y-77937073D01*
X27742927Y-78070690D01*
X27895801Y-78181760D01*
X28064168Y-78267547D01*
X28243882Y-78325940D01*
X28243883Y-78325940D01*
X28243886Y-78325941D01*
X28251954Y-78327219D01*
X28306471Y-78354996D01*
X28334248Y-78409513D01*
X28324677Y-78469945D01*
X28281412Y-78513210D01*
X28251954Y-78522781D01*
X28243886Y-78524058D01*
X28064167Y-78582453D01*
X27895803Y-78668238D01*
X27742928Y-78779309D01*
X27609309Y-78912928D01*
X27498238Y-79065803D01*
X27412453Y-79234167D01*
X27354058Y-79413886D01*
X27324500Y-79600515D01*
X27324500Y-79789484D01*
X27354058Y-79976113D01*
X27412453Y-80155832D01*
X27495690Y-80319196D01*
X27498240Y-80324199D01*
X27609310Y-80477073D01*
X27742927Y-80610690D01*
X27895801Y-80721760D01*
X28064168Y-80807547D01*
X28243882Y-80865940D01*
X28243883Y-80865940D01*
X28243886Y-80865941D01*
X28251954Y-80867219D01*
X28306471Y-80894996D01*
X28334248Y-80949513D01*
X28324677Y-81009945D01*
X28281412Y-81053210D01*
X28251954Y-81062781D01*
X28243886Y-81064058D01*
X28064167Y-81122453D01*
X27895803Y-81208238D01*
X27742928Y-81319309D01*
X27609309Y-81452928D01*
X27498238Y-81605803D01*
X27412453Y-81774167D01*
X27354058Y-81953886D01*
X27324500Y-82140515D01*
X27324500Y-82329484D01*
X27354058Y-82516113D01*
X27412453Y-82695832D01*
X27495690Y-82859196D01*
X27498240Y-82864199D01*
X27609310Y-83017073D01*
X27742927Y-83150690D01*
X27895801Y-83261760D01*
X28064168Y-83347547D01*
X28243882Y-83405940D01*
X28243883Y-83405940D01*
X28243886Y-83405941D01*
X28251954Y-83407219D01*
X28306471Y-83434996D01*
X28334248Y-83489513D01*
X28324677Y-83549945D01*
X28281412Y-83593210D01*
X28251954Y-83602781D01*
X28243886Y-83604058D01*
X28064167Y-83662453D01*
X27895803Y-83748238D01*
X27742928Y-83859309D01*
X27609309Y-83992928D01*
X27498238Y-84145803D01*
X27412453Y-84314167D01*
X27354058Y-84493886D01*
X27324500Y-84680515D01*
X27324500Y-84869484D01*
X27354058Y-85056113D01*
X27412453Y-85235832D01*
X27495690Y-85399196D01*
X27498240Y-85404199D01*
X27609310Y-85557073D01*
X27742927Y-85690690D01*
X27895801Y-85801760D01*
X28064168Y-85887547D01*
X28243882Y-85945940D01*
X28243883Y-85945940D01*
X28243886Y-85945941D01*
X28251954Y-85947219D01*
X28306471Y-85974996D01*
X28334248Y-86029513D01*
X28324677Y-86089945D01*
X28281412Y-86133210D01*
X28251954Y-86142781D01*
X28243886Y-86144058D01*
X28064167Y-86202453D01*
X27895803Y-86288238D01*
X27742928Y-86399309D01*
X27609309Y-86532928D01*
X27498238Y-86685803D01*
X27412453Y-86854167D01*
X27354058Y-87033886D01*
X27324500Y-87220515D01*
X27324500Y-87409484D01*
X27354058Y-87596113D01*
X27412453Y-87775832D01*
X27495690Y-87939196D01*
X27498240Y-87944199D01*
X27609310Y-88097073D01*
X27742927Y-88230690D01*
X27895801Y-88341760D01*
X28064168Y-88427547D01*
X28243882Y-88485940D01*
X28243883Y-88485940D01*
X28243886Y-88485941D01*
X28251954Y-88487219D01*
X28306471Y-88514996D01*
X28334248Y-88569513D01*
X28324677Y-88629945D01*
X28281412Y-88673210D01*
X28251954Y-88682781D01*
X28243886Y-88684058D01*
X28064167Y-88742453D01*
X27895803Y-88828238D01*
X27742928Y-88939309D01*
X27609309Y-89072928D01*
X27498238Y-89225803D01*
X27412453Y-89394167D01*
X27354058Y-89573886D01*
X27324500Y-89760515D01*
X27324500Y-89949484D01*
X27354058Y-90136113D01*
X27412453Y-90315832D01*
X27495690Y-90479196D01*
X27498240Y-90484199D01*
X27609310Y-90637073D01*
X27742927Y-90770690D01*
X27895801Y-90881760D01*
X28064168Y-90967547D01*
X28243882Y-91025940D01*
X28243883Y-91025940D01*
X28243886Y-91025941D01*
X28251954Y-91027219D01*
X28306471Y-91054996D01*
X28334248Y-91109513D01*
X28324677Y-91169945D01*
X28281412Y-91213210D01*
X28251954Y-91222781D01*
X28243886Y-91224058D01*
X28064167Y-91282453D01*
X27895803Y-91368238D01*
X27742928Y-91479309D01*
X27609309Y-91612928D01*
X27498238Y-91765803D01*
X27412453Y-91934167D01*
X27354058Y-92113886D01*
X27324500Y-92300515D01*
X27324500Y-92489484D01*
X27354058Y-92676113D01*
X27412453Y-92855832D01*
X27495690Y-93019196D01*
X27498240Y-93024199D01*
X27609310Y-93177073D01*
X27742927Y-93310690D01*
X27895801Y-93421760D01*
X28064168Y-93507547D01*
X28243882Y-93565940D01*
X28243883Y-93565940D01*
X28243886Y-93565941D01*
X28251954Y-93567219D01*
X28306471Y-93594996D01*
X28334248Y-93649513D01*
X28324677Y-93709945D01*
X28281412Y-93753210D01*
X28251954Y-93762781D01*
X28243886Y-93764058D01*
X28064167Y-93822453D01*
X27895803Y-93908238D01*
X27742928Y-94019309D01*
X27609309Y-94152928D01*
X27498238Y-94305803D01*
X27412453Y-94474167D01*
X27354058Y-94653886D01*
X27324500Y-94840515D01*
X27324500Y-95029484D01*
X27354058Y-95216113D01*
X27412453Y-95395832D01*
X27495690Y-95559196D01*
X27498240Y-95564199D01*
X27609310Y-95717073D01*
X27742927Y-95850690D01*
X27895801Y-95961760D01*
X28064168Y-96047547D01*
X28243882Y-96105940D01*
X28243883Y-96105940D01*
X28243886Y-96105941D01*
X28251954Y-96107219D01*
X28306471Y-96134996D01*
X28334248Y-96189513D01*
X28324677Y-96249945D01*
X28281412Y-96293210D01*
X28251954Y-96302781D01*
X28243886Y-96304058D01*
X28064167Y-96362453D01*
X27895803Y-96448238D01*
X27742928Y-96559309D01*
X27609309Y-96692928D01*
X27498238Y-96845803D01*
X27412453Y-97014167D01*
X27354058Y-97193886D01*
X27324500Y-97380515D01*
X27324500Y-97569484D01*
X27354058Y-97756113D01*
X27412453Y-97935832D01*
X27495690Y-98099196D01*
X27498240Y-98104199D01*
X27609310Y-98257073D01*
X27742927Y-98390690D01*
X27895801Y-98501760D01*
X28064168Y-98587547D01*
X28243882Y-98645940D01*
X28243883Y-98645940D01*
X28243886Y-98645941D01*
X28251954Y-98647219D01*
X28306471Y-98674996D01*
X28334248Y-98729513D01*
X28324677Y-98789945D01*
X28281412Y-98833210D01*
X28251954Y-98842781D01*
X28243886Y-98844058D01*
X28064167Y-98902453D01*
X27895803Y-98988238D01*
X27742928Y-99099309D01*
X27609309Y-99232928D01*
X27498238Y-99385803D01*
X27412453Y-99554167D01*
X27354058Y-99733886D01*
X27324500Y-99920515D01*
X27324500Y-100109484D01*
X27354058Y-100296113D01*
X27412453Y-100475832D01*
X27498237Y-100644195D01*
X27498240Y-100644199D01*
X27609310Y-100797073D01*
X27742927Y-100930690D01*
X27895801Y-101041760D01*
X28064168Y-101127547D01*
X28243882Y-101185940D01*
X28243883Y-101185940D01*
X28243886Y-101185941D01*
X28251954Y-101187219D01*
X28306471Y-101214996D01*
X28334248Y-101269513D01*
X28324677Y-101329945D01*
X28281412Y-101373210D01*
X28251954Y-101382781D01*
X28243886Y-101384058D01*
X28064167Y-101442453D01*
X27895803Y-101528238D01*
X27742928Y-101639309D01*
X27609309Y-101772928D01*
X27498238Y-101925803D01*
X27412453Y-102094167D01*
X27354058Y-102273886D01*
X27324500Y-102460515D01*
X27324500Y-102649484D01*
X27354058Y-102836113D01*
X27412453Y-103015832D01*
X27495690Y-103179196D01*
X27498240Y-103184199D01*
X27609310Y-103337073D01*
X27742927Y-103470690D01*
X27895801Y-103581760D01*
X28064168Y-103667547D01*
X28243882Y-103725940D01*
X28243883Y-103725940D01*
X28243886Y-103725941D01*
X28251954Y-103727219D01*
X28306471Y-103754996D01*
X28334248Y-103809513D01*
X28324677Y-103869945D01*
X28281412Y-103913210D01*
X28251954Y-103922781D01*
X28243886Y-103924058D01*
X28064167Y-103982453D01*
X27895803Y-104068238D01*
X27742928Y-104179309D01*
X27609309Y-104312928D01*
X27498238Y-104465803D01*
X27412453Y-104634167D01*
X27354058Y-104813886D01*
X27324500Y-105000515D01*
X27324500Y-105189484D01*
X27354058Y-105376113D01*
X27412453Y-105555832D01*
X27495690Y-105719196D01*
X27498240Y-105724199D01*
X27609310Y-105877073D01*
X27742927Y-106010690D01*
X27895801Y-106121760D01*
X28064168Y-106207547D01*
X28243882Y-106265940D01*
X28243883Y-106265940D01*
X28243886Y-106265941D01*
X28251954Y-106267219D01*
X28306471Y-106294996D01*
X28334248Y-106349513D01*
X28324677Y-106409945D01*
X28281412Y-106453210D01*
X28251954Y-106462781D01*
X28243886Y-106464058D01*
X28064167Y-106522453D01*
X27895803Y-106608238D01*
X27742928Y-106719309D01*
X27609309Y-106852928D01*
X27498238Y-107005803D01*
X27412453Y-107174167D01*
X27354058Y-107353886D01*
X27324500Y-107540515D01*
X27324500Y-107729484D01*
X27354058Y-107916113D01*
X27412453Y-108095832D01*
X27495690Y-108259196D01*
X27498240Y-108264199D01*
X27609310Y-108417073D01*
X27742927Y-108550690D01*
X27895801Y-108661760D01*
X28064168Y-108747547D01*
X28243882Y-108805940D01*
X28243883Y-108805940D01*
X28243886Y-108805941D01*
X28251954Y-108807219D01*
X28306471Y-108834996D01*
X28334248Y-108889513D01*
X28324677Y-108949945D01*
X28281412Y-108993210D01*
X28251954Y-109002781D01*
X28243886Y-109004058D01*
X28064167Y-109062453D01*
X27895803Y-109148238D01*
X27742928Y-109259309D01*
X27609309Y-109392928D01*
X27498238Y-109545803D01*
X27412453Y-109714167D01*
X27354058Y-109893886D01*
X27324500Y-110080515D01*
X27324500Y-110269484D01*
X27354058Y-110456113D01*
X27412453Y-110635832D01*
X27495690Y-110799196D01*
X27498240Y-110804199D01*
X27609310Y-110957073D01*
X27742927Y-111090690D01*
X27895801Y-111201760D01*
X28064168Y-111287547D01*
X28243882Y-111345940D01*
X28243883Y-111345940D01*
X28243886Y-111345941D01*
X28251954Y-111347219D01*
X28306471Y-111374996D01*
X28334248Y-111429513D01*
X28324677Y-111489945D01*
X28281412Y-111533210D01*
X28251954Y-111542781D01*
X28243886Y-111544058D01*
X28064167Y-111602453D01*
X27895803Y-111688238D01*
X27742928Y-111799309D01*
X27609309Y-111932928D01*
X27498238Y-112085803D01*
X27412453Y-112254167D01*
X27354058Y-112433886D01*
X27324500Y-112620515D01*
X27324500Y-112809484D01*
X27354058Y-112996113D01*
X27412453Y-113175832D01*
X27495690Y-113339196D01*
X27498240Y-113344199D01*
X27609310Y-113497073D01*
X27742927Y-113630690D01*
X27895801Y-113741760D01*
X28064168Y-113827547D01*
X28243882Y-113885940D01*
X28243883Y-113885940D01*
X28243886Y-113885941D01*
X28251954Y-113887219D01*
X28306471Y-113914996D01*
X28334248Y-113969513D01*
X28324677Y-114029945D01*
X28281412Y-114073210D01*
X28251954Y-114082781D01*
X28243886Y-114084058D01*
X28064167Y-114142453D01*
X27895803Y-114228238D01*
X27742928Y-114339309D01*
X27609309Y-114472928D01*
X27498238Y-114625803D01*
X27412453Y-114794167D01*
X27354058Y-114973886D01*
X27324500Y-115160515D01*
X27324500Y-115349484D01*
X27354058Y-115536113D01*
X27412453Y-115715832D01*
X27495690Y-115879196D01*
X27498240Y-115884199D01*
X27609310Y-116037073D01*
X27742927Y-116170690D01*
X27895801Y-116281760D01*
X28064168Y-116367547D01*
X28243882Y-116425940D01*
X28243883Y-116425940D01*
X28243886Y-116425941D01*
X28251954Y-116427219D01*
X28306471Y-116454996D01*
X28334248Y-116509513D01*
X28324677Y-116569945D01*
X28281412Y-116613210D01*
X28251954Y-116622781D01*
X28243886Y-116624058D01*
X28064167Y-116682453D01*
X27895803Y-116768238D01*
X27742928Y-116879309D01*
X27609309Y-117012928D01*
X27498238Y-117165803D01*
X27412453Y-117334167D01*
X27354058Y-117513886D01*
X27324500Y-117700515D01*
X27324500Y-117889484D01*
X27354058Y-118076113D01*
X27412453Y-118255832D01*
X27495966Y-118419737D01*
X27498240Y-118424199D01*
X27609310Y-118577073D01*
X27742927Y-118710690D01*
X27895801Y-118821760D01*
X28064168Y-118907547D01*
X28243882Y-118965940D01*
X28243883Y-118965940D01*
X28243886Y-118965941D01*
X28251954Y-118967219D01*
X28306471Y-118994996D01*
X28334248Y-119049513D01*
X28324677Y-119109945D01*
X28281412Y-119153210D01*
X28251954Y-119162781D01*
X28243886Y-119164058D01*
X28064167Y-119222453D01*
X27895803Y-119308238D01*
X27742928Y-119419309D01*
X27609309Y-119552928D01*
X27498238Y-119705803D01*
X27412453Y-119874167D01*
X27354058Y-120053886D01*
X27324500Y-120240515D01*
X27324500Y-120429484D01*
X27354058Y-120616113D01*
X27412453Y-120795832D01*
X27495690Y-120959196D01*
X27498240Y-120964199D01*
X27609310Y-121117073D01*
X27742927Y-121250690D01*
X27895801Y-121361760D01*
X28064168Y-121447547D01*
X28243882Y-121505940D01*
X28243883Y-121505940D01*
X28243886Y-121505941D01*
X28430516Y-121535500D01*
X28430519Y-121535500D01*
X28619484Y-121535500D01*
X28806113Y-121505941D01*
X28806114Y-121505940D01*
X28806118Y-121505940D01*
X28985832Y-121447547D01*
X29154199Y-121361760D01*
X29307073Y-121250690D01*
X29440690Y-121117073D01*
X29551760Y-120964199D01*
X29637547Y-120795832D01*
X29695940Y-120616118D01*
X29696733Y-120611112D01*
X29725500Y-120429484D01*
X29725500Y-120271155D01*
X36274500Y-120271155D01*
X36274500Y-120428844D01*
X36305263Y-120583496D01*
X36305263Y-120583498D01*
X36365603Y-120729174D01*
X36365609Y-120729185D01*
X36402330Y-120784141D01*
X36453211Y-120860289D01*
X36564711Y-120971789D01*
X36642876Y-121024017D01*
X36695814Y-121059390D01*
X36695825Y-121059396D01*
X36749638Y-121081685D01*
X36841503Y-121119737D01*
X36996158Y-121150500D01*
X36996159Y-121150500D01*
X37153841Y-121150500D01*
X37153842Y-121150500D01*
X37308497Y-121119737D01*
X37454179Y-121059394D01*
X37585289Y-120971789D01*
X37696789Y-120860289D01*
X37784394Y-120729179D01*
X37844737Y-120583497D01*
X37875500Y-120428842D01*
X37875500Y-120333676D01*
X37894407Y-120275485D01*
X37904490Y-120263678D01*
X39272662Y-118895506D01*
X39272665Y-118895505D01*
X39370505Y-118797665D01*
X39439688Y-118677836D01*
X39441659Y-118670477D01*
X39461751Y-118595499D01*
X39468028Y-118572071D01*
X39475500Y-118544184D01*
X39475500Y-118405817D01*
X39475500Y-105947586D01*
X39494407Y-105889395D01*
X39504496Y-105877582D01*
X39510007Y-105872071D01*
X39571789Y-105810289D01*
X39659394Y-105679179D01*
X39719737Y-105533497D01*
X39750500Y-105378842D01*
X39750500Y-105221158D01*
X39719737Y-105066503D01*
X39659394Y-104920821D01*
X39659393Y-104920819D01*
X39659390Y-104920814D01*
X39611785Y-104849569D01*
X39571789Y-104789711D01*
X39460289Y-104678211D01*
X39386890Y-104629167D01*
X39329185Y-104590609D01*
X39329174Y-104590603D01*
X39183497Y-104530263D01*
X39028844Y-104499500D01*
X39028842Y-104499500D01*
X38871158Y-104499500D01*
X38871155Y-104499500D01*
X38716503Y-104530263D01*
X38716501Y-104530263D01*
X38570825Y-104590603D01*
X38570814Y-104590609D01*
X38439711Y-104678211D01*
X38439707Y-104678214D01*
X38328214Y-104789707D01*
X38328211Y-104789711D01*
X38240609Y-104920814D01*
X38240603Y-104920825D01*
X38180263Y-105066501D01*
X38180263Y-105066503D01*
X38149500Y-105221155D01*
X38149500Y-105378844D01*
X38180263Y-105533496D01*
X38180263Y-105533498D01*
X38240603Y-105679174D01*
X38240609Y-105679185D01*
X38270685Y-105724196D01*
X38328211Y-105810289D01*
X38328214Y-105810292D01*
X38395504Y-105877582D01*
X38423281Y-105932099D01*
X38424500Y-105947586D01*
X38424500Y-118216323D01*
X38405593Y-118274514D01*
X38395504Y-118286327D01*
X37161327Y-119520504D01*
X37106810Y-119548281D01*
X37091323Y-119549500D01*
X36996155Y-119549500D01*
X36841503Y-119580263D01*
X36841501Y-119580263D01*
X36695825Y-119640603D01*
X36695814Y-119640609D01*
X36564711Y-119728211D01*
X36564707Y-119728214D01*
X36453214Y-119839707D01*
X36453211Y-119839711D01*
X36365609Y-119970814D01*
X36365603Y-119970825D01*
X36305263Y-120116501D01*
X36305263Y-120116503D01*
X36274500Y-120271155D01*
X29725500Y-120271155D01*
X29725500Y-120240515D01*
X29695941Y-120053886D01*
X29695940Y-120053882D01*
X29637547Y-119874168D01*
X29551760Y-119705801D01*
X29440690Y-119552927D01*
X29307073Y-119419310D01*
X29154199Y-119308240D01*
X29154198Y-119308239D01*
X29154196Y-119308238D01*
X28985832Y-119222453D01*
X28806113Y-119164058D01*
X28798046Y-119162781D01*
X28743529Y-119135004D01*
X28715751Y-119080488D01*
X28725322Y-119020056D01*
X28768586Y-118976791D01*
X28798046Y-118967219D01*
X28806113Y-118965941D01*
X28806114Y-118965940D01*
X28806118Y-118965940D01*
X28985832Y-118907547D01*
X29154199Y-118821760D01*
X29307073Y-118710690D01*
X29440690Y-118577073D01*
X29551760Y-118424199D01*
X29637547Y-118255832D01*
X29695940Y-118076118D01*
X29696733Y-118071112D01*
X29725500Y-117889484D01*
X29725500Y-117700515D01*
X29695941Y-117513886D01*
X29695940Y-117513882D01*
X29637547Y-117334168D01*
X29551760Y-117165801D01*
X29440690Y-117012927D01*
X29307073Y-116879310D01*
X29154199Y-116768240D01*
X29154198Y-116768239D01*
X29154196Y-116768238D01*
X28985832Y-116682453D01*
X28806113Y-116624058D01*
X28798046Y-116622781D01*
X28743529Y-116595004D01*
X28715751Y-116540488D01*
X28725322Y-116480056D01*
X28768586Y-116436791D01*
X28798046Y-116427219D01*
X28806113Y-116425941D01*
X28806114Y-116425940D01*
X28806118Y-116425940D01*
X28985832Y-116367547D01*
X29154199Y-116281760D01*
X29307073Y-116170690D01*
X29440690Y-116037073D01*
X29551760Y-115884199D01*
X29637547Y-115715832D01*
X29684467Y-115571427D01*
X29720430Y-115521929D01*
X29778621Y-115503022D01*
X29836812Y-115521929D01*
X29860935Y-115547019D01*
X29903211Y-115610289D01*
X30014711Y-115721789D01*
X30092876Y-115774017D01*
X30145814Y-115809390D01*
X30145825Y-115809396D01*
X30199638Y-115831685D01*
X30291503Y-115869737D01*
X30446158Y-115900500D01*
X30446159Y-115900500D01*
X30603841Y-115900500D01*
X30603842Y-115900500D01*
X30758497Y-115869737D01*
X30904179Y-115809394D01*
X31035289Y-115721789D01*
X31146789Y-115610289D01*
X31234394Y-115479179D01*
X31294737Y-115333497D01*
X31325500Y-115178842D01*
X31325500Y-115021158D01*
X31294737Y-114866503D01*
X31234394Y-114720821D01*
X31234393Y-114720819D01*
X31234390Y-114720814D01*
X31199017Y-114667876D01*
X31146789Y-114589711D01*
X31079496Y-114522418D01*
X31051719Y-114467901D01*
X31050500Y-114452414D01*
X31050500Y-103396155D01*
X33424500Y-103396155D01*
X33424500Y-103553844D01*
X33429059Y-103576761D01*
X33447117Y-103667547D01*
X33455263Y-103708496D01*
X33455263Y-103708498D01*
X33515603Y-103854174D01*
X33515609Y-103854185D01*
X33558957Y-103919058D01*
X33603211Y-103985289D01*
X33603214Y-103985292D01*
X33670504Y-104052582D01*
X33698281Y-104107099D01*
X33699500Y-104122586D01*
X33699500Y-117027414D01*
X33680593Y-117085605D01*
X33670504Y-117097418D01*
X33628214Y-117139707D01*
X33628211Y-117139711D01*
X33540609Y-117270814D01*
X33540603Y-117270825D01*
X33480263Y-117416501D01*
X33480263Y-117416503D01*
X33449500Y-117571155D01*
X33449500Y-117728844D01*
X33480263Y-117883496D01*
X33480263Y-117883498D01*
X33540603Y-118029174D01*
X33540609Y-118029185D01*
X33593312Y-118108059D01*
X33628211Y-118160289D01*
X33739711Y-118271789D01*
X33817876Y-118324017D01*
X33870814Y-118359390D01*
X33870825Y-118359396D01*
X33924638Y-118381685D01*
X34016503Y-118419737D01*
X34171158Y-118450500D01*
X34171159Y-118450500D01*
X34328841Y-118450500D01*
X34328842Y-118450500D01*
X34483497Y-118419737D01*
X34629179Y-118359394D01*
X34760289Y-118271789D01*
X34871789Y-118160289D01*
X34959394Y-118029179D01*
X35019737Y-117883497D01*
X35050500Y-117728842D01*
X35050500Y-117571158D01*
X35019737Y-117416503D01*
X34990475Y-117345857D01*
X34959396Y-117270825D01*
X34959390Y-117270814D01*
X34924017Y-117217876D01*
X34871789Y-117139711D01*
X34779496Y-117047418D01*
X34751719Y-116992901D01*
X34750500Y-116977414D01*
X34750500Y-104122586D01*
X34769407Y-104064395D01*
X34779496Y-104052582D01*
X34846789Y-103985289D01*
X34934394Y-103854179D01*
X34994737Y-103708497D01*
X35025500Y-103553842D01*
X35025500Y-103396158D01*
X34994737Y-103241503D01*
X34934394Y-103095821D01*
X34934393Y-103095819D01*
X34934390Y-103095814D01*
X34899017Y-103042876D01*
X34846789Y-102964711D01*
X34735289Y-102853211D01*
X34683059Y-102818312D01*
X34604185Y-102765609D01*
X34604174Y-102765603D01*
X34458497Y-102705263D01*
X34303844Y-102674500D01*
X34303842Y-102674500D01*
X34146158Y-102674500D01*
X34146155Y-102674500D01*
X33991503Y-102705263D01*
X33991501Y-102705263D01*
X33845825Y-102765603D01*
X33845814Y-102765609D01*
X33714711Y-102853211D01*
X33714707Y-102853214D01*
X33603214Y-102964707D01*
X33603211Y-102964711D01*
X33515609Y-103095814D01*
X33515603Y-103095825D01*
X33455263Y-103241501D01*
X33455263Y-103241503D01*
X33424500Y-103396155D01*
X31050500Y-103396155D01*
X31050500Y-101497586D01*
X31069407Y-101439395D01*
X31079496Y-101427582D01*
X31146789Y-101360289D01*
X31234394Y-101229179D01*
X31294737Y-101083497D01*
X31325500Y-100928842D01*
X31325500Y-100771158D01*
X31294737Y-100616503D01*
X31274622Y-100567942D01*
X31234396Y-100470825D01*
X31234390Y-100470814D01*
X31196856Y-100414642D01*
X31146789Y-100339711D01*
X31035289Y-100228211D01*
X30983059Y-100193312D01*
X30904185Y-100140609D01*
X30904174Y-100140603D01*
X30758497Y-100080263D01*
X30603844Y-100049500D01*
X30603842Y-100049500D01*
X30446158Y-100049500D01*
X30446155Y-100049500D01*
X30291503Y-100080263D01*
X30291501Y-100080263D01*
X30145825Y-100140603D01*
X30145814Y-100140609D01*
X30014711Y-100228211D01*
X30014707Y-100228214D01*
X29903214Y-100339707D01*
X29903208Y-100339714D01*
X29869818Y-100389685D01*
X29821768Y-100427564D01*
X29760629Y-100429964D01*
X29709756Y-100395971D01*
X29688580Y-100338567D01*
X29693350Y-100304088D01*
X29695940Y-100296118D01*
X29720570Y-100140609D01*
X29725500Y-100109484D01*
X29725500Y-99920515D01*
X29695941Y-99733886D01*
X29695940Y-99733882D01*
X29637547Y-99554168D01*
X29551760Y-99385801D01*
X29440690Y-99232927D01*
X29307073Y-99099310D01*
X29154199Y-98988240D01*
X29154198Y-98988239D01*
X29154196Y-98988238D01*
X28985832Y-98902453D01*
X28806113Y-98844058D01*
X28798046Y-98842781D01*
X28743529Y-98815004D01*
X28715751Y-98760488D01*
X28725322Y-98700056D01*
X28768586Y-98656791D01*
X28798046Y-98647219D01*
X28806113Y-98645941D01*
X28806114Y-98645940D01*
X28806118Y-98645940D01*
X28985832Y-98587547D01*
X29154199Y-98501760D01*
X29307073Y-98390690D01*
X29440690Y-98257073D01*
X29551760Y-98104199D01*
X29637547Y-97935832D01*
X29695940Y-97756118D01*
X29696733Y-97751112D01*
X29725500Y-97569484D01*
X29725500Y-97380515D01*
X29695941Y-97193886D01*
X29695940Y-97193882D01*
X29637547Y-97014168D01*
X29551760Y-96845801D01*
X29440690Y-96692927D01*
X29307073Y-96559310D01*
X29154199Y-96448240D01*
X29154198Y-96448239D01*
X29154196Y-96448238D01*
X28985832Y-96362453D01*
X28806113Y-96304058D01*
X28798046Y-96302781D01*
X28743529Y-96275004D01*
X28715751Y-96220488D01*
X28725322Y-96160056D01*
X28768586Y-96116791D01*
X28798046Y-96107219D01*
X28806113Y-96105941D01*
X28806114Y-96105940D01*
X28806118Y-96105940D01*
X28985832Y-96047547D01*
X29154199Y-95961760D01*
X29307073Y-95850690D01*
X29440690Y-95717073D01*
X29551760Y-95564199D01*
X29637547Y-95395832D01*
X29695940Y-95216118D01*
X29696733Y-95211112D01*
X29725500Y-95029484D01*
X29725500Y-94840515D01*
X29695941Y-94653886D01*
X29695940Y-94653882D01*
X29637547Y-94474168D01*
X29551760Y-94305801D01*
X29440690Y-94152927D01*
X29307073Y-94019310D01*
X29154199Y-93908240D01*
X29154198Y-93908239D01*
X29154196Y-93908238D01*
X28985832Y-93822453D01*
X28806113Y-93764058D01*
X28798046Y-93762781D01*
X28743529Y-93735004D01*
X28715751Y-93680488D01*
X28725322Y-93620056D01*
X28768586Y-93576791D01*
X28798046Y-93567219D01*
X28806113Y-93565941D01*
X28806114Y-93565940D01*
X28806118Y-93565940D01*
X28985832Y-93507547D01*
X29154199Y-93421760D01*
X29307073Y-93310690D01*
X29440690Y-93177073D01*
X29551760Y-93024199D01*
X29637547Y-92855832D01*
X29695940Y-92676118D01*
X29696733Y-92671112D01*
X29725500Y-92489484D01*
X29725500Y-92300515D01*
X29695941Y-92113886D01*
X29695940Y-92113882D01*
X29637547Y-91934168D01*
X29551760Y-91765801D01*
X29440690Y-91612927D01*
X29307073Y-91479310D01*
X29154199Y-91368240D01*
X29154198Y-91368239D01*
X29154196Y-91368238D01*
X28985832Y-91282453D01*
X28806113Y-91224058D01*
X28798046Y-91222781D01*
X28743529Y-91195004D01*
X28715751Y-91140488D01*
X28725322Y-91080056D01*
X28768586Y-91036791D01*
X28798046Y-91027219D01*
X28806113Y-91025941D01*
X28806114Y-91025940D01*
X28806118Y-91025940D01*
X28985832Y-90967547D01*
X29154199Y-90881760D01*
X29307073Y-90770690D01*
X29440690Y-90637073D01*
X29551760Y-90484199D01*
X29637547Y-90315832D01*
X29695940Y-90136118D01*
X29696733Y-90131112D01*
X29725500Y-89949484D01*
X29725500Y-89760515D01*
X29695941Y-89573886D01*
X29695940Y-89573882D01*
X29637547Y-89394168D01*
X29551760Y-89225801D01*
X29440690Y-89072927D01*
X29307073Y-88939310D01*
X29154199Y-88828240D01*
X29154198Y-88828239D01*
X29154196Y-88828238D01*
X28985832Y-88742453D01*
X28806113Y-88684058D01*
X28798046Y-88682781D01*
X28743529Y-88655004D01*
X28715751Y-88600488D01*
X28725322Y-88540056D01*
X28768586Y-88496791D01*
X28798046Y-88487219D01*
X28806113Y-88485941D01*
X28806114Y-88485940D01*
X28806118Y-88485940D01*
X28985832Y-88427547D01*
X29154199Y-88341760D01*
X29307073Y-88230690D01*
X29440690Y-88097073D01*
X29551760Y-87944199D01*
X29637547Y-87775832D01*
X29695940Y-87596118D01*
X29696733Y-87591112D01*
X29725500Y-87409484D01*
X29725500Y-87220515D01*
X29695941Y-87033886D01*
X29695940Y-87033882D01*
X29637547Y-86854168D01*
X29551760Y-86685801D01*
X29440690Y-86532927D01*
X29307073Y-86399310D01*
X29154199Y-86288240D01*
X29154198Y-86288239D01*
X29154196Y-86288238D01*
X28985832Y-86202453D01*
X28806113Y-86144058D01*
X28798046Y-86142781D01*
X28743529Y-86115004D01*
X28715751Y-86060488D01*
X28725322Y-86000056D01*
X28768586Y-85956791D01*
X28798046Y-85947219D01*
X28806113Y-85945941D01*
X28806114Y-85945940D01*
X28806118Y-85945940D01*
X28985832Y-85887547D01*
X29154199Y-85801760D01*
X29307073Y-85690690D01*
X29440690Y-85557073D01*
X29551760Y-85404199D01*
X29637547Y-85235832D01*
X29695940Y-85056118D01*
X29696733Y-85051112D01*
X29725500Y-84869484D01*
X29725500Y-84680515D01*
X29695941Y-84493886D01*
X29695940Y-84493882D01*
X29637547Y-84314168D01*
X29551760Y-84145801D01*
X29440690Y-83992927D01*
X29307073Y-83859310D01*
X29154199Y-83748240D01*
X29154198Y-83748239D01*
X29154196Y-83748238D01*
X28985832Y-83662453D01*
X28806113Y-83604058D01*
X28798046Y-83602781D01*
X28743529Y-83575004D01*
X28715751Y-83520488D01*
X28725322Y-83460056D01*
X28768586Y-83416791D01*
X28798046Y-83407219D01*
X28806113Y-83405941D01*
X28806114Y-83405940D01*
X28806118Y-83405940D01*
X28985832Y-83347547D01*
X29154199Y-83261760D01*
X29307073Y-83150690D01*
X29440690Y-83017073D01*
X29551760Y-82864199D01*
X29637547Y-82695832D01*
X29695940Y-82516118D01*
X29696733Y-82511112D01*
X29725500Y-82329484D01*
X29725500Y-82140515D01*
X29695941Y-81953886D01*
X29695940Y-81953882D01*
X29637547Y-81774168D01*
X29551760Y-81605801D01*
X29440690Y-81452927D01*
X29307073Y-81319310D01*
X29154199Y-81208240D01*
X29154198Y-81208239D01*
X29154196Y-81208238D01*
X28985832Y-81122453D01*
X28806113Y-81064058D01*
X28798046Y-81062781D01*
X28743529Y-81035004D01*
X28715751Y-80980488D01*
X28725322Y-80920056D01*
X28768586Y-80876791D01*
X28798046Y-80867219D01*
X28806113Y-80865941D01*
X28806114Y-80865940D01*
X28806118Y-80865940D01*
X28985832Y-80807547D01*
X29154199Y-80721760D01*
X29307073Y-80610690D01*
X29440690Y-80477073D01*
X29551760Y-80324199D01*
X29637547Y-80155832D01*
X29695940Y-79976118D01*
X29696733Y-79971112D01*
X29725500Y-79789484D01*
X29725500Y-79600515D01*
X29695941Y-79413886D01*
X29695940Y-79413882D01*
X29637547Y-79234168D01*
X29551760Y-79065801D01*
X29440690Y-78912927D01*
X29307073Y-78779310D01*
X29154199Y-78668240D01*
X29154198Y-78668239D01*
X29154196Y-78668238D01*
X28985832Y-78582453D01*
X28806113Y-78524058D01*
X28798046Y-78522781D01*
X28743529Y-78495004D01*
X28715751Y-78440488D01*
X28725322Y-78380056D01*
X28768586Y-78336791D01*
X28798046Y-78327219D01*
X28806113Y-78325941D01*
X28806114Y-78325940D01*
X28806118Y-78325940D01*
X28985832Y-78267547D01*
X29154199Y-78181760D01*
X29307073Y-78070690D01*
X29440690Y-77937073D01*
X29551760Y-77784199D01*
X29637547Y-77615832D01*
X29695940Y-77436118D01*
X29696733Y-77431112D01*
X29725500Y-77249484D01*
X29725500Y-77060515D01*
X29695941Y-76873886D01*
X29695940Y-76873882D01*
X29637547Y-76694168D01*
X29551760Y-76525801D01*
X29440690Y-76372927D01*
X29307073Y-76239310D01*
X29154199Y-76128240D01*
X29154198Y-76128239D01*
X29154196Y-76128238D01*
X28985832Y-76042453D01*
X28806113Y-75984058D01*
X28798046Y-75982781D01*
X28743529Y-75955004D01*
X28715751Y-75900488D01*
X28725322Y-75840056D01*
X28768586Y-75796791D01*
X28798046Y-75787219D01*
X28806113Y-75785941D01*
X28806114Y-75785940D01*
X28806118Y-75785940D01*
X28985832Y-75727547D01*
X29154199Y-75641760D01*
X29307073Y-75530690D01*
X29440690Y-75397073D01*
X29551760Y-75244199D01*
X29637547Y-75075832D01*
X29695940Y-74896118D01*
X29696733Y-74891112D01*
X29725500Y-74709484D01*
X29725500Y-74520515D01*
X29695941Y-74333886D01*
X29695940Y-74333882D01*
X29637547Y-74154168D01*
X29551760Y-73985801D01*
X29440690Y-73832927D01*
X29307073Y-73699310D01*
X29154199Y-73588240D01*
X29154198Y-73588239D01*
X29154196Y-73588238D01*
X29118813Y-73570210D01*
X29075548Y-73526945D01*
X29065977Y-73466513D01*
X29093754Y-73411997D01*
X29148271Y-73384219D01*
X29163758Y-73383000D01*
X29373587Y-73383000D01*
X29434088Y-73376495D01*
X29434098Y-73376493D01*
X29570960Y-73325447D01*
X29687899Y-73237907D01*
X29687907Y-73237899D01*
X29775447Y-73120960D01*
X29826493Y-72984098D01*
X29826495Y-72984088D01*
X29833000Y-72923587D01*
X29833000Y-72329001D01*
X29832999Y-72329000D01*
X28836686Y-72329000D01*
X28845080Y-72320606D01*
X28897741Y-72229394D01*
X28925000Y-72127661D01*
X28925000Y-72022339D01*
X28912454Y-71975515D01*
X39934500Y-71975515D01*
X39934500Y-72164484D01*
X39964058Y-72351113D01*
X39978344Y-72395080D01*
X40022453Y-72530832D01*
X40108240Y-72699199D01*
X40219310Y-72852073D01*
X40352927Y-72985690D01*
X40505801Y-73096760D01*
X40674168Y-73182547D01*
X40853882Y-73240940D01*
X40853883Y-73240940D01*
X40853886Y-73240941D01*
X40861954Y-73242219D01*
X40916471Y-73269996D01*
X40944248Y-73324513D01*
X40934677Y-73384945D01*
X40891412Y-73428210D01*
X40861954Y-73437781D01*
X40853886Y-73439058D01*
X40674167Y-73497453D01*
X40505803Y-73583238D01*
X40352928Y-73694309D01*
X40219309Y-73827928D01*
X40108238Y-73980803D01*
X40022453Y-74149167D01*
X39964058Y-74328886D01*
X39934500Y-74515515D01*
X39934500Y-74704484D01*
X39964058Y-74891113D01*
X39998052Y-74995735D01*
X40022453Y-75070832D01*
X40108240Y-75239199D01*
X40219310Y-75392073D01*
X40352927Y-75525690D01*
X40505801Y-75636760D01*
X40674168Y-75722547D01*
X40853882Y-75780940D01*
X40853883Y-75780940D01*
X40853886Y-75780941D01*
X40861954Y-75782219D01*
X40916471Y-75809996D01*
X40944248Y-75864513D01*
X40934677Y-75924945D01*
X40891412Y-75968210D01*
X40861954Y-75977781D01*
X40853886Y-75979058D01*
X40674167Y-76037453D01*
X40505803Y-76123238D01*
X40352928Y-76234309D01*
X40219309Y-76367928D01*
X40108238Y-76520803D01*
X40022453Y-76689167D01*
X39964058Y-76868886D01*
X39934500Y-77055515D01*
X39934500Y-77244484D01*
X39964058Y-77431113D01*
X39998052Y-77535735D01*
X40022453Y-77610832D01*
X40108240Y-77779199D01*
X40219310Y-77932073D01*
X40352927Y-78065690D01*
X40505801Y-78176760D01*
X40674168Y-78262547D01*
X40853882Y-78320940D01*
X40853883Y-78320940D01*
X40853886Y-78320941D01*
X40861954Y-78322219D01*
X40916471Y-78349996D01*
X40944248Y-78404513D01*
X40934677Y-78464945D01*
X40891412Y-78508210D01*
X40861954Y-78517781D01*
X40853886Y-78519058D01*
X40674167Y-78577453D01*
X40505803Y-78663238D01*
X40352928Y-78774309D01*
X40219309Y-78907928D01*
X40108238Y-79060803D01*
X40022453Y-79229167D01*
X39964058Y-79408886D01*
X39934500Y-79595515D01*
X39934500Y-79784484D01*
X39964058Y-79971113D01*
X39998052Y-80075735D01*
X40022453Y-80150832D01*
X40108240Y-80319199D01*
X40219310Y-80472073D01*
X40352927Y-80605690D01*
X40505801Y-80716760D01*
X40674168Y-80802547D01*
X40853882Y-80860940D01*
X40853883Y-80860940D01*
X40853886Y-80860941D01*
X40861954Y-80862219D01*
X40916471Y-80889996D01*
X40944248Y-80944513D01*
X40934677Y-81004945D01*
X40891412Y-81048210D01*
X40861954Y-81057781D01*
X40853886Y-81059058D01*
X40674167Y-81117453D01*
X40505803Y-81203238D01*
X40352928Y-81314309D01*
X40219309Y-81447928D01*
X40108238Y-81600803D01*
X40022453Y-81769167D01*
X39964058Y-81948886D01*
X39934500Y-82135515D01*
X39934500Y-82324484D01*
X39964058Y-82511113D01*
X39998052Y-82615735D01*
X40022453Y-82690832D01*
X40108240Y-82859199D01*
X40219310Y-83012073D01*
X40352927Y-83145690D01*
X40505801Y-83256760D01*
X40674168Y-83342547D01*
X40853882Y-83400940D01*
X40853883Y-83400940D01*
X40853886Y-83400941D01*
X40861954Y-83402219D01*
X40916471Y-83429996D01*
X40944248Y-83484513D01*
X40934677Y-83544945D01*
X40891412Y-83588210D01*
X40861954Y-83597781D01*
X40853886Y-83599058D01*
X40674167Y-83657453D01*
X40505803Y-83743238D01*
X40352928Y-83854309D01*
X40219309Y-83987928D01*
X40108238Y-84140803D01*
X40022453Y-84309167D01*
X39964058Y-84488886D01*
X39934500Y-84675515D01*
X39934500Y-84864484D01*
X39964058Y-85051113D01*
X39998052Y-85155735D01*
X40022453Y-85230832D01*
X40108240Y-85399199D01*
X40219310Y-85552073D01*
X40352927Y-85685690D01*
X40505801Y-85796760D01*
X40674168Y-85882547D01*
X40853882Y-85940940D01*
X40853883Y-85940940D01*
X40853886Y-85940941D01*
X40861954Y-85942219D01*
X40916471Y-85969996D01*
X40944248Y-86024513D01*
X40934677Y-86084945D01*
X40891412Y-86128210D01*
X40861954Y-86137781D01*
X40853886Y-86139058D01*
X40674167Y-86197453D01*
X40505803Y-86283238D01*
X40352928Y-86394309D01*
X40219309Y-86527928D01*
X40108238Y-86680803D01*
X40022453Y-86849167D01*
X39964058Y-87028886D01*
X39934500Y-87215515D01*
X39934500Y-87404484D01*
X39964058Y-87591113D01*
X39998052Y-87695735D01*
X40022453Y-87770832D01*
X40108240Y-87939199D01*
X40219310Y-88092073D01*
X40352927Y-88225690D01*
X40505801Y-88336760D01*
X40674168Y-88422547D01*
X40853882Y-88480940D01*
X40853883Y-88480940D01*
X40853886Y-88480941D01*
X40861954Y-88482219D01*
X40916471Y-88509996D01*
X40944248Y-88564513D01*
X40934677Y-88624945D01*
X40891412Y-88668210D01*
X40861954Y-88677781D01*
X40853886Y-88679058D01*
X40674167Y-88737453D01*
X40505803Y-88823238D01*
X40352928Y-88934309D01*
X40219309Y-89067928D01*
X40108238Y-89220803D01*
X40022453Y-89389167D01*
X39964058Y-89568886D01*
X39934500Y-89755515D01*
X39934500Y-89944484D01*
X39964058Y-90131113D01*
X39998052Y-90235735D01*
X40022453Y-90310832D01*
X40108240Y-90479199D01*
X40219310Y-90632073D01*
X40352927Y-90765690D01*
X40505801Y-90876760D01*
X40674168Y-90962547D01*
X40853882Y-91020940D01*
X40853883Y-91020940D01*
X40853886Y-91020941D01*
X40861954Y-91022219D01*
X40916471Y-91049996D01*
X40944248Y-91104513D01*
X40934677Y-91164945D01*
X40891412Y-91208210D01*
X40861954Y-91217781D01*
X40853886Y-91219058D01*
X40674167Y-91277453D01*
X40505803Y-91363238D01*
X40352928Y-91474309D01*
X40219309Y-91607928D01*
X40108238Y-91760803D01*
X40022453Y-91929167D01*
X39964058Y-92108886D01*
X39934500Y-92295515D01*
X39934500Y-92484484D01*
X39964058Y-92671113D01*
X39998052Y-92775735D01*
X40022453Y-92850832D01*
X40108240Y-93019199D01*
X40219310Y-93172073D01*
X40352927Y-93305690D01*
X40505801Y-93416760D01*
X40674168Y-93502547D01*
X40853882Y-93560940D01*
X40853883Y-93560940D01*
X40853886Y-93560941D01*
X40861954Y-93562219D01*
X40916471Y-93589996D01*
X40944248Y-93644513D01*
X40934677Y-93704945D01*
X40891412Y-93748210D01*
X40861954Y-93757781D01*
X40853886Y-93759058D01*
X40674167Y-93817453D01*
X40505803Y-93903238D01*
X40352928Y-94014309D01*
X40219309Y-94147928D01*
X40108238Y-94300803D01*
X40022453Y-94469167D01*
X39964058Y-94648886D01*
X39934500Y-94835515D01*
X39934500Y-95024484D01*
X39964058Y-95211113D01*
X39998052Y-95315735D01*
X40022453Y-95390832D01*
X40108240Y-95559199D01*
X40219310Y-95712073D01*
X40352927Y-95845690D01*
X40505801Y-95956760D01*
X40674168Y-96042547D01*
X40853882Y-96100940D01*
X40853883Y-96100940D01*
X40853886Y-96100941D01*
X40861954Y-96102219D01*
X40916471Y-96129996D01*
X40944248Y-96184513D01*
X40934677Y-96244945D01*
X40891412Y-96288210D01*
X40861954Y-96297781D01*
X40853886Y-96299058D01*
X40674167Y-96357453D01*
X40505803Y-96443238D01*
X40352928Y-96554309D01*
X40219309Y-96687928D01*
X40108238Y-96840803D01*
X40022453Y-97009167D01*
X39964058Y-97188886D01*
X39934500Y-97375515D01*
X39934500Y-97564484D01*
X39964058Y-97751113D01*
X39998052Y-97855735D01*
X40022453Y-97930832D01*
X40108240Y-98099199D01*
X40219310Y-98252073D01*
X40352927Y-98385690D01*
X40505801Y-98496760D01*
X40674168Y-98582547D01*
X40853882Y-98640940D01*
X40853883Y-98640940D01*
X40853886Y-98640941D01*
X40861954Y-98642219D01*
X40916471Y-98669996D01*
X40944248Y-98724513D01*
X40934677Y-98784945D01*
X40891412Y-98828210D01*
X40861954Y-98837781D01*
X40853886Y-98839058D01*
X40674167Y-98897453D01*
X40505803Y-98983238D01*
X40352928Y-99094309D01*
X40219309Y-99227928D01*
X40108238Y-99380803D01*
X40022453Y-99549167D01*
X39964058Y-99728886D01*
X39934500Y-99915515D01*
X39934500Y-100104484D01*
X39964058Y-100291113D01*
X40022453Y-100470832D01*
X40098171Y-100619439D01*
X40108240Y-100639199D01*
X40219310Y-100792073D01*
X40352927Y-100925690D01*
X40505801Y-101036760D01*
X40674168Y-101122547D01*
X40853882Y-101180940D01*
X40853883Y-101180940D01*
X40853886Y-101180941D01*
X40861954Y-101182219D01*
X40916471Y-101209996D01*
X40944248Y-101264513D01*
X40934677Y-101324945D01*
X40891412Y-101368210D01*
X40861954Y-101377781D01*
X40853886Y-101379058D01*
X40674167Y-101437453D01*
X40505803Y-101523238D01*
X40352928Y-101634309D01*
X40219309Y-101767928D01*
X40108238Y-101920803D01*
X40022453Y-102089167D01*
X39964058Y-102268886D01*
X39934500Y-102455515D01*
X39934500Y-102644484D01*
X39964058Y-102831113D01*
X39971238Y-102853211D01*
X40022453Y-103010832D01*
X40108240Y-103179199D01*
X40219310Y-103332073D01*
X40352927Y-103465690D01*
X40505801Y-103576760D01*
X40674168Y-103662547D01*
X40853882Y-103720940D01*
X40853883Y-103720940D01*
X40853886Y-103720941D01*
X40861954Y-103722219D01*
X40916471Y-103749996D01*
X40944248Y-103804513D01*
X40934677Y-103864945D01*
X40891412Y-103908210D01*
X40861954Y-103917781D01*
X40853886Y-103919058D01*
X40674167Y-103977453D01*
X40505803Y-104063238D01*
X40352928Y-104174309D01*
X40219309Y-104307928D01*
X40108238Y-104460803D01*
X40022453Y-104629167D01*
X39964058Y-104808886D01*
X39934500Y-104995515D01*
X39934500Y-104995519D01*
X39934500Y-105184481D01*
X39947721Y-105267956D01*
X39947723Y-105267976D01*
X39964058Y-105371113D01*
X40022453Y-105550832D01*
X40087848Y-105679179D01*
X40108240Y-105719199D01*
X40219310Y-105872073D01*
X40352927Y-106005690D01*
X40505801Y-106116760D01*
X40674168Y-106202547D01*
X40853882Y-106260940D01*
X40853883Y-106260940D01*
X40853886Y-106260941D01*
X40861954Y-106262219D01*
X40916471Y-106289996D01*
X40944248Y-106344513D01*
X40934677Y-106404945D01*
X40891412Y-106448210D01*
X40861954Y-106457781D01*
X40853886Y-106459058D01*
X40674167Y-106517453D01*
X40505803Y-106603238D01*
X40352928Y-106714309D01*
X40219309Y-106847928D01*
X40108238Y-107000803D01*
X40022453Y-107169167D01*
X39964058Y-107348886D01*
X39934500Y-107535515D01*
X39934500Y-107724484D01*
X39964058Y-107911113D01*
X39998052Y-108015735D01*
X40022453Y-108090832D01*
X40108240Y-108259199D01*
X40219310Y-108412073D01*
X40352927Y-108545690D01*
X40505801Y-108656760D01*
X40674168Y-108742547D01*
X40853882Y-108800940D01*
X40853883Y-108800940D01*
X40853886Y-108800941D01*
X40861954Y-108802219D01*
X40916471Y-108829996D01*
X40944248Y-108884513D01*
X40934677Y-108944945D01*
X40891412Y-108988210D01*
X40861954Y-108997781D01*
X40853886Y-108999058D01*
X40674167Y-109057453D01*
X40505803Y-109143238D01*
X40352928Y-109254309D01*
X40219309Y-109387928D01*
X40108238Y-109540803D01*
X40022453Y-109709167D01*
X39964058Y-109888886D01*
X39934500Y-110075515D01*
X39934500Y-110264484D01*
X39964058Y-110451113D01*
X39998052Y-110555735D01*
X40022453Y-110630832D01*
X40108240Y-110799199D01*
X40219310Y-110952073D01*
X40352927Y-111085690D01*
X40505801Y-111196760D01*
X40674168Y-111282547D01*
X40853882Y-111340940D01*
X40853883Y-111340940D01*
X40853886Y-111340941D01*
X40861954Y-111342219D01*
X40916471Y-111369996D01*
X40944248Y-111424513D01*
X40934677Y-111484945D01*
X40891412Y-111528210D01*
X40861954Y-111537781D01*
X40853886Y-111539058D01*
X40674167Y-111597453D01*
X40505803Y-111683238D01*
X40352928Y-111794309D01*
X40219309Y-111927928D01*
X40108238Y-112080803D01*
X40022453Y-112249167D01*
X39964058Y-112428886D01*
X39934500Y-112615515D01*
X39934500Y-112804484D01*
X39964058Y-112991113D01*
X39998052Y-113095735D01*
X40022453Y-113170832D01*
X40108240Y-113339199D01*
X40219310Y-113492073D01*
X40352927Y-113625690D01*
X40505801Y-113736760D01*
X40674168Y-113822547D01*
X40853882Y-113880940D01*
X40853883Y-113880940D01*
X40853886Y-113880941D01*
X40861954Y-113882219D01*
X40916471Y-113909996D01*
X40944248Y-113964513D01*
X40934677Y-114024945D01*
X40891412Y-114068210D01*
X40861954Y-114077781D01*
X40853886Y-114079058D01*
X40674167Y-114137453D01*
X40505803Y-114223238D01*
X40352928Y-114334309D01*
X40219309Y-114467928D01*
X40108238Y-114620803D01*
X40022453Y-114789167D01*
X39964058Y-114968886D01*
X39934500Y-115155515D01*
X39934500Y-115344484D01*
X39964058Y-115531113D01*
X40022453Y-115710832D01*
X40103418Y-115869737D01*
X40108240Y-115879199D01*
X40219310Y-116032073D01*
X40352927Y-116165690D01*
X40505801Y-116276760D01*
X40674168Y-116362547D01*
X40853882Y-116420940D01*
X40853883Y-116420940D01*
X40853886Y-116420941D01*
X40861954Y-116422219D01*
X40916471Y-116449996D01*
X40944248Y-116504513D01*
X40934677Y-116564945D01*
X40891412Y-116608210D01*
X40861954Y-116617781D01*
X40853886Y-116619058D01*
X40674167Y-116677453D01*
X40505803Y-116763238D01*
X40352928Y-116874309D01*
X40219309Y-117007928D01*
X40108238Y-117160803D01*
X40022453Y-117329167D01*
X39964058Y-117508886D01*
X39934500Y-117695515D01*
X39934500Y-117884484D01*
X39964058Y-118071113D01*
X40022453Y-118250832D01*
X40101421Y-118405817D01*
X40108240Y-118419199D01*
X40219310Y-118572073D01*
X40352927Y-118705690D01*
X40505801Y-118816760D01*
X40674168Y-118902547D01*
X40853882Y-118960940D01*
X40853883Y-118960940D01*
X40853886Y-118960941D01*
X40861954Y-118962219D01*
X40916471Y-118989996D01*
X40944248Y-119044513D01*
X40934677Y-119104945D01*
X40891412Y-119148210D01*
X40861954Y-119157781D01*
X40853886Y-119159058D01*
X40674167Y-119217453D01*
X40505803Y-119303238D01*
X40352928Y-119414309D01*
X40219309Y-119547928D01*
X40108238Y-119700803D01*
X40022453Y-119869167D01*
X39964058Y-120048886D01*
X39934500Y-120235515D01*
X39934500Y-120424484D01*
X39964058Y-120611113D01*
X40022453Y-120790832D01*
X40057844Y-120860292D01*
X40108240Y-120959199D01*
X40219310Y-121112073D01*
X40352927Y-121245690D01*
X40505801Y-121356760D01*
X40674168Y-121442547D01*
X40853882Y-121500940D01*
X40853883Y-121500940D01*
X40853886Y-121500941D01*
X41040516Y-121530500D01*
X41040519Y-121530500D01*
X41229484Y-121530500D01*
X41416113Y-121500941D01*
X41416114Y-121500940D01*
X41416118Y-121500940D01*
X41595832Y-121442547D01*
X41764199Y-121356760D01*
X41917073Y-121245690D01*
X42050690Y-121112073D01*
X42161760Y-120959199D01*
X42247547Y-120790832D01*
X42305940Y-120611118D01*
X42305941Y-120611112D01*
X42335500Y-120424484D01*
X42335500Y-120235515D01*
X42305941Y-120048886D01*
X42304556Y-120044624D01*
X42247547Y-119869168D01*
X42161760Y-119700801D01*
X42050690Y-119547927D01*
X41917073Y-119414310D01*
X41764199Y-119303240D01*
X41764198Y-119303239D01*
X41764196Y-119303238D01*
X41595832Y-119217453D01*
X41416113Y-119159058D01*
X41408046Y-119157781D01*
X41353529Y-119130004D01*
X41325751Y-119075488D01*
X41335322Y-119015056D01*
X41378586Y-118971791D01*
X41408046Y-118962219D01*
X41416113Y-118960941D01*
X41416114Y-118960940D01*
X41416118Y-118960940D01*
X41595832Y-118902547D01*
X41764199Y-118816760D01*
X41917073Y-118705690D01*
X42050690Y-118572073D01*
X42161760Y-118419199D01*
X42247547Y-118250832D01*
X42305940Y-118071118D01*
X42305941Y-118071112D01*
X42335500Y-117884484D01*
X42335500Y-117695515D01*
X42305941Y-117508886D01*
X42273622Y-117409419D01*
X42247547Y-117329168D01*
X42161760Y-117160801D01*
X42050690Y-117007927D01*
X41917073Y-116874310D01*
X41764199Y-116763240D01*
X41764198Y-116763239D01*
X41764196Y-116763238D01*
X41595832Y-116677453D01*
X41416113Y-116619058D01*
X41408046Y-116617781D01*
X41353529Y-116590004D01*
X41325751Y-116535488D01*
X41335322Y-116475056D01*
X41378586Y-116431791D01*
X41408046Y-116422219D01*
X41416113Y-116420941D01*
X41416114Y-116420940D01*
X41416118Y-116420940D01*
X41595832Y-116362547D01*
X41764199Y-116276760D01*
X41917073Y-116165690D01*
X42050690Y-116032073D01*
X42161760Y-115879199D01*
X42247547Y-115710832D01*
X42305940Y-115531118D01*
X42305941Y-115531112D01*
X42335500Y-115344484D01*
X42335500Y-115155515D01*
X42305941Y-114968886D01*
X42273622Y-114869419D01*
X42247547Y-114789168D01*
X42161760Y-114620801D01*
X42050690Y-114467927D01*
X41917073Y-114334310D01*
X41764199Y-114223240D01*
X41764198Y-114223239D01*
X41764196Y-114223238D01*
X41595832Y-114137453D01*
X41416113Y-114079058D01*
X41408046Y-114077781D01*
X41353529Y-114050004D01*
X41325751Y-113995488D01*
X41335322Y-113935056D01*
X41378586Y-113891791D01*
X41408046Y-113882219D01*
X41416113Y-113880941D01*
X41416114Y-113880940D01*
X41416118Y-113880940D01*
X41595832Y-113822547D01*
X41764199Y-113736760D01*
X41917073Y-113625690D01*
X42050690Y-113492073D01*
X42161760Y-113339199D01*
X42247547Y-113170832D01*
X42305940Y-112991118D01*
X42305941Y-112991112D01*
X42335500Y-112804484D01*
X42335500Y-112615515D01*
X42305941Y-112428886D01*
X42273622Y-112329419D01*
X42247547Y-112249168D01*
X42161760Y-112080801D01*
X42050690Y-111927927D01*
X41917073Y-111794310D01*
X41764199Y-111683240D01*
X41764198Y-111683239D01*
X41764196Y-111683238D01*
X41595832Y-111597453D01*
X41416113Y-111539058D01*
X41408046Y-111537781D01*
X41353529Y-111510004D01*
X41325751Y-111455488D01*
X41335322Y-111395056D01*
X41378586Y-111351791D01*
X41408046Y-111342219D01*
X41416113Y-111340941D01*
X41416114Y-111340940D01*
X41416118Y-111340940D01*
X41595832Y-111282547D01*
X41764199Y-111196760D01*
X41917073Y-111085690D01*
X42050690Y-110952073D01*
X42161760Y-110799199D01*
X42247547Y-110630832D01*
X42305940Y-110451118D01*
X42305941Y-110451112D01*
X42335500Y-110264484D01*
X42335500Y-110075515D01*
X42305941Y-109888886D01*
X42273622Y-109789419D01*
X42247547Y-109709168D01*
X42161760Y-109540801D01*
X42050690Y-109387927D01*
X41917073Y-109254310D01*
X41764199Y-109143240D01*
X41764198Y-109143239D01*
X41764196Y-109143238D01*
X41595832Y-109057453D01*
X41416113Y-108999058D01*
X41408046Y-108997781D01*
X41353529Y-108970004D01*
X41325751Y-108915488D01*
X41335322Y-108855056D01*
X41378586Y-108811791D01*
X41408046Y-108802219D01*
X41416113Y-108800941D01*
X41416114Y-108800940D01*
X41416118Y-108800940D01*
X41595832Y-108742547D01*
X41764199Y-108656760D01*
X41917073Y-108545690D01*
X42050690Y-108412073D01*
X42161760Y-108259199D01*
X42247547Y-108090832D01*
X42305940Y-107911118D01*
X42305941Y-107911112D01*
X42335500Y-107724484D01*
X42335500Y-107535515D01*
X42305941Y-107348886D01*
X42273622Y-107249419D01*
X42247547Y-107169168D01*
X42161760Y-107000801D01*
X42050690Y-106847927D01*
X41917073Y-106714310D01*
X41764199Y-106603240D01*
X41764198Y-106603239D01*
X41764196Y-106603238D01*
X41595832Y-106517453D01*
X41416113Y-106459058D01*
X41408046Y-106457781D01*
X41353529Y-106430004D01*
X41325751Y-106375488D01*
X41335322Y-106315056D01*
X41378586Y-106271791D01*
X41408046Y-106262219D01*
X41416113Y-106260941D01*
X41416114Y-106260940D01*
X41416118Y-106260940D01*
X41595832Y-106202547D01*
X41764199Y-106116760D01*
X41917073Y-106005690D01*
X42050690Y-105872073D01*
X42161760Y-105719199D01*
X42247547Y-105550832D01*
X42305940Y-105371118D01*
X42305941Y-105371112D01*
X42335500Y-105184484D01*
X42335500Y-104995515D01*
X42305941Y-104808886D01*
X42299711Y-104789711D01*
X42247547Y-104629168D01*
X42161760Y-104460801D01*
X42050690Y-104307927D01*
X41917073Y-104174310D01*
X41764199Y-104063240D01*
X41764198Y-104063239D01*
X41764196Y-104063238D01*
X41595832Y-103977453D01*
X41416113Y-103919058D01*
X41408046Y-103917781D01*
X41353529Y-103890004D01*
X41325751Y-103835488D01*
X41335322Y-103775056D01*
X41378586Y-103731791D01*
X41408046Y-103722219D01*
X41416113Y-103720941D01*
X41416114Y-103720940D01*
X41416118Y-103720940D01*
X41595832Y-103662547D01*
X41764199Y-103576760D01*
X41917073Y-103465690D01*
X42050690Y-103332073D01*
X42161760Y-103179199D01*
X42247547Y-103010832D01*
X42305940Y-102831118D01*
X42305941Y-102831112D01*
X42335500Y-102644484D01*
X42335500Y-102455515D01*
X42305941Y-102268886D01*
X42273622Y-102169419D01*
X42247547Y-102089168D01*
X42161760Y-101920801D01*
X42050690Y-101767927D01*
X41917073Y-101634310D01*
X41764199Y-101523240D01*
X41764198Y-101523239D01*
X41764196Y-101523238D01*
X41595832Y-101437453D01*
X41416113Y-101379058D01*
X41408046Y-101377781D01*
X41353529Y-101350004D01*
X41325751Y-101295488D01*
X41335322Y-101235056D01*
X41378586Y-101191791D01*
X41408046Y-101182219D01*
X41416113Y-101180941D01*
X41416114Y-101180940D01*
X41416118Y-101180940D01*
X41595832Y-101122547D01*
X41764199Y-101036760D01*
X41917073Y-100925690D01*
X42050690Y-100792073D01*
X42161760Y-100639199D01*
X42247547Y-100470832D01*
X42305940Y-100291118D01*
X42305941Y-100291112D01*
X42335500Y-100104484D01*
X42335500Y-99915515D01*
X42305941Y-99728886D01*
X42273622Y-99629419D01*
X42247547Y-99549168D01*
X42161760Y-99380801D01*
X42050690Y-99227927D01*
X41917073Y-99094310D01*
X41764199Y-98983240D01*
X41764198Y-98983239D01*
X41764196Y-98983238D01*
X41595832Y-98897453D01*
X41416113Y-98839058D01*
X41408046Y-98837781D01*
X41353529Y-98810004D01*
X41325751Y-98755488D01*
X41335322Y-98695056D01*
X41378586Y-98651791D01*
X41408046Y-98642219D01*
X41416113Y-98640941D01*
X41416114Y-98640940D01*
X41416118Y-98640940D01*
X41595832Y-98582547D01*
X41764199Y-98496760D01*
X41917073Y-98385690D01*
X42050690Y-98252073D01*
X42161760Y-98099199D01*
X42247547Y-97930832D01*
X42305940Y-97751118D01*
X42305941Y-97751112D01*
X42335500Y-97564484D01*
X42335500Y-97375515D01*
X42305941Y-97188886D01*
X42273622Y-97089419D01*
X42247547Y-97009168D01*
X42161760Y-96840801D01*
X42050690Y-96687927D01*
X41917073Y-96554310D01*
X41764199Y-96443240D01*
X41764198Y-96443239D01*
X41764196Y-96443238D01*
X41595832Y-96357453D01*
X41416113Y-96299058D01*
X41408046Y-96297781D01*
X41353529Y-96270004D01*
X41325751Y-96215488D01*
X41335322Y-96155056D01*
X41378586Y-96111791D01*
X41408046Y-96102219D01*
X41416113Y-96100941D01*
X41416114Y-96100940D01*
X41416118Y-96100940D01*
X41595832Y-96042547D01*
X41764199Y-95956760D01*
X41917073Y-95845690D01*
X42050690Y-95712073D01*
X42161760Y-95559199D01*
X42247547Y-95390832D01*
X42305940Y-95211118D01*
X42305941Y-95211112D01*
X42335500Y-95024484D01*
X42335500Y-94835515D01*
X42305941Y-94648886D01*
X42273622Y-94549419D01*
X42247547Y-94469168D01*
X42161760Y-94300801D01*
X42050690Y-94147927D01*
X41917073Y-94014310D01*
X41764199Y-93903240D01*
X41764198Y-93903239D01*
X41764196Y-93903238D01*
X41595832Y-93817453D01*
X41416113Y-93759058D01*
X41408046Y-93757781D01*
X41353529Y-93730004D01*
X41325751Y-93675488D01*
X41335322Y-93615056D01*
X41378586Y-93571791D01*
X41408046Y-93562219D01*
X41416113Y-93560941D01*
X41416114Y-93560940D01*
X41416118Y-93560940D01*
X41595832Y-93502547D01*
X41764199Y-93416760D01*
X41917073Y-93305690D01*
X42050690Y-93172073D01*
X42161760Y-93019199D01*
X42247547Y-92850832D01*
X42305940Y-92671118D01*
X42305941Y-92671112D01*
X42335500Y-92484484D01*
X42335500Y-92295515D01*
X42305941Y-92108886D01*
X42273622Y-92009419D01*
X42247547Y-91929168D01*
X42161760Y-91760801D01*
X42050690Y-91607927D01*
X41917073Y-91474310D01*
X41764199Y-91363240D01*
X41764198Y-91363239D01*
X41764196Y-91363238D01*
X41595832Y-91277453D01*
X41416113Y-91219058D01*
X41408046Y-91217781D01*
X41353529Y-91190004D01*
X41325751Y-91135488D01*
X41335322Y-91075056D01*
X41378586Y-91031791D01*
X41408046Y-91022219D01*
X41416113Y-91020941D01*
X41416114Y-91020940D01*
X41416118Y-91020940D01*
X41595832Y-90962547D01*
X41764199Y-90876760D01*
X41917073Y-90765690D01*
X42050690Y-90632073D01*
X42161760Y-90479199D01*
X42247547Y-90310832D01*
X42305940Y-90131118D01*
X42305941Y-90131112D01*
X42335500Y-89944484D01*
X42335500Y-89755515D01*
X42305941Y-89568886D01*
X42273622Y-89469419D01*
X42247547Y-89389168D01*
X42161760Y-89220801D01*
X42050690Y-89067927D01*
X41917073Y-88934310D01*
X41764199Y-88823240D01*
X41764198Y-88823239D01*
X41764196Y-88823238D01*
X41595832Y-88737453D01*
X41416113Y-88679058D01*
X41408046Y-88677781D01*
X41353529Y-88650004D01*
X41325751Y-88595488D01*
X41335322Y-88535056D01*
X41378586Y-88491791D01*
X41408046Y-88482219D01*
X41416113Y-88480941D01*
X41416114Y-88480940D01*
X41416118Y-88480940D01*
X41595832Y-88422547D01*
X41764199Y-88336760D01*
X41917073Y-88225690D01*
X42050690Y-88092073D01*
X42161760Y-87939199D01*
X42247547Y-87770832D01*
X42305940Y-87591118D01*
X42305941Y-87591112D01*
X42335500Y-87404484D01*
X42335500Y-87215515D01*
X42305941Y-87028886D01*
X42273622Y-86929419D01*
X42247547Y-86849168D01*
X42161760Y-86680801D01*
X42050690Y-86527927D01*
X41917073Y-86394310D01*
X41764199Y-86283240D01*
X41764198Y-86283239D01*
X41764196Y-86283238D01*
X41595832Y-86197453D01*
X41416113Y-86139058D01*
X41408046Y-86137781D01*
X41353529Y-86110004D01*
X41325751Y-86055488D01*
X41335322Y-85995056D01*
X41378586Y-85951791D01*
X41408046Y-85942219D01*
X41416113Y-85940941D01*
X41416114Y-85940940D01*
X41416118Y-85940940D01*
X41595832Y-85882547D01*
X41764199Y-85796760D01*
X41917073Y-85685690D01*
X42050690Y-85552073D01*
X42161760Y-85399199D01*
X42247547Y-85230832D01*
X42305940Y-85051118D01*
X42305941Y-85051112D01*
X42335500Y-84864484D01*
X42335500Y-84675515D01*
X42305941Y-84488886D01*
X42273622Y-84389419D01*
X42247547Y-84309168D01*
X42161760Y-84140801D01*
X42050690Y-83987927D01*
X41917073Y-83854310D01*
X41764199Y-83743240D01*
X41764198Y-83743239D01*
X41764196Y-83743238D01*
X41595832Y-83657453D01*
X41416113Y-83599058D01*
X41408046Y-83597781D01*
X41353529Y-83570004D01*
X41325751Y-83515488D01*
X41335322Y-83455056D01*
X41378586Y-83411791D01*
X41408046Y-83402219D01*
X41416113Y-83400941D01*
X41416114Y-83400940D01*
X41416118Y-83400940D01*
X41595832Y-83342547D01*
X41764199Y-83256760D01*
X41917073Y-83145690D01*
X42050690Y-83012073D01*
X42161760Y-82859199D01*
X42247547Y-82690832D01*
X42305940Y-82511118D01*
X42305941Y-82511112D01*
X42335500Y-82324484D01*
X42335500Y-82135515D01*
X42305941Y-81948886D01*
X42273622Y-81849419D01*
X42247547Y-81769168D01*
X42161760Y-81600801D01*
X42050690Y-81447927D01*
X41917073Y-81314310D01*
X41764199Y-81203240D01*
X41764198Y-81203239D01*
X41764196Y-81203238D01*
X41595832Y-81117453D01*
X41416113Y-81059058D01*
X41408046Y-81057781D01*
X41353529Y-81030004D01*
X41325751Y-80975488D01*
X41335322Y-80915056D01*
X41378586Y-80871791D01*
X41408046Y-80862219D01*
X41416113Y-80860941D01*
X41416114Y-80860940D01*
X41416118Y-80860940D01*
X41595832Y-80802547D01*
X41764199Y-80716760D01*
X41917073Y-80605690D01*
X42050690Y-80472073D01*
X42161760Y-80319199D01*
X42247547Y-80150832D01*
X42305940Y-79971118D01*
X42305941Y-79971112D01*
X42335500Y-79784484D01*
X42335500Y-79595515D01*
X42305941Y-79408886D01*
X42273622Y-79309419D01*
X42247547Y-79229168D01*
X42161760Y-79060801D01*
X42050690Y-78907927D01*
X41917073Y-78774310D01*
X41764199Y-78663240D01*
X41764198Y-78663239D01*
X41764196Y-78663238D01*
X41595832Y-78577453D01*
X41416113Y-78519058D01*
X41408046Y-78517781D01*
X41353529Y-78490004D01*
X41325751Y-78435488D01*
X41335322Y-78375056D01*
X41378586Y-78331791D01*
X41408046Y-78322219D01*
X41416113Y-78320941D01*
X41416114Y-78320940D01*
X41416118Y-78320940D01*
X41595832Y-78262547D01*
X41764199Y-78176760D01*
X41917073Y-78065690D01*
X42050690Y-77932073D01*
X42161760Y-77779199D01*
X42247547Y-77610832D01*
X42305940Y-77431118D01*
X42305941Y-77431112D01*
X42335500Y-77244484D01*
X42335500Y-77055515D01*
X42305941Y-76868886D01*
X42273622Y-76769419D01*
X42247547Y-76689168D01*
X42161760Y-76520801D01*
X42050690Y-76367927D01*
X41917073Y-76234310D01*
X41764199Y-76123240D01*
X41764198Y-76123239D01*
X41764196Y-76123238D01*
X41595832Y-76037453D01*
X41416113Y-75979058D01*
X41408046Y-75977781D01*
X41353529Y-75950004D01*
X41325751Y-75895488D01*
X41335322Y-75835056D01*
X41378586Y-75791791D01*
X41408046Y-75782219D01*
X41416113Y-75780941D01*
X41416114Y-75780940D01*
X41416118Y-75780940D01*
X41595832Y-75722547D01*
X41764199Y-75636760D01*
X41917073Y-75525690D01*
X42050690Y-75392073D01*
X42161760Y-75239199D01*
X42247547Y-75070832D01*
X42305940Y-74891118D01*
X42305941Y-74891112D01*
X42335500Y-74704484D01*
X42335500Y-74515515D01*
X42305941Y-74328886D01*
X42273622Y-74229419D01*
X42247547Y-74149168D01*
X42161760Y-73980801D01*
X42050690Y-73827927D01*
X41917073Y-73694310D01*
X41764199Y-73583240D01*
X41764198Y-73583239D01*
X41764196Y-73583238D01*
X41595832Y-73497453D01*
X41416113Y-73439058D01*
X41408046Y-73437781D01*
X41353529Y-73410004D01*
X41325751Y-73355488D01*
X41335322Y-73295056D01*
X41378586Y-73251791D01*
X41408046Y-73242219D01*
X41416113Y-73240941D01*
X41416114Y-73240940D01*
X41416118Y-73240940D01*
X41595832Y-73182547D01*
X41764199Y-73096760D01*
X41917073Y-72985690D01*
X42050690Y-72852073D01*
X42161760Y-72699199D01*
X42247547Y-72530832D01*
X42305940Y-72351118D01*
X42310773Y-72320606D01*
X42335500Y-72164484D01*
X42335500Y-71975515D01*
X42305941Y-71788886D01*
X42277794Y-71702259D01*
X42247547Y-71609168D01*
X42161760Y-71440801D01*
X42050690Y-71287927D01*
X41917073Y-71154310D01*
X41764199Y-71043240D01*
X41764198Y-71043239D01*
X41764196Y-71043238D01*
X41595832Y-70957453D01*
X41416113Y-70899058D01*
X41229484Y-70869500D01*
X41229481Y-70869500D01*
X41040519Y-70869500D01*
X41040516Y-70869500D01*
X40853886Y-70899058D01*
X40674167Y-70957453D01*
X40505803Y-71043238D01*
X40352928Y-71154309D01*
X40219309Y-71287928D01*
X40108238Y-71440803D01*
X40022453Y-71609167D01*
X39964058Y-71788886D01*
X39934500Y-71975515D01*
X28912454Y-71975515D01*
X28897741Y-71920606D01*
X28845080Y-71829394D01*
X28836686Y-71821000D01*
X29832999Y-71821000D01*
X29833000Y-71820999D01*
X29833000Y-71226412D01*
X29826495Y-71165911D01*
X29826493Y-71165901D01*
X29775447Y-71029039D01*
X29687907Y-70912100D01*
X29687899Y-70912092D01*
X29570960Y-70824552D01*
X29434098Y-70773506D01*
X29434088Y-70773504D01*
X29373587Y-70767000D01*
X28779001Y-70767000D01*
X28779000Y-70767001D01*
X28779000Y-71763314D01*
X28770606Y-71754920D01*
X28679394Y-71702259D01*
X28577661Y-71675000D01*
X28472339Y-71675000D01*
X28370606Y-71702259D01*
X28279394Y-71754920D01*
X28271000Y-71763314D01*
X28271000Y-70767001D01*
X28270999Y-70767000D01*
X27676413Y-70767000D01*
X27615911Y-70773504D01*
X27615901Y-70773506D01*
X27479039Y-70824552D01*
X27362100Y-70912092D01*
X27362092Y-70912100D01*
X27291124Y-71006902D01*
X27241115Y-71042155D01*
X27179936Y-71041281D01*
X27132617Y-71006902D01*
X27057903Y-70907096D01*
X27057899Y-70907092D01*
X26940960Y-70819552D01*
X26804098Y-70768506D01*
X26804088Y-70768504D01*
X26743587Y-70762000D01*
X26149001Y-70762000D01*
X26149000Y-70762001D01*
X26149000Y-71758314D01*
X26140606Y-71749920D01*
X26049394Y-71697259D01*
X25947661Y-71670000D01*
X25842339Y-71670000D01*
X25740606Y-71697259D01*
X25649394Y-71749920D01*
X25641000Y-71758314D01*
X25641000Y-70762001D01*
X25640999Y-70762000D01*
X25046413Y-70762000D01*
X24985911Y-70768504D01*
X24985901Y-70768506D01*
X24849039Y-70819552D01*
X24732100Y-70907092D01*
X24732092Y-70907100D01*
X24703753Y-70944957D01*
X24653744Y-70980210D01*
X24592565Y-70979336D01*
X24543584Y-70942668D01*
X24525500Y-70885628D01*
X24525500Y-70657789D01*
X24526719Y-70642304D01*
X24535372Y-70587665D01*
X24537705Y-70572936D01*
X24547274Y-70543481D01*
X24575581Y-70487927D01*
X24593782Y-70462874D01*
X24637874Y-70418782D01*
X24662927Y-70400581D01*
X24718481Y-70372274D01*
X24747934Y-70362705D01*
X24807086Y-70353337D01*
X24817304Y-70351719D01*
X24832789Y-70350500D01*
X24833285Y-70350500D01*
X33805683Y-70350500D01*
X33863874Y-70369407D01*
G37*
%TD.AperFunction*%
%TA.AperFunction,Conductor*%
G36*
X27277382Y-71821000D02*
G01*
X28213314Y-71821000D01*
X28204920Y-71829394D01*
X28152259Y-71920606D01*
X28125000Y-72022339D01*
X28125000Y-72127661D01*
X28152259Y-72229394D01*
X28204920Y-72320606D01*
X28213314Y-72329000D01*
X27158007Y-72329000D01*
X27142618Y-72324000D01*
X26206686Y-72324000D01*
X26215080Y-72315606D01*
X26267741Y-72224394D01*
X26295000Y-72122661D01*
X26295000Y-72017339D01*
X26267741Y-71915606D01*
X26215080Y-71824394D01*
X26206686Y-71816000D01*
X27261993Y-71816000D01*
X27277382Y-71821000D01*
G37*
%TD.AperFunction*%
%TD*%
M02*
